<?xml version="1.0" encoding="utf-8"?>
<!-- Generator: Adobe Illustrator 27.9.0, SVG Export Plug-In . SVG Version: 6.00 Build 0)  -->
<svg version="1.1" id="Layer_1" xmlns="http://www.w3.org/2000/svg" xmlns:xlink="http://www.w3.org/1999/xlink" x="0px" y="0px"
	 viewBox="0 0 792 612" style="enable-background:new 0 0 792 612;" xml:space="preserve">
<style type="text/css">
	.st0{fill:#CCD5E8;}
	.st1{fill:#F1E2CC;}
	.st2{fill:#F2CAE0;}
	.st3{fill:#B5DECC;}
	.st4{fill:#E6F0CA;}
	.st5{fill:#FFF2AF;}
	.st6{fill:#989898;}
	.st7{font-family:'MyriadPro-Regular';}
	.st8{font-size:3.4762px;}
	.st9{fill:none;stroke:#010101;stroke-width:0.1425;stroke-miterlimit:10;stroke-dasharray:1.7101,0.855;}
	.st10{fill:none;stroke:#010101;stroke-width:0.1448;stroke-miterlimit:10;stroke-dasharray:0.2896,0.8689;}
	
		.st11{fill:none;stroke:#010101;stroke-width:0.1448;stroke-miterlimit:10;stroke-dasharray:0.2896,0.8689,0.2896,0.8689,0.8689,0.8689;}
	.st12{fill:none;stroke:#010101;stroke-width:0.1448;stroke-miterlimit:10;stroke-dasharray:0.8689,0.8689;}
	.st13{fill:none;stroke:#010101;stroke-width:0.1482;stroke-miterlimit:10;stroke-dasharray:0.889,0.889,0.889,0.889,1.7779,0.889;}
	.st14{fill:none;stroke:#010101;stroke-width:0.1448;stroke-miterlimit:10;}
	.st15{fill:#010101;}
	.st16{fill:none;stroke:#989898;stroke-width:0.1448;stroke-miterlimit:10;}
	.st17{fill:none;stroke:#676767;stroke-width:0.1448;stroke-miterlimit:10;}
	.st18{fill:#676767;}
	.st19{fill:none;}
	.st20{fill:none;stroke:#010101;stroke-width:0.1483;stroke-miterlimit:10;stroke-dasharray:0.5933,0.5933;}
	.st21{fill:#FFFFFF;stroke:#010101;stroke-width:0.4113;stroke-linecap:round;stroke-linejoin:round;stroke-miterlimit:10;}
	.st22{fill:#FFFFFF;stroke:#989898;stroke-width:0.4113;stroke-linecap:round;stroke-linejoin:round;stroke-miterlimit:10;}
	.st23{fill:none;stroke:#010101;stroke-width:0.9985;stroke-linecap:round;stroke-linejoin:round;stroke-miterlimit:10;}
	.st24{fill:none;stroke:#676767;stroke-width:0.5461;stroke-miterlimit:10;}
	.st25{font-family:'MyriadPro-It';}
	.st26{font-size:10.9219px;}
</style>
<g id="Layer_1_00000126286482379929670120000004909324877158845058_">
</g>
<g id="colors">
</g>
<g>
	<path class="st0" d="M183.6,502.8c-51.7,0-43-1.3-62.5-1.3c-22.2,0-20.7,1.1-20.7-15.2c0-13-1.3-11.6,31.9-11.6
		c21.8,0,34.9-0.1,54.6-0.1c24.7,0,24-1.5,24,11.2C210.9,503.6,212.9,502.8,183.6,502.8z"/>
	<path class="st1" d="M80.1,424c13,0,43.9-1.3,69.9,7.9c24.4,8.6,27.2,10.8,42.1,10.8c20.1,0,18.8-1.5,18.8,15.6
		c0,17.3,1.6,14.8-45.6,14.8c-42.8,0-50.5,0-80.7,0c-21.9,0-19.6,2-19.6-27.1C64.9,423.4,63.8,424,80.1,424z"/>
	<path class="st2" d="M89.5,422.7c23.3,0,36.1,0.8,52.1,5.1c27.2,7.2,30.3,13.4,53.4,13.4c18.6,0,15.9,3.3,15.9-32.9
		c0-30.9,1.6-27.4-28-27.4c-21.8,0-35.7,10.7-66.6,10.7c-53.7,0-51.4-4.1-51.4,13.2C64.9,422.3,62.6,422.7,89.5,422.7z"/>
	<path class="st3" d="M98.1,390c26,0,30.4,1.3,45.1-2.7c34.8-9.5,32.2-7.2,32.2-20.8c0-13.6-2.9-12.9-32.1-12.9
		c-26.5,0-29.9-3.7-52.6-3.7c-26.6,0-25.9-0.8-25.9,25.5C64.9,390.5,64,390,98.1,390z"/>
	<path class="st4" d="M161.1,381c2.2-0.8,7.9-2.3,27.9-2.3c21.3,0,21.7,1.1,21.7-14.1c0-16.2,0.2-15.3-20-15.3
		c-18.2,0-11.9,2.7-34,2.7c-19.8,0-18.1-1.4-18.1,18.8c0,17.6-0.7,16.4,8.6,14.1C159.5,381.8,157.7,382.3,161.1,381z"/>
	<path class="st5" d="M133.3,489c0,15.1,1.8,13.6-22.3,13.6c-21.7,0-18.3,0.1-31.7,0.1c-16.5,0-14.2,2.1-14.2-16.3
		c0-12.9-1.2-11.5,19-11.5c10.8,0,19.5,1.5,35.1,1.5S133.3,475.4,133.3,489z"/>
	
		<image style="overflow:visible;enable-background:new    ;" width="512" height="512" xlink:href="../../../../gdsc/docs/B1E9FDDEAADDE838.png"  transform="matrix(-2.545822e-02 0 0 2.545822e-02 83.9488 442.9983)">
	</image>
	
		<image style="overflow:visible;enable-background:new    ;" width="510" height="512" xlink:href="../../../../gdsc/docs/B1E9FDDEAADDE823.png"  transform="matrix(2.550799e-02 0 0 2.550799e-02 163.8864 402.3701)">
	</image>
	
		<image style="overflow:visible;enable-background:new    ;" width="501" height="508" xlink:href="../../../../gdsc/docs/B1E9FDDEAADDE824.png"  transform="matrix(2.581030e-02 0 0 2.581030e-02 187.1782 413.7177)">
	</image>
	
		<image style="overflow:visible;enable-background:new    ;" width="513" height="497" xlink:href="../../../../gdsc/docs/B1E9FDDEAADDE825.png"  transform="matrix(2.568243e-02 0 0 2.568243e-02 173.9485 385.6262)">
	</image>
	
		<image style="overflow:visible;enable-background:new    ;" width="505" height="496" xlink:href="../../../../gdsc/docs/B1E9FDDEAADDE826.png"  transform="matrix(2.596459e-02 0 0 2.596459e-02 128.0267 395.3994)">
	</image>
	
		<image style="overflow:visible;enable-background:new    ;" width="512" height="512" xlink:href="../../../../gdsc/docs/B1E9FDDEAADDE827.png"  transform="matrix(-2.545822e-02 0 0 2.545822e-02 98.8162 430.544)">
	</image>
	
		<image style="overflow:visible;enable-background:new    ;" width="512" height="512" xlink:href="../../../../gdsc/docs/B1E9FDDEAADDE82B.png"  transform="matrix(-2.545822e-02 0 0 2.545822e-02 115.0795 455.5083)">
	</image>
	
		<image style="overflow:visible;enable-background:new    ;" width="497" height="510" xlink:href="../../../../gdsc/docs/B1E9FDDEAADDE82D.png"  transform="matrix(2.578455e-02 0 0 2.578455e-02 101.5329 396.2396)">
	</image>
	
		<image style="overflow:visible;enable-background:new    ;" width="501" height="499" xlink:href="../../../../gdsc/docs/B1E9FDDEAADDE82E.png"  transform="matrix(2.606896e-02 0 0 2.606896e-02 99.9092 368.5983)">
	</image>
	
		<image style="overflow:visible;opacity:0.42;enable-background:new    ;" width="512" height="512" xlink:href="../../../../gdsc/docs/B6D1B12EB2128F78.png"  transform="matrix(-2.545822e-02 0 0 2.545822e-02 137.7095 430.9858)">
	</image>
	
		<image style="overflow:visible;opacity:0.42;enable-background:new    ;" width="495" height="510" xlink:href="../../../../gdsc/docs/B6D1B12EB2128F79.png"  transform="matrix(2.583509e-02 0 0 2.583509e-02 146.5965 397.2876)">
	</image>
	
		<image style="overflow:visible;opacity:0.23;enable-background:new    ;" width="512" height="512" xlink:href="../../../../gdsc/docs/B6D1B12EB2128F74.png"  transform="matrix(-2.545822e-02 0 0 2.545822e-02 159.3274 435.5051)">
	</image>
	
		<image style="overflow:visible;enable-background:new    ;" width="131" height="131" xlink:href="../../../../gdsc/docs/B6D1B12EB2128F75.png"  transform="matrix(8.925988e-02 0 0 8.925988e-02 171.4197 448.0544)">
	</image>
	
		<image style="overflow:visible;enable-background:new    ;" width="880" height="515" xlink:href="../../../../gdsc/docs/B6D1B12EB2128F76.png"  transform="matrix(2.182814e-02 0 0 2.182814e-02 178.6114 481.8689)">
	</image>
	<text transform="matrix(1 8.158614e-03 -8.158614e-03 1 160.3884 418.0038)" class="st6 st7 st8">.</text>
	
		<image style="overflow:visible;enable-background:new    ;" width="506" height="506" xlink:href="../../../../gdsc/docs/B6D1B12EB2128F77.png"  transform="matrix(2.617039e-02 0 0 2.617039e-02 143.191 478.6959)">
	</image>
	
		<image style="overflow:visible;enable-background:new    ;" width="512" height="512" xlink:href="../../../../gdsc/docs/B6D1B12EB2128F68.png"  transform="matrix(-2.545822e-02 0 0 2.545822e-02 118.0736 428.4329)">
	</image>
	
		<image style="overflow:visible;enable-background:new    ;" width="462" height="478" xlink:href="../../../../gdsc/docs/B6D1B12EB2128F60.jpeg"  transform="matrix(2.117157e-02 0 0 2.117157e-02 160.5232 362.8918)">
	</image>
	
		<image style="overflow:visible;enable-background:new    ;" width="462" height="478" xlink:href="../../../../gdsc/docs/B6D1B12EB2128F60.jpeg"  transform="matrix(2.114874e-02 0 0 2.114874e-02 76.7206 401.0758)">
	</image>
	
		<image style="overflow:visible;enable-background:new    ;" width="471" height="512" xlink:href="../../../../gdsc/docs/B6D1B12EB2128F9B.jpeg"  transform="matrix(2.024493e-02 1.652194e-04 -1.652194e-04 2.024493e-02 79.6948 367.0698)">
	</image>
	
		<image style="overflow:visible;enable-background:new    ;" width="891" height="507" xlink:href="../../../../gdsc/docs/B6D1B12EB2128F87.png"  transform="matrix(2.834783e-02 0 0 2.834783e-02 137.2574 325.8985)">
	</image>
	<path class="st9" d="M80.1,424c13,0,43.9-1.3,69.9,7.9c24.4,8.6,27.2,10.8,42.1,10.8c20.1,0,18.8-1.5,18.8,15.6
		c0,17.3,1.6,14.8-45.6,14.8c-42.8,0-50.5,0-80.7,0c-21.9,0-19.6,2-19.6-27.1C64.9,423.4,63.8,424,80.1,424z"/>
	<path class="st10" d="M183.6,502.8c-51.7,0-43-1.3-62.5-1.3c-22.2,0-20.7,1.1-20.7-15.2c0-13-1.3-11.6,31.9-11.6
		c21.8,0,34.9-0.1,54.6-0.1c24.7,0,24-1.5,24,11.2C210.9,503.6,212.9,502.8,183.6,502.8z"/>
	<path class="st11" d="M89.5,422.7c23.3,0,36.1,0.8,52.1,5.1c27.2,7.2,30.3,13.4,53.4,13.4c18.6,0,15.9,3.3,15.9-32.9
		c0-30.9,1.6-27.4-28-27.4c-21.8,0-35.7,10.7-66.6,10.7c-53.7,0-51.4-4.1-51.4,13.2C64.9,422.3,62.6,422.7,89.5,422.7z"/>
	<path class="st12" d="M98.1,390c26,0,30.4,1.3,45.1-2.7c34.8-9.5,32.2-7.2,32.2-20.8c0-13.6-2.9-12.9-32.1-12.9
		c-26.5,0-29.9-3.7-52.6-3.7c-26.6,0-25.9-0.8-25.9,25.5C64.9,390.5,64,390,98.1,390z"/>
	<path class="st13" d="M161.1,381c2.2-0.8,7.9-2.3,27.9-2.3c21.3,0,21.7,1.1,21.7-14.1c0-16.2,0.2-15.3-20-15.3
		c-18.2,0-11.9,2.7-34,2.7c-19.8,0-18.1-1.4-18.1,18.8c0,17.6-0.7,16.4,8.6,14.1C159.5,381.8,157.7,382.3,161.1,381z"/>
	<g>
		<g>
			<line class="st14" x1="117.2" y1="467.6" x2="140.9" y2="479.6"/>
			<g>
				<path class="st15" d="M117.4,467.7l0.5-0.3v0l-0.9-0.1c-0.3-0.1-0.6-0.2-0.9-0.2c0.2,0.2,0.5,0.4,0.7,0.6l0.6,0.7h0L117.4,467.7
					z"/>
			</g>
			<g>
				<path class="st15" d="M140.7,479.5l-0.1-0.6h0l0.6,0.7c0.2,0.2,0.5,0.4,0.7,0.6c-0.3-0.1-0.6-0.2-0.9-0.2l-0.9-0.1v0
					L140.7,479.5z"/>
			</g>
		</g>
	</g>
	<g>
		<g>
			<line class="st14" x1="168.2" y1="457" x2="117.9" y2="460.5"/>
			<g>
				<path class="st15" d="M167.9,457.1l-0.3,0.5h0l0.8-0.4c0.3-0.1,0.6-0.2,0.9-0.3c-0.3-0.1-0.6-0.1-0.9-0.1l-0.9-0.3h0
					L167.9,457.1z"/>
			</g>
			<g>
				<path class="st15" d="M118.1,460.5l0.3,0.5h0l-0.9-0.3c-0.3-0.1-0.6-0.1-0.9-0.1c0.3-0.1,0.6-0.2,0.9-0.3l0.8-0.4h0L118.1,460.5
					z"/>
			</g>
		</g>
	</g>
	<g>
		<g>
			<line class="st16" x1="143" y1="450.5" x2="116.3" y2="456"/>
			<g>
				<path class="st6" d="M142.8,450.5l-0.2,0.6h0l0.8-0.5c0.3-0.1,0.6-0.2,0.8-0.4c-0.3,0-0.6,0-0.9,0l-0.9-0.2h0L142.8,450.5z"/>
			</g>
			<g>
				<path class="st6" d="M116.5,456l0.4,0.5l0,0l-0.9-0.2c-0.3,0-0.6,0-0.9,0c0.3-0.1,0.6-0.2,0.8-0.4l0.8-0.5h0L116.5,456z"/>
			</g>
		</g>
	</g>
	<g>
		<g>
			<line class="st17" x1="125" y1="445.7" x2="113.4" y2="453.1"/>
			<g>
				<path class="st18" d="M124.7,445.9l0,0.6h0l0.5-0.7c0.2-0.2,0.4-0.4,0.6-0.6c-0.3,0.1-0.6,0.2-0.8,0.3l-0.9,0.2v0L124.7,445.9z"
					/>
			</g>
			<g>
				<path class="st18" d="M113.6,453l0.6,0.3v0l-0.9,0.2c-0.3,0.1-0.6,0.2-0.8,0.3c0.2-0.2,0.4-0.4,0.6-0.6l0.5-0.7h0L113.6,453
					L113.6,453z"/>
			</g>
		</g>
	</g>
	<g>
		<line class="st19" x1="96.2" y1="443.8" x2="105.6" y2="453.3"/>
		<g>
			<line class="st14" x1="97.1" y1="444.6" x2="104.8" y2="452.5"/>
			<g>
				<path class="st15" d="M97.2,444.8l0.6-0.1v0l-0.8-0.4c-0.3-0.2-0.5-0.3-0.8-0.5c0.2,0.3,0.3,0.5,0.5,0.8l0.3,0.8h0L97.2,444.8z"
					/>
			</g>
			<g>
				<path class="st15" d="M104.6,452.3l0.2-0.6h0l0.3,0.8c0.2,0.3,0.3,0.5,0.5,0.8c-0.3-0.2-0.5-0.3-0.8-0.5l-0.8-0.4v0L104.6,452.3
					z"/>
			</g>
		</g>
	</g>
	<g>
		<line class="st19" x1="85.4" y1="451.3" x2="102.3" y2="455.5"/>
		<g>
			<line class="st14" x1="86.6" y1="451.6" x2="101.2" y2="455.3"/>
			<g>
				<path class="st15" d="M86.8,451.7l0.4-0.4l0,0l-0.9,0.1c-0.3,0-0.6,0-0.9,0c0.3,0.1,0.6,0.3,0.8,0.4l0.7,0.5h0L86.8,451.7z"/>
			</g>
			<g>
				<path class="st15" d="M101,455.2l-0.2-0.6h0l0.7,0.5c0.3,0.1,0.6,0.3,0.8,0.4c-0.3,0-0.6,0-0.9,0l-0.9,0.1h0L101,455.2z"/>
			</g>
		</g>
	</g>
	<g>
		<g>
			<line class="st14" x1="89.9" y1="483.7" x2="102.8" y2="469.8"/>
			<g>
				<path class="st15" d="M90.1,483.4l-0.2-0.6h0l-0.3,0.8c-0.2,0.3-0.3,0.5-0.5,0.8c0.2-0.2,0.5-0.3,0.7-0.5l0.8-0.4v0L90.1,483.4z
					"/>
			</g>
			<g>
				<path class="st15" d="M102.6,470l-0.6-0.1v0l0.8-0.4c0.2-0.2,0.5-0.3,0.7-0.5c-0.2,0.3-0.3,0.5-0.5,0.8l-0.3,0.8h0L102.6,470z"
					/>
			</g>
		</g>
	</g>
	<g>
		<g>
			<line class="st14" x1="130" y1="486.4" x2="140.8" y2="485"/>
			<g>
				<path class="st15" d="M130.2,486.3l0.2-0.6h0l-0.8,0.5c-0.3,0.1-0.6,0.2-0.8,0.3c0.3,0,0.6,0.1,0.9,0.1l0.9,0.2h0L130.2,486.3z"
					/>
			</g>
			<g>
				<path class="st15" d="M140.5,485l-0.4-0.5l0,0l0.9,0.2c0.3,0,0.6,0.1,0.9,0.1c-0.3,0.1-0.6,0.2-0.8,0.3l-0.8,0.5h0L140.5,485z"
					/>
			</g>
		</g>
	</g>
	<g>
		<g>
			<line class="st14" x1="88.8" y1="405.2" x2="98" y2="404.2"/>
			<g>
				<path class="st15" d="M89,405.2l0.3-0.6h0l-0.8,0.4c-0.3,0.1-0.6,0.2-0.9,0.3c0.3,0,0.6,0.1,0.9,0.1l0.9,0.2h0L89,405.2z"/>
			</g>
			<g>
				<path class="st15" d="M97.7,404.2l-0.4-0.5l0,0l0.9,0.2c0.3,0,0.6,0.1,0.9,0.1c-0.3,0.1-0.6,0.2-0.9,0.3l-0.8,0.4h0L97.7,404.2z
					"/>
			</g>
		</g>
	</g>
	<g>
		<g>
			<line class="st14" x1="81.9" y1="394.3" x2="83.6" y2="380.4"/>
			<g>
				<path class="st15" d="M81.9,394l-0.5-0.4l0,0l0.2,0.9c0,0.3,0.1,0.6,0.1,0.9c0.1-0.3,0.2-0.6,0.3-0.8l0.5-0.8v0L81.9,394z"/>
			</g>
			<g>
				<path class="st15" d="M83.6,380.6l-0.6,0.2v0l0.5-0.8c0.1-0.3,0.2-0.6,0.3-0.8c0,0.3,0.1,0.6,0.1,0.9l0.2,0.9v0L83.6,380.6z"/>
			</g>
		</g>
	</g>
	<path class="st20" d="M133.3,489c0,15.1,1.8,13.6-22.3,13.6c-21.7,0-18.3,0.1-31.7,0.1c-16.5,0-14.2,2.1-14.2-16.3
		c0-12.9-1.2-11.5,19-11.5c10.8,0,19.5,1.5,35.1,1.5S133.3,475.4,133.3,489z"/>
	
		<image style="overflow:visible;enable-background:new    ;" width="471" height="512" xlink:href="../../../../gdsc/docs/B6D1B12EB2128F87.jpeg"  transform="matrix(2.024493e-02 1.652194e-04 -1.652194e-04 2.024493e-02 118.742 357.7395)">
	</image>
	<g>
		<g>
			<path class="st14" d="M117.3,404c3.2,0.8,6.7,1.7,8.9,1.6"/>
			<g>
				<path class="st15" d="M117.6,404.1l0.4-0.4l0,0l-0.9,0.1c-0.3,0-0.6,0-0.9,0c0.3,0.1,0.5,0.3,0.8,0.4l0.7,0.5h0L117.6,404.1z"/>
			</g>
			<g>
				<path class="st15" d="M125.9,405.7l-0.4-0.5l0,0l0.9,0.3c0.3,0,0.6,0.1,0.9,0.1c-0.3,0.1-0.6,0.2-0.9,0.3l-0.8,0.4h0
					L125.9,405.7z"/>
			</g>
		</g>
	</g>
	<g>
		<g>
			<path class="st14" d="M117.3,406.5c6.1,2,20.2,4.4,27,1.6"/>
			<g>
				<path class="st15" d="M117.5,406.6l0.5-0.4v0l-0.9,0.1c-0.3,0-0.6-0.1-0.9-0.1c0.3,0.2,0.5,0.3,0.8,0.5l0.7,0.6h0L117.5,406.6z"
					/>
			</g>
			<g>
				<path class="st15" d="M144,408.2l-0.5-0.3v0l0.9-0.1c0.3-0.1,0.6-0.1,0.9-0.2c-0.2,0.2-0.5,0.4-0.7,0.6l-0.6,0.7h0L144,408.2z"
					/>
			</g>
		</g>
	</g>
	<g>
		<g>
			<line class="st14" x1="139.2" y1="393.9" x2="162" y2="377.6"/>
			<g>
				<path class="st15" d="M139.4,393.8l-0.1-0.6h0l-0.5,0.8c-0.2,0.2-0.4,0.5-0.6,0.7c0.3-0.1,0.6-0.2,0.8-0.3l0.9-0.2v0
					L139.4,393.8z"/>
			</g>
			<g>
				<path class="st15" d="M161.8,377.8l-0.6-0.2v0l0.9-0.2c0.3-0.1,0.6-0.2,0.8-0.3c-0.2,0.2-0.4,0.5-0.6,0.7l-0.5,0.8h0
					L161.8,377.8z"/>
			</g>
		</g>
	</g>
	<g>
		<g>
			<line class="st14" x1="157.1" y1="395.3" x2="165.8" y2="377.4"/>
			<g>
				<path class="st15" d="M157.3,395.1l-0.3-0.5h0l-0.1,0.9c-0.1,0.3-0.1,0.6-0.2,0.9c0.2-0.2,0.4-0.5,0.6-0.7l0.7-0.6v0
					L157.3,395.1z"/>
			</g>
			<g>
				<path class="st15" d="M165.7,377.6l-0.6,0.1v0l0.7-0.6c0.2-0.2,0.4-0.5,0.6-0.7c-0.1,0.3-0.1,0.6-0.2,0.9l-0.1,0.9h0
					L165.7,377.6z"/>
			</g>
		</g>
	</g>
	<g>
		<g>
			<line class="st14" x1="170.4" y1="399" x2="169.4" y2="376.1"/>
			<g>
				<path class="st15" d="M170.4,398.7l-0.5-0.3v0l0.4,0.8c0.1,0.3,0.2,0.6,0.2,0.9c0.1-0.3,0.1-0.6,0.2-0.9l0.3-0.9v0L170.4,398.7z
					"/>
			</g>
			<g>
				<path class="st15" d="M169.4,376.4l-0.5,0.3v0l0.3-0.9c0.1-0.3,0.1-0.6,0.2-0.9c0.1,0.3,0.2,0.6,0.2,0.9l0.4,0.8v0L169.4,376.4z
					"/>
			</g>
		</g>
	</g>
	<g>
		<g>
			<line class="st14" x1="177.6" y1="383.5" x2="172.4" y2="373.7"/>
			<g>
				<path class="st15" d="M177.5,383.3l-0.6,0v0l0.7,0.6c0.2,0.2,0.4,0.5,0.6,0.7c-0.1-0.3-0.2-0.6-0.2-0.9l-0.1-0.9h0L177.5,383.3z
					"/>
			</g>
			<g>
				<path class="st15" d="M172.5,373.9l-0.3,0.5h0l-0.1-0.9c-0.1-0.3-0.2-0.6-0.2-0.9c0.2,0.2,0.4,0.5,0.6,0.7l0.7,0.6v0
					L172.5,373.9z"/>
			</g>
		</g>
	</g>
	<g>
		<g>
			<path class="st14" d="M178.4,401c0.6,5.3,2.8,10.1,8.5,13.2"/>
			<g>
				<path class="st15" d="M178.4,401.3l0.6,0.3v0l-0.4-0.8c-0.1-0.3-0.2-0.6-0.3-0.9c0,0.3-0.1,0.6-0.1,0.9l-0.3,0.9v0L178.4,401.3z
					"/>
			</g>
			<g>
				<path class="st15" d="M186.6,414l-0.1-0.6h0l0.6,0.7c0.2,0.2,0.5,0.4,0.7,0.6c-0.3-0.1-0.6-0.2-0.9-0.2l-0.9-0.1v0L186.6,414z"
					/>
			</g>
		</g>
	</g>
	<g>
		<g>
			<line class="st16" x1="185.2" y1="369.8" x2="173" y2="367.4"/>
			<g>
				<path class="st6" d="M184.9,369.8l-0.4,0.5l0,0l0.9-0.2c0.3,0,0.6,0,0.9,0c-0.3-0.1-0.6-0.2-0.8-0.4l-0.8-0.5h0L184.9,369.8z"/>
			</g>
			<g>
				<path class="st6" d="M173.2,367.5l0.2,0.6h0l-0.8-0.5c-0.3-0.1-0.6-0.2-0.8-0.4c0.3,0,0.6,0,0.9,0l0.9-0.2h0L173.2,367.5z"/>
			</g>
		</g>
	</g>
	<g>
		<g>
			<line class="st14" x1="153" y1="355.7" x2="151.7" y2="345.3"/>
			<g>
				<path class="st15" d="M153,355.5l-0.6-0.2v0l0.5,0.8c0.1,0.3,0.2,0.6,0.3,0.8c0-0.3,0.1-0.6,0.1-0.9l0.2-0.9v0L153,355.5z"/>
			</g>
			<g>
				<path class="st15" d="M151.7,345.5l-0.5,0.4l0,0l0.2-0.9c0-0.3,0.1-0.6,0.1-0.9c0.1,0.3,0.2,0.6,0.3,0.8l0.5,0.8v0L151.7,345.5z
					"/>
			</g>
		</g>
	</g>
	<g>
		<g>
			<line class="st14" x1="103.2" y1="360.5" x2="139.1" y2="342.6"/>
			<g>
				<path class="st15" d="M103.4,360.4l0.1-0.6h0l-0.6,0.7c-0.2,0.2-0.5,0.4-0.7,0.6c0.3-0.1,0.6-0.2,0.9-0.2l0.9-0.1v0L103.4,360.4
					z"/>
			</g>
			<g>
				<path class="st15" d="M138.9,342.7l-0.5-0.3v0l0.9-0.1c0.3-0.1,0.6-0.2,0.9-0.2c-0.2,0.2-0.5,0.4-0.7,0.6l-0.6,0.7h0
					L138.9,342.7z"/>
			</g>
		</g>
	</g>
	<g>
		<g>
			<line class="st16" x1="181.4" y1="358.6" x2="162.3" y2="342.5"/>
			<g>
				<path class="st6" d="M181.2,358.5l-0.6,0.2v0l0.9,0.3c0.3,0.1,0.5,0.3,0.8,0.4c-0.2-0.2-0.4-0.5-0.6-0.7l-0.4-0.8h0L181.2,358.5
					z"/>
			</g>
			<g>
				<path class="st6" d="M162.6,342.7l-0.1,0.6h0l-0.4-0.8c-0.2-0.2-0.4-0.5-0.6-0.7c0.3,0.1,0.5,0.3,0.8,0.4l0.9,0.3v0L162.6,342.7
					z"/>
			</g>
		</g>
	</g>
	<g>
		<g>
			<line class="st14" x1="107.8" y1="393.7" x2="106.7" y2="384.4"/>
			<g>
				<path class="st15" d="M107.8,393.5l-0.6-0.3v0l0.4,0.8c0.1,0.3,0.2,0.6,0.3,0.8c0-0.3,0.1-0.6,0.1-0.9l0.2-0.9v0L107.8,393.5z"
					/>
			</g>
			<g>
				<path class="st15" d="M106.7,384.7l-0.5,0.4l0,0l0.2-0.9c0-0.3,0.1-0.6,0.1-0.9c0.1,0.3,0.2,0.6,0.3,0.8l0.4,0.8v0L106.7,384.7z
					"/>
			</g>
		</g>
	</g>
	<g>
		<g>
			<line class="st14" x1="115.9" y1="364.7" x2="112.4" y2="367.7"/>
			<g>
				<path class="st15" d="M115.7,364.9l0.1,0.6h0l0.4-0.8c0.2-0.2,0.4-0.5,0.5-0.7c-0.3,0.1-0.5,0.3-0.8,0.4l-0.9,0.3v0L115.7,364.9
					z"/>
			</g>
			<g>
				<path class="st15" d="M112.6,367.6l0.6,0.2v0l-0.9,0.3c-0.3,0.1-0.5,0.3-0.8,0.4c0.2-0.2,0.4-0.5,0.5-0.7l0.4-0.8h0L112.6,367.6
					z"/>
			</g>
		</g>
	</g>
	<g>
		<g>
			<line class="st14" x1="129.3" y1="355.8" x2="142.5" y2="344"/>
			<g>
				<path class="st15" d="M129.5,355.7l-0.1-0.6h0l-0.4,0.8c-0.2,0.2-0.3,0.5-0.5,0.7c0.3-0.2,0.5-0.3,0.8-0.5l0.8-0.3v0
					L129.5,355.7z"/>
			</g>
			<g>
				<path class="st15" d="M142.3,344.1l-0.6-0.2v0l0.8-0.3c0.3-0.2,0.5-0.3,0.8-0.5c-0.2,0.2-0.3,0.5-0.5,0.7l-0.4,0.8h0
					L142.3,344.1z"/>
			</g>
		</g>
	</g>
	<g>
		<g>
			<path class="st14" d="M117.5,371c-3.1,9.9,3.1,21.1,8.7,26"/>
			<g>
				<path class="st15" d="M117.4,371.3l0.4,0.5h0l-0.1-0.9c0-0.3,0.1-0.6,0.1-0.9c-0.2,0.3-0.3,0.5-0.5,0.8l-0.6,0.7v0L117.4,371.3z
					"/>
			</g>
			<g>
				<path class="st15" d="M126,396.9l0.1-0.6h0l0.4,0.8c0.2,0.2,0.4,0.5,0.6,0.7c-0.3-0.1-0.5-0.3-0.8-0.4l-0.9-0.3v0L126,396.9z"/>
			</g>
		</g>
	</g>
	<g>
		<g>
			<path class="st16" d="M119.4,374.7c-0.2,10.4,17.3,20.4,24.7,24.1"/>
			<g>
				<path class="st6" d="M119.4,375l0.5,0.3v0l-0.3-0.9c-0.1-0.3-0.1-0.6-0.1-0.9c-0.1,0.3-0.2,0.6-0.3,0.9l-0.4,0.8v0L119.4,375z"
					/>
			</g>
			<g>
				<path class="st6" d="M143.9,398.7l-0.1-0.6h0l0.6,0.7c0.2,0.2,0.5,0.4,0.7,0.6c-0.3-0.1-0.6-0.2-0.9-0.2l-0.9-0.1v0L143.9,398.7
					z"/>
			</g>
		</g>
	</g>
	<g>
		<g>
			<path class="st14" d="M123.5,378.5c5,8.6,34,19.8,42,23.7"/>
			<g>
				<path class="st15" d="M123.6,378.8l0.6,0.1v0l-0.7-0.6c-0.2-0.2-0.4-0.5-0.6-0.7c0.1,0.3,0.2,0.6,0.2,0.9l0.1,0.9h0L123.6,378.8
					z"/>
			</g>
			<g>
				<path class="st15" d="M165.2,402.1l-0.1-0.6h0l0.6,0.7c0.2,0.2,0.5,0.4,0.7,0.6c-0.3-0.1-0.6-0.1-0.9-0.2l-0.9-0.1v0
					L165.2,402.1z"/>
			</g>
		</g>
	</g>
	<g>
		<g>
			<line class="st16" x1="185" y1="345" x2="184.5" y2="357.6"/>
			<g>
				<path class="st6" d="M185,345.3l0.5,0.3v0l-0.3-0.9c-0.1-0.3-0.1-0.6-0.2-0.9c-0.1,0.3-0.2,0.6-0.2,0.9l-0.4,0.8v0L185,345.3z"
					/>
			</g>
			<g>
				<path class="st6" d="M184.5,357.4l0.5-0.3v0l-0.4,0.8c-0.1,0.3-0.2,0.6-0.2,0.9c-0.1-0.3-0.1-0.6-0.2-0.9l-0.3-0.9v0
					L184.5,357.4z"/>
			</g>
		</g>
	</g>
	<g>
		<g>
			<line class="st16" x1="181.2" y1="345" x2="166.8" y2="356.5"/>
			<g>
				<path class="st6" d="M181,345.1l0.1,0.6h0l0.5-0.8c0.2-0.2,0.4-0.5,0.6-0.7c-0.3,0.1-0.6,0.3-0.8,0.4l-0.9,0.3v0L181,345.1z"/>
			</g>
			<g>
				<path class="st6" d="M167,356.3l0.6,0.2v0l-0.9,0.3c-0.3,0.1-0.6,0.3-0.8,0.4c0.2-0.2,0.4-0.5,0.6-0.7l0.5-0.8h0L167,356.3z"/>
			</g>
		</g>
	</g>
	
		<image style="overflow:visible;enable-background:new    ;" width="461" height="508" xlink:href="../../../../gdsc/docs/B6D1B12EB2128F85.jpeg"  transform="matrix(2.050762e-02 0 0 2.050762e-02 188.5367 365.4795)">
	</image>
	<path class="st21" d="M114.5,490c0,0-1.5-1.5-3-0.1c-1.2,1.2-0.2,3.2,2,3.1c2.1-0.1,4.2,0,5.9,0s3.4-0.7,3.4-2.9
		c0.1-2.7-2.4-3.8-3.9-2.4c-1.5-1.6-4.4-1.6-5.5,1.7"/>
	<path class="st21" d="M80.5,494.6c0,0-1.5-1.5-3-0.1c-1.2,1.2-0.2,3.2,2,3.1c2.1-0.1,4.2,0,5.9,0s3.4-0.7,3.4-2.9
		c0.1-2.7-2.4-3.8-3.9-2.4c-1.5-1.6-4.4-1.6-5.5,1.7"/>
	<path class="st22" d="M190.7,329.5c0,0-1.5-1.5-3-0.1c-1.2,1.2-0.2,3.2,2,3.1c6.1-0.2,7.8,0,5.9,0c1.7,0,3.4-0.7,3.4-2.9
		c0.1-2.7-2.4-3.8-3.9-2.4c-1.5-1.6-4.4-1.6-5.5,1.7"/>
	<g>
		<g>
			<line class="st14" x1="159.1" y1="485.1" x2="179" y2="487.3"/>
			<g>
				<path class="st15" d="M159.4,485.1l0.4-0.5l0,0l-0.9,0.2c-0.3,0-0.6,0.1-0.9,0.1c0.3,0.1,0.6,0.2,0.8,0.3l0.8,0.4h0L159.4,485.1
					z"/>
			</g>
			<g>
				<path class="st15" d="M178.8,487.3l-0.3-0.6h0l0.8,0.4c0.3,0.1,0.6,0.2,0.8,0.3c-0.3,0-0.6,0.1-0.9,0.1l-0.9,0.2h0L178.8,487.3z
					"/>
			</g>
		</g>
	</g>
	<g>
		<g>
			<line class="st14" x1="110.1" y1="443.2" x2="108.8" y2="451.7"/>
			<g>
				<path class="st15" d="M110.1,443.4l0.5,0.4l0,0l-0.2-0.9c0-0.3,0-0.6-0.1-0.9c-0.1,0.3-0.2,0.6-0.3,0.8l-0.5,0.8v0L110.1,443.4z
					"/>
			</g>
			<g>
				<path class="st15" d="M108.8,451.4l0.6-0.2v0l-0.5,0.8c-0.1,0.3-0.2,0.6-0.3,0.8c0-0.3,0-0.6-0.1-0.9l-0.2-0.9v0L108.8,451.4z"
					/>
			</g>
		</g>
	</g>
	<g>
		<g>
			<line class="st14" x1="181.1" y1="446.8" x2="189.2" y2="428.7"/>
			<g>
				<path class="st15" d="M181.2,446.6l-0.3-0.5h0l0,0.9c-0.1,0.3-0.1,0.6-0.2,0.9c0.2-0.2,0.4-0.5,0.5-0.7l0.7-0.6v0L181.2,446.6z"
					/>
			</g>
			<g>
				<path class="st15" d="M189.1,428.9l-0.6,0.1v0l0.7-0.6c0.2-0.2,0.4-0.5,0.5-0.7c-0.1,0.3-0.1,0.6-0.2,0.9l0,0.9h0L189.1,428.9z"
					/>
			</g>
		</g>
	</g>
	<g>
		<g>
			<line class="st14" x1="178.8" y1="444.7" x2="174.3" y2="416.8"/>
			<g>
				<path class="st15" d="M178.7,444.5l-0.6-0.2v0l0.5,0.8c0.1,0.3,0.2,0.6,0.3,0.8c0-0.3,0-0.6,0.1-0.9l0.2-0.9v0L178.7,444.5z"/>
			</g>
			<g>
				<path class="st15" d="M174.3,417.1l-0.5,0.4l0,0l0.2-0.9c0-0.3,0-0.6,0.1-0.9c0.1,0.3,0.2,0.6,0.3,0.8l0.5,0.8v0L174.3,417.1z"
					/>
			</g>
		</g>
	</g>
	<g>
		<g>
			<path class="st14" d="M92.7,426.3c0.8-6.1-0.1-11.4,6.5-17.4"/>
			<g>
				<path class="st15" d="M92.7,426l-0.5-0.4l0,0l0.2,0.9c0,0.3,0.1,0.6,0.1,0.9c0.1-0.3,0.2-0.6,0.3-0.8l0.5-0.8v0L92.7,426z"/>
			</g>
			<g>
				<path class="st15" d="M99,409l-0.6-0.2v0l0.8-0.3c0.3-0.2,0.5-0.3,0.8-0.5c-0.2,0.2-0.3,0.5-0.5,0.7l-0.4,0.8h0L99,409z"/>
			</g>
		</g>
	</g>
	<g>
		<g>
			<path class="st14" d="M105.2,429.3c-8.2-6.8-12.5-14.1-6-20.4"/>
			<g>
				<path class="st15" d="M105,429.1l-0.6,0.2v0l0.9,0.3c0.3,0.1,0.5,0.3,0.8,0.4c-0.2-0.2-0.4-0.5-0.6-0.7l-0.5-0.8h0L105,429.1z"
					/>
			</g>
			<g>
				<path class="st15" d="M99,409l-0.6-0.2v0l0.8-0.3c0.3-0.2,0.5-0.3,0.8-0.5c-0.2,0.2-0.3,0.5-0.5,0.7l-0.4,0.8h0L99,409z"/>
			</g>
		</g>
	</g>
	<g>
		<g>
			<path class="st17" d="M124.3,431.4c-24.3-9.8-31.5-16.2-25.1-22.5"/>
			<g>
				<path class="st18" d="M124.1,431.3l-0.5,0.3v0l0.9,0c0.3,0.1,0.6,0.1,0.9,0.2c-0.2-0.2-0.5-0.3-0.7-0.5l-0.7-0.6h0L124.1,431.3z
					"/>
			</g>
			<g>
				<path class="st18" d="M99,409l-0.6-0.2v0l0.8-0.3c0.3-0.2,0.5-0.3,0.8-0.5c-0.2,0.2-0.3,0.5-0.5,0.7l-0.4,0.8h0L99,409z"/>
			</g>
		</g>
	</g>
	<g>
		<g>
			<path class="st16" d="M148.7,434.9c-38.5-12.4-55.2-19.5-49.4-26"/>
			<g>
				<path class="st6" d="M148.4,434.8l-0.5,0.4v0l0.9-0.1c0.3,0,0.6,0.1,0.9,0.1c-0.3-0.2-0.5-0.3-0.8-0.5l-0.7-0.6h0L148.4,434.8z"
					/>
			</g>
			<g>
				<path class="st6" d="M99.1,409.1l-0.6-0.1v0l0.8-0.4c0.3-0.2,0.5-0.3,0.8-0.5c-0.2,0.3-0.3,0.5-0.5,0.8l-0.3,0.8h0L99.1,409.1z"
					/>
			</g>
		</g>
	</g>
	<g>
		<g>
			<path class="st14" d="M79.4,439.1c3.8-11.1,10.2-22.4,19.8-30.3"/>
			<g>
				<path class="st15" d="M79.5,438.9l-0.4-0.5h0l0,0.9c0,0.3-0.1,0.6-0.1,0.9c0.2-0.3,0.3-0.5,0.5-0.8l0.6-0.7v0L79.5,438.9z"/>
			</g>
			<g>
				<path class="st15" d="M99,409l-0.6-0.2v0l0.9-0.3c0.3-0.1,0.5-0.3,0.8-0.4c-0.2,0.2-0.4,0.5-0.6,0.7l-0.5,0.8h0L99,409z"/>
			</g>
		</g>
	</g>
</g>
<g>
	<path class="st0" d="M248.8,240.4c-51.7,0-43-1.3-62.5-1.3c-22.2,0-20.7,1.1-20.7-15.2c0-13-1.3-11.6,31.9-11.6
		c21.8,0,34.9-0.1,54.6-0.1c24.7,0,24-1.5,24,11.2C276.2,241.3,278.1,240.4,248.8,240.4z"/>
	<path class="st1" d="M145.3,161.7c13,0,43.9-1.3,69.9,7.9c24.4,8.6,27.2,10.8,42.1,10.8c20.1,0,18.8-1.5,18.8,15.6
		c0,17.3,1.6,14.8-45.6,14.8c-42.8,0-50.5,0-80.7,0c-21.9,0-19.6,2-19.6-27.1C130.2,161,129,161.7,145.3,161.7z"/>
	<path class="st2" d="M154.7,160.4c23.3,0,36.1,0.8,52.1,5.1c27.2,7.2,30.3,13.4,53.4,13.4c18.6,0,15.9,3.3,15.9-32.9
		c0-30.9,1.6-27.4-28-27.4c-21.8,0-35.7,10.7-66.6,10.7c-53.7,0-51.4-4.1-51.4,13.2C130.2,160,127.8,160.4,154.7,160.4z"/>
	<path class="st3" d="M163.4,127.6c26,0,30.4,1.3,45.1-2.7c34.8-9.5,32.2-7.2,32.2-20.8s-2.9-12.9-32.1-12.9
		c-26.5,0-29.9-3.7-52.6-3.7c-26.6,0-25.9-0.8-25.9,25.5C130.2,128.1,129.3,127.6,163.4,127.6z"/>
	<path class="st4" d="M226.3,118.6c2.2-0.8,7.9-2.3,27.9-2.3c21.3,0,21.7,1.1,21.7-14.1c0-16.2,0.2-15.3-20-15.3
		c-18.2,0-11.9,2.7-34,2.7c-19.8,0-18.1-1.4-18.1,18.8c0,17.6-0.7,16.4,8.6,14.1C224.7,119.4,222.9,119.9,226.3,118.6z"/>
	<path class="st5" d="M198.5,226.6c0,15.1,1.8,13.6-22.3,13.6c-21.7,0-18.3,0.1-31.7,0.1c-16.5,0-14.2,2.1-14.2-16.3
		c0-12.9-1.2-11.5,19-11.5c10.8,0,19.5,1.5,35.1,1.5S198.5,213,198.5,226.6z"/>
	
		<image style="overflow:visible;enable-background:new    ;" width="512" height="512" xlink:href="../../../../gdsc/docs/B1E9FDDEAADDE838.png"  transform="matrix(-2.545822e-02 0 0 2.545822e-02 149.1835 180.6095)">
	</image>
	
		<image style="overflow:visible;enable-background:new    ;" width="510" height="512" xlink:href="../../../../gdsc/docs/B1E9FDDEAADDE823.png"  transform="matrix(2.550799e-02 0 0 2.550799e-02 229.1212 139.9813)">
	</image>
	
		<image style="overflow:visible;enable-background:new    ;" width="501" height="508" xlink:href="../../../../gdsc/docs/B1E9FDDEAADDE824.png"  transform="matrix(2.581030e-02 0 0 2.581030e-02 252.4129 151.3289)">
	</image>
	
		<image style="overflow:visible;enable-background:new    ;" width="513" height="497" xlink:href="../../../../gdsc/docs/B1E9FDDEAADDE825.png"  transform="matrix(2.568243e-02 0 0 2.568243e-02 239.1832 123.2374)">
	</image>
	
		<image style="overflow:visible;enable-background:new    ;" width="505" height="496" xlink:href="../../../../gdsc/docs/B1E9FDDEAADDE826.png"  transform="matrix(2.596459e-02 0 0 2.596459e-02 193.2615 133.0107)">
	</image>
	
		<image style="overflow:visible;enable-background:new    ;" width="512" height="512" xlink:href="../../../../gdsc/docs/B1E9FDDEAADDE827.png"  transform="matrix(-2.545822e-02 0 0 2.545822e-02 164.051 168.1553)">
	</image>
	
		<image style="overflow:visible;enable-background:new    ;" width="512" height="512" xlink:href="../../../../gdsc/docs/B1E9FDDEAADDE82B.png"  transform="matrix(-2.545822e-02 0 0 2.545822e-02 180.3143 193.1195)">
	</image>
	
		<image style="overflow:visible;enable-background:new    ;" width="497" height="510" xlink:href="../../../../gdsc/docs/B1E9FDDEAADDE82D.png"  transform="matrix(2.578455e-02 0 0 2.578455e-02 166.7677 133.8508)">
	</image>
	
		<image style="overflow:visible;enable-background:new    ;" width="501" height="499" xlink:href="../../../../gdsc/docs/B1E9FDDEAADDE82E.png"  transform="matrix(2.606896e-02 0 0 2.606896e-02 165.1439 106.2096)">
	</image>
	
		<image style="overflow:visible;opacity:0.42;enable-background:new    ;" width="512" height="512" xlink:href="../../../../gdsc/docs/B6D1B12EB2128F78.png"  transform="matrix(-2.545822e-02 0 0 2.545822e-02 202.9442 168.597)">
	</image>
	
		<image style="overflow:visible;opacity:0.42;enable-background:new    ;" width="495" height="510" xlink:href="../../../../gdsc/docs/B6D1B12EB2128F79.png"  transform="matrix(2.583509e-02 0 0 2.583509e-02 211.8313 134.8988)">
	</image>
	
		<image style="overflow:visible;opacity:0.23;enable-background:new    ;" width="512" height="512" xlink:href="../../../../gdsc/docs/B6D1B12EB2128F74.png"  transform="matrix(-2.545822e-02 0 0 2.545822e-02 224.5622 173.1163)">
	</image>
	
		<image style="overflow:visible;enable-background:new    ;" width="131" height="131" xlink:href="../../../../gdsc/docs/B6D1B12EB2128F75.png"  transform="matrix(8.925988e-02 0 0 8.925988e-02 236.6544 185.6656)">
	</image>
	
		<image style="overflow:visible;enable-background:new    ;" width="880" height="515" xlink:href="../../../../gdsc/docs/B6D1B12EB2128F76.png"  transform="matrix(2.182814e-02 0 0 2.182814e-02 243.8461 219.4801)">
	</image>
	<text transform="matrix(1 8.158614e-03 -8.158614e-03 1 225.6232 155.6151)" class="st6 st7 st8">.</text>
	
		<image style="overflow:visible;enable-background:new    ;" width="506" height="506" xlink:href="../../../../gdsc/docs/B6D1B12EB2128F77.png"  transform="matrix(2.617039e-02 0 0 2.617039e-02 208.4257 216.3072)">
	</image>
	
		<image style="overflow:visible;enable-background:new    ;" width="512" height="512" xlink:href="../../../../gdsc/docs/B6D1B12EB2128F68.png"  transform="matrix(-2.545822e-02 0 0 2.545822e-02 183.3084 166.0441)">
	</image>
	
		<image style="overflow:visible;enable-background:new    ;" width="462" height="478" xlink:href="../../../../gdsc/docs/B6D1B12EB2128F60.jpeg"  transform="matrix(2.117157e-02 0 0 2.117157e-02 225.758 100.5031)">
	</image>
	
		<image style="overflow:visible;enable-background:new    ;" width="462" height="478" xlink:href="../../../../gdsc/docs/B6D1B12EB2128F60.jpeg"  transform="matrix(2.114874e-02 0 0 2.114874e-02 141.9554 138.6871)">
	</image>
	
		<image style="overflow:visible;enable-background:new    ;" width="471" height="512" xlink:href="../../../../gdsc/docs/B6D1B12EB2128F9B.jpeg"  transform="matrix(2.024493e-02 1.652194e-04 -1.652194e-04 2.024493e-02 144.9296 104.681)">
	</image>
	
		<image style="overflow:visible;enable-background:new    ;" width="891" height="507" xlink:href="../../../../gdsc/docs/B6D1B12EB2128F87.png"  transform="matrix(2.834783e-02 0 0 2.834783e-02 202.4922 63.5098)">
	</image>
	<path class="st9" d="M145.3,161.7c13,0,43.9-1.3,69.9,7.9c24.4,8.6,27.2,10.8,42.1,10.8c20.1,0,18.8-1.5,18.8,15.6
		c0,17.3,1.6,14.8-45.6,14.8c-42.8,0-50.5,0-80.7,0c-21.9,0-19.6,2-19.6-27.1C130.2,161,129,161.7,145.3,161.7z"/>
	<path class="st10" d="M248.8,240.4c-51.7,0-43-1.3-62.5-1.3c-22.2,0-20.7,1.1-20.7-15.2c0-13-1.3-11.6,31.9-11.6
		c21.8,0,34.9-0.1,54.6-0.1c24.7,0,24-1.5,24,11.2C276.2,241.3,278.1,240.4,248.8,240.4z"/>
	<path class="st11" d="M154.7,160.4c23.3,0,36.1,0.8,52.1,5.1c27.2,7.2,30.3,13.4,53.4,13.4c18.6,0,15.9,3.3,15.9-32.9
		c0-30.9,1.6-27.4-28-27.4c-21.8,0-35.7,10.7-66.6,10.7c-53.7,0-51.4-4.1-51.4,13.2C130.2,160,127.8,160.4,154.7,160.4z"/>
	<path class="st12" d="M163.4,127.6c26,0,30.4,1.3,45.1-2.7c34.8-9.5,32.2-7.2,32.2-20.8s-2.9-12.9-32.1-12.9
		c-26.5,0-29.9-3.7-52.6-3.7c-26.6,0-25.9-0.8-25.9,25.5C130.2,128.1,129.3,127.6,163.4,127.6z"/>
	<path class="st13" d="M226.3,118.6c2.2-0.8,7.9-2.3,27.9-2.3c21.3,0,21.7,1.1,21.7-14.1c0-16.2,0.2-15.3-20-15.3
		c-18.2,0-11.9,2.7-34,2.7c-19.8,0-18.1-1.4-18.1,18.8c0,17.6-0.7,16.4,8.6,14.1C224.7,119.4,222.9,119.9,226.3,118.6z"/>
	<g>
		<g>
			<line class="st14" x1="182.5" y1="205.2" x2="206.2" y2="217.2"/>
			<g>
				<path class="st15" d="M182.7,205.4l0.5-0.3v0l-0.9-0.1c-0.3-0.1-0.6-0.2-0.9-0.2c0.2,0.2,0.5,0.4,0.7,0.6l0.6,0.7h0L182.7,205.4
					z"/>
			</g>
			<g>
				<path class="st15" d="M205.9,217.1l-0.1-0.6h0l0.6,0.7c0.2,0.2,0.5,0.4,0.7,0.6c-0.3-0.1-0.6-0.2-0.9-0.2l-0.9-0.1v0
					L205.9,217.1z"/>
			</g>
		</g>
	</g>
	<g>
		<g>
			<line class="st14" x1="233.4" y1="194.6" x2="183.1" y2="198.1"/>
			<g>
				<path class="st15" d="M233.1,194.7l-0.3,0.5h0l0.8-0.4c0.3-0.1,0.6-0.2,0.9-0.3c-0.3-0.1-0.6-0.1-0.9-0.1l-0.9-0.3h0
					L233.1,194.7z"/>
			</g>
			<g>
				<path class="st15" d="M183.4,198.1l0.3,0.5h0l-0.9-0.3c-0.3-0.1-0.6-0.1-0.9-0.1c0.3-0.1,0.6-0.2,0.9-0.3l0.8-0.4h0L183.4,198.1
					z"/>
			</g>
		</g>
	</g>
	<g>
		<g>
			<line class="st16" x1="208.3" y1="188.1" x2="181.5" y2="193.7"/>
			<g>
				<path class="st6" d="M208,188.1l-0.2,0.6h0l0.8-0.5c0.3-0.1,0.6-0.2,0.8-0.4c-0.3,0-0.6,0-0.9,0l-0.9-0.2h0L208,188.1z"/>
			</g>
			<g>
				<path class="st6" d="M181.8,193.6l0.4,0.5l0,0l-0.9-0.2c-0.3,0-0.6,0-0.9,0c0.3-0.1,0.6-0.2,0.8-0.4l0.8-0.5h0L181.8,193.6z"/>
			</g>
		</g>
	</g>
	<g>
		<g>
			<line class="st17" x1="190.2" y1="183.3" x2="178.7" y2="190.7"/>
			<g>
				<path class="st18" d="M190,183.5l0,0.6h0l0.5-0.7c0.2-0.2,0.4-0.4,0.6-0.6c-0.3,0.1-0.6,0.2-0.8,0.3l-0.9,0.2v0L190,183.5z"/>
			</g>
			<g>
				<path class="st18" d="M178.9,190.6l0.6,0.3v0l-0.9,0.2c-0.3,0.1-0.6,0.2-0.8,0.3c0.2-0.2,0.4-0.4,0.6-0.6l0.5-0.7h0V190.6
					L178.9,190.6z"/>
			</g>
		</g>
	</g>
	<g>
		<line class="st19" x1="161.5" y1="181.4" x2="170.8" y2="190.9"/>
		<g>
			<line class="st14" x1="162.3" y1="182.2" x2="170" y2="190.1"/>
			<g>
				<path class="st15" d="M162.5,182.4l0.6-0.1v0l-0.8-0.4c-0.3-0.2-0.5-0.3-0.8-0.5c0.2,0.3,0.3,0.5,0.5,0.8l0.3,0.8h0L162.5,182.4
					z"/>
			</g>
			<g>
				<path class="st15" d="M169.8,189.9l0.2-0.6h0l0.3,0.8c0.2,0.3,0.3,0.5,0.5,0.8c-0.3-0.2-0.5-0.3-0.8-0.5l-0.8-0.4v0L169.8,189.9
					z"/>
			</g>
		</g>
	</g>
	<g>
		<line class="st19" x1="150.7" y1="188.9" x2="167.6" y2="193.2"/>
		<g>
			<line class="st14" x1="151.8" y1="189.2" x2="166.4" y2="192.9"/>
			<g>
				<path class="st15" d="M152,189.3l0.4-0.4l0,0l-0.9,0.1c-0.3,0-0.6,0-0.9,0c0.3,0.1,0.6,0.3,0.8,0.4l0.7,0.5h0L152,189.3z"/>
			</g>
			<g>
				<path class="st15" d="M166.2,192.8l-0.2-0.6h0l0.7,0.5c0.3,0.1,0.6,0.3,0.8,0.4c-0.3,0-0.6,0-0.9,0l-0.9,0.1h0L166.2,192.8z"/>
			</g>
		</g>
	</g>
	<g>
		<g>
			<line class="st14" x1="155.1" y1="221.3" x2="168" y2="207.4"/>
			<g>
				<path class="st15" d="M155.3,221.1l-0.2-0.6h0l-0.3,0.8c-0.2,0.3-0.3,0.5-0.5,0.8c0.2-0.2,0.5-0.3,0.7-0.5l0.8-0.4v0
					L155.3,221.1z"/>
			</g>
			<g>
				<path class="st15" d="M167.8,207.6l-0.6-0.1v0l0.8-0.4c0.2-0.2,0.5-0.3,0.7-0.5c-0.2,0.3-0.3,0.5-0.5,0.8l-0.3,0.8h0
					L167.8,207.6z"/>
			</g>
		</g>
	</g>
	<g>
		<g>
			<line class="st14" x1="195.2" y1="224" x2="206" y2="222.6"/>
			<g>
				<path class="st15" d="M195.5,223.9l0.2-0.6h0l-0.8,0.5c-0.3,0.1-0.6,0.2-0.8,0.3c0.3,0,0.6,0.1,0.9,0.1l0.9,0.2h0L195.5,223.9z"
					/>
			</g>
			<g>
				<path class="st15" d="M205.8,222.6l-0.4-0.5l0,0l0.9,0.2c0.3,0,0.6,0.1,0.9,0.1c-0.3,0.1-0.6,0.2-0.8,0.3l-0.8,0.5h0
					L205.8,222.6z"/>
			</g>
		</g>
	</g>
	<g>
		<g>
			<line class="st14" x1="154" y1="142.8" x2="163.2" y2="141.8"/>
			<g>
				<path class="st15" d="M154.3,142.8l0.3-0.6h0l-0.8,0.4c-0.3,0.1-0.6,0.2-0.9,0.3c0.3,0,0.6,0.1,0.9,0.1l0.9,0.2h0L154.3,142.8z"
					/>
			</g>
			<g>
				<path class="st15" d="M163,141.8l-0.4-0.5l0,0l0.9,0.2c0.3,0,0.6,0.1,0.9,0.1c-0.3,0.1-0.6,0.2-0.9,0.3l-0.8,0.4h0L163,141.8z"
					/>
			</g>
		</g>
	</g>
	<g>
		<g>
			<line class="st14" x1="147.1" y1="131.9" x2="148.8" y2="118"/>
			<g>
				<path class="st15" d="M147.2,131.6l-0.5-0.4l0,0l0.2,0.9c0,0.3,0.1,0.6,0.1,0.9c0.1-0.3,0.2-0.6,0.3-0.8l0.5-0.8v0L147.2,131.6z
					"/>
			</g>
			<g>
				<path class="st15" d="M148.8,118.2l-0.6,0.2v0l0.5-0.8c0.1-0.3,0.2-0.6,0.3-0.8c0,0.3,0.1,0.6,0.1,0.9l0.2,0.9v0L148.8,118.2z"
					/>
			</g>
		</g>
	</g>
	<path class="st20" d="M198.5,226.6c0,15.1,1.8,13.6-22.3,13.6c-21.7,0-18.3,0.1-31.7,0.1c-16.5,0-14.2,2.1-14.2-16.3
		c0-12.9-1.2-11.5,19-11.5c10.8,0,19.5,1.5,35.1,1.5S198.5,213,198.5,226.6z"/>
	
		<image style="overflow:visible;enable-background:new    ;" width="471" height="512" xlink:href="../../../../gdsc/docs/B6D1B12EB2128F87.jpeg"  transform="matrix(2.024493e-02 1.652194e-04 -1.652194e-04 2.024493e-02 183.9767 95.3508)">
	</image>
	<g>
		<g>
			<path class="st14" d="M182.5,141.7c3.2,0.8,6.7,1.7,8.9,1.6"/>
			<g>
				<path class="st15" d="M182.8,141.7l0.4-0.4l0,0l-0.9,0.1c-0.3,0-0.6,0-0.9,0c0.3,0.1,0.5,0.3,0.8,0.4l0.7,0.5h0L182.8,141.7z"/>
			</g>
			<g>
				<path class="st15" d="M191.1,143.3l-0.4-0.5l0,0l0.9,0.3c0.3,0,0.6,0.1,0.9,0.1c-0.3,0.1-0.6,0.2-0.9,0.3l-0.8,0.4h0
					L191.1,143.3z"/>
			</g>
		</g>
	</g>
	<g>
		<g>
			<path class="st14" d="M182.5,144.1c6.1,2,20.2,4.4,27,1.6"/>
			<g>
				<path class="st15" d="M182.7,144.2l0.5-0.4v0l-0.9,0.1c-0.3,0-0.6-0.1-0.9-0.1c0.3,0.2,0.5,0.3,0.8,0.5l0.7,0.6h0L182.7,144.2z"
					/>
			</g>
			<g>
				<path class="st15" d="M209.2,145.8l-0.5-0.3v0l0.9-0.1c0.3-0.1,0.6-0.1,0.9-0.2c-0.2,0.2-0.5,0.4-0.7,0.6l-0.6,0.7h0
					L209.2,145.8z"/>
			</g>
		</g>
	</g>
	<g>
		<g>
			<line class="st14" x1="204.4" y1="131.6" x2="227.3" y2="115.2"/>
			<g>
				<path class="st15" d="M204.6,131.4l-0.1-0.6h0l-0.5,0.8c-0.2,0.2-0.4,0.5-0.6,0.7c0.3-0.1,0.6-0.2,0.8-0.3l0.9-0.2v0
					L204.6,131.4z"/>
			</g>
			<g>
				<path class="st15" d="M227,115.4l-0.6-0.2v0l0.9-0.2c0.3-0.1,0.6-0.2,0.8-0.3c-0.2,0.2-0.4,0.5-0.6,0.7l-0.5,0.8h0L227,115.4z"
					/>
			</g>
		</g>
	</g>
	<g>
		<g>
			<line class="st14" x1="222.4" y1="132.9" x2="231.1" y2="115"/>
			<g>
				<path class="st15" d="M222.5,132.7l-0.3-0.5h0l-0.1,0.9c-0.1,0.3-0.1,0.6-0.2,0.9c0.2-0.2,0.4-0.5,0.6-0.7l0.7-0.6v0
					L222.5,132.7z"/>
			</g>
			<g>
				<path class="st15" d="M230.9,115.2l-0.6,0.1v0l0.7-0.6c0.2-0.2,0.4-0.5,0.6-0.7c-0.1,0.3-0.1,0.6-0.2,0.9l-0.1,0.9h0
					L230.9,115.2z"/>
			</g>
		</g>
	</g>
	<g>
		<g>
			<line class="st14" x1="235.6" y1="136.6" x2="234.6" y2="113.7"/>
			<g>
				<path class="st15" d="M235.6,136.3l-0.5-0.3v0l0.4,0.8c0.1,0.3,0.2,0.6,0.2,0.9c0.1-0.3,0.1-0.6,0.2-0.9l0.3-0.9v0L235.6,136.3z
					"/>
			</g>
			<g>
				<path class="st15" d="M234.7,114l-0.5,0.3v0l0.3-0.9c0.1-0.3,0.1-0.6,0.2-0.9c0.1,0.3,0.2,0.6,0.2,0.9l0.4,0.8v0L234.7,114z"/>
			</g>
		</g>
	</g>
	<g>
		<g>
			<line class="st14" x1="242.9" y1="121.1" x2="237.6" y2="111.3"/>
			<g>
				<path class="st15" d="M242.8,120.9l-0.6,0v0l0.7,0.6c0.2,0.2,0.4,0.5,0.6,0.7c-0.1-0.3-0.2-0.6-0.2-0.9l-0.1-0.9h0L242.8,120.9z
					"/>
			</g>
			<g>
				<path class="st15" d="M237.8,111.5l-0.3,0.5h0l-0.1-0.9c-0.1-0.3-0.2-0.6-0.2-0.9c0.2,0.2,0.4,0.5,0.6,0.7l0.7,0.6v0
					L237.8,111.5z"/>
			</g>
		</g>
	</g>
	<g>
		<g>
			<path class="st14" d="M243.6,138.6c0.6,5.3,2.8,10.1,8.5,13.2"/>
			<g>
				<path class="st15" d="M243.7,138.9l0.6,0.3v0l-0.4-0.8c-0.1-0.3-0.2-0.6-0.3-0.9c0,0.3-0.1,0.6-0.1,0.9l-0.3,0.9v0L243.7,138.9z
					"/>
			</g>
			<g>
				<path class="st15" d="M251.9,151.6l-0.1-0.6h0l0.6,0.7c0.2,0.2,0.5,0.4,0.7,0.6c-0.3-0.1-0.6-0.2-0.9-0.2l-0.9-0.1v0
					L251.9,151.6z"/>
			</g>
		</g>
	</g>
	<g>
		<g>
			<line class="st16" x1="250.4" y1="107.4" x2="238.2" y2="105"/>
			<g>
				<path class="st6" d="M250.2,107.4l-0.4,0.5l0,0l0.9-0.2c0.3,0,0.6,0,0.9,0c-0.3-0.1-0.6-0.2-0.8-0.4l-0.8-0.5h0L250.2,107.4z"/>
			</g>
			<g>
				<path class="st6" d="M238.5,105.1l0.2,0.6h0l-0.8-0.5c-0.3-0.1-0.6-0.2-0.8-0.4c0.3,0,0.6,0,0.9,0l0.9-0.2h0L238.5,105.1z"/>
			</g>
		</g>
	</g>
	<g>
		<g>
			<line class="st14" x1="218.3" y1="93.3" x2="216.9" y2="82.9"/>
			<g>
				<path class="st15" d="M218.2,93.1l-0.6-0.2v0l0.5,0.8c0.1,0.3,0.2,0.6,0.3,0.8c0-0.3,0.1-0.6,0.1-0.9l0.2-0.9v0L218.2,93.1z"/>
			</g>
			<g>
				<path class="st15" d="M217,83.1l-0.5,0.4l0,0l0.2-0.9c0-0.3,0.1-0.6,0.1-0.9c0.1,0.3,0.2,0.6,0.3,0.8l0.5,0.8v0L217,83.1z"/>
			</g>
		</g>
	</g>
	<g>
		<g>
			<line class="st14" x1="168.4" y1="98.1" x2="204.4" y2="80.2"/>
			<g>
				<path class="st15" d="M168.6,98l0.1-0.6h0l-0.6,0.7c-0.2,0.2-0.5,0.4-0.7,0.6c0.3-0.1,0.6-0.2,0.9-0.2l0.9-0.1v0L168.6,98z"/>
			</g>
			<g>
				<path class="st15" d="M204.1,80.3l-0.5-0.3v0l0.9-0.1c0.3-0.1,0.6-0.2,0.9-0.2c-0.2,0.2-0.5,0.4-0.7,0.6l-0.6,0.7h0L204.1,80.3z
					"/>
			</g>
		</g>
	</g>
	<g>
		<g>
			<line class="st16" x1="246.6" y1="96.3" x2="227.6" y2="80.1"/>
			<g>
				<path class="st6" d="M246.4,96.1l-0.6,0.2v0l0.9,0.3c0.3,0.1,0.5,0.3,0.8,0.4c-0.2-0.2-0.4-0.5-0.6-0.7l-0.4-0.8h0L246.4,96.1z"
					/>
			</g>
			<g>
				<path class="st6" d="M227.8,80.3l-0.1,0.6h0l-0.4-0.8c-0.2-0.2-0.4-0.5-0.6-0.7c0.3,0.1,0.5,0.3,0.8,0.4l0.9,0.3v0L227.8,80.3z"
					/>
			</g>
		</g>
	</g>
	<g>
		<g>
			<line class="st14" x1="173" y1="131.3" x2="171.9" y2="122"/>
			<g>
				<path class="st15" d="M173,131.1l-0.6-0.3v0l0.4,0.8c0.1,0.3,0.2,0.6,0.3,0.8c0-0.3,0.1-0.6,0.1-0.9l0.2-0.9v0L173,131.1z"/>
			</g>
			<g>
				<path class="st15" d="M171.9,122.3l-0.5,0.4l0,0l0.2-0.9c0-0.3,0.1-0.6,0.1-0.9c0.1,0.3,0.2,0.6,0.3,0.8l0.4,0.8v0L171.9,122.3z
					"/>
			</g>
		</g>
	</g>
	<g>
		<g>
			<line class="st14" x1="181.1" y1="102.3" x2="177.6" y2="105.4"/>
			<g>
				<path class="st15" d="M181,102.5l0.1,0.6h0l0.4-0.8c0.2-0.2,0.4-0.5,0.5-0.7c-0.3,0.1-0.5,0.3-0.8,0.4l-0.9,0.3v0L181,102.5z"/>
			</g>
			<g>
				<path class="st15" d="M177.8,105.2l0.6,0.2v0l-0.9,0.3c-0.3,0.1-0.5,0.3-0.8,0.4c0.2-0.2,0.4-0.5,0.5-0.7l0.4-0.8h0L177.8,105.2
					z"/>
			</g>
		</g>
	</g>
	<g>
		<g>
			<line class="st14" x1="194.5" y1="93.4" x2="207.7" y2="81.6"/>
			<g>
				<path class="st15" d="M194.7,93.3l-0.1-0.6h0l-0.4,0.8c-0.2,0.2-0.3,0.5-0.5,0.7c0.3-0.2,0.5-0.3,0.8-0.5l0.8-0.3v0L194.7,93.3z
					"/>
			</g>
			<g>
				<path class="st15" d="M207.6,81.7l-0.6-0.2v0l0.8-0.3c0.3-0.2,0.5-0.3,0.8-0.5c-0.2,0.2-0.3,0.5-0.5,0.7l-0.4,0.8h0L207.6,81.7z
					"/>
			</g>
		</g>
	</g>
	<g>
		<g>
			<path class="st14" d="M182.8,108.6c-3.1,9.9,3.1,21.1,8.7,26"/>
			<g>
				<path class="st15" d="M182.7,108.9l0.4,0.5h0l-0.1-0.9c0-0.3,0.1-0.6,0.1-0.9c-0.2,0.3-0.3,0.5-0.5,0.8l-0.6,0.7v0L182.7,108.9z
					"/>
			</g>
			<g>
				<path class="st15" d="M191.3,134.5l0.1-0.6h0l0.4,0.8c0.2,0.2,0.4,0.5,0.6,0.7c-0.3-0.1-0.5-0.3-0.8-0.4l-0.9-0.3v0L191.3,134.5
					z"/>
			</g>
		</g>
	</g>
	<g>
		<g>
			<path class="st16" d="M184.6,112.4c-0.2,10.4,17.3,20.4,24.7,24.1"/>
			<g>
				<path class="st6" d="M184.6,112.6l0.5,0.3v0l-0.3-0.9c-0.1-0.3-0.1-0.6-0.1-0.9c-0.1,0.3-0.2,0.6-0.3,0.9l-0.4,0.8v0
					L184.6,112.6z"/>
			</g>
			<g>
				<path class="st6" d="M209.1,136.3l-0.1-0.6h0l0.6,0.7c0.2,0.2,0.5,0.4,0.7,0.6c-0.3-0.1-0.6-0.2-0.9-0.2l-0.9-0.1v0L209.1,136.3
					z"/>
			</g>
		</g>
	</g>
	<g>
		<g>
			<path class="st14" d="M188.7,116.1c5,8.6,34,19.8,42,23.7"/>
			<g>
				<path class="st15" d="M188.8,116.4l0.6,0.1v0l-0.7-0.6c-0.2-0.2-0.4-0.5-0.6-0.7c0.1,0.3,0.2,0.6,0.2,0.9l0.1,0.9h0L188.8,116.4
					z"/>
			</g>
			<g>
				<path class="st15" d="M230.5,139.7l-0.1-0.6h0l0.6,0.7c0.2,0.2,0.5,0.4,0.7,0.6c-0.3-0.1-0.6-0.1-0.9-0.2l-0.9-0.1v0
					L230.5,139.7z"/>
			</g>
		</g>
	</g>
	<g>
		<g>
			<line class="st16" x1="250.3" y1="82.7" x2="249.7" y2="95.3"/>
			<g>
				<path class="st6" d="M250.2,82.9l0.5,0.3v0l-0.3-0.9c-0.1-0.3-0.1-0.6-0.2-0.9c-0.1,0.3-0.2,0.6-0.2,0.9l-0.4,0.8v0L250.2,82.9z
					"/>
			</g>
			<g>
				<path class="st6" d="M249.7,95l0.5-0.3v0l-0.4,0.8c-0.1,0.3-0.2,0.6-0.2,0.9c-0.1-0.3-0.1-0.6-0.2-0.9l-0.3-0.9v0L249.7,95z"/>
			</g>
		</g>
	</g>
	<g>
		<g>
			<line class="st16" x1="246.4" y1="82.6" x2="232.1" y2="94.1"/>
			<g>
				<path class="st6" d="M246.2,82.7l0.1,0.6h0l0.5-0.8c0.2-0.2,0.4-0.5,0.6-0.7c-0.3,0.1-0.6,0.3-0.8,0.4l-0.9,0.3v0L246.2,82.7z"
					/>
			</g>
			<g>
				<path class="st6" d="M232.2,93.9l0.6,0.2v0l-0.9,0.3c-0.3,0.1-0.6,0.3-0.8,0.4c0.2-0.2,0.4-0.5,0.6-0.7l0.5-0.8h0L232.2,93.9z"
					/>
			</g>
		</g>
	</g>
	
		<image style="overflow:visible;enable-background:new    ;" width="461" height="508" xlink:href="../../../../gdsc/docs/B6D1B12EB2128F85.jpeg"  transform="matrix(2.050762e-02 0 0 2.050762e-02 253.7715 103.0907)">
	</image>
	<path class="st21" d="M179.7,227.6c0,0-1.5-1.5-3-0.1c-1.2,1.2-0.2,3.2,2,3.1c2.1-0.1,4.2,0,5.9,0s3.4-0.7,3.4-2.9
		c0.1-2.7-2.4-3.8-3.9-2.4c-1.5-1.6-4.4-1.6-5.5,1.7"/>
	<path class="st21" d="M145.7,232.2c0,0-1.5-1.5-3-0.1c-1.2,1.2-0.2,3.2,2,3.1c2.1-0.1,4.2,0,5.9,0s3.4-0.7,3.4-2.9
		c0.1-2.7-2.4-3.8-3.9-2.4c-1.5-1.6-4.4-1.6-5.5,1.7"/>
	<path class="st22" d="M255.9,67.1c0,0-1.5-1.5-3-0.1c-1.2,1.2-0.2,3.2,2,3.1c6.1-0.2,7.8,0,5.9,0c1.7,0,3.4-0.7,3.4-2.9
		c0.1-2.7-2.4-3.8-3.9-2.4c-1.5-1.6-4.4-1.6-5.5,1.7"/>
	<g>
		<g>
			<line class="st14" x1="224.3" y1="222.7" x2="244.3" y2="224.9"/>
			<g>
				<path class="st15" d="M224.6,222.7l0.4-0.5l0,0l-0.9,0.2c-0.3,0-0.6,0.1-0.9,0.1c0.3,0.1,0.6,0.2,0.8,0.3l0.8,0.4h0L224.6,222.7
					z"/>
			</g>
			<g>
				<path class="st15" d="M244,224.9l-0.3-0.6h0l0.8,0.4c0.3,0.1,0.6,0.2,0.8,0.3c-0.3,0-0.6,0.1-0.9,0.1l-0.9,0.2h0L244,224.9z"/>
			</g>
		</g>
	</g>
	<g>
		<g>
			<line class="st14" x1="175.3" y1="180.8" x2="174" y2="189.3"/>
			<g>
				<path class="st15" d="M175.3,181l0.5,0.4l0,0l-0.2-0.9c0-0.3,0-0.6-0.1-0.9c-0.1,0.3-0.2,0.6-0.3,0.8l-0.5,0.8v0L175.3,181z"/>
			</g>
			<g>
				<path class="st15" d="M174,189l0.6-0.2v0l-0.5,0.8c-0.1,0.3-0.2,0.6-0.3,0.8c0-0.3,0-0.6-0.1-0.9l-0.2-0.9v0L174,189z"/>
			</g>
		</g>
	</g>
	<g>
		<g>
			<line class="st14" x1="246.3" y1="184.4" x2="254.4" y2="166.3"/>
			<g>
				<path class="st15" d="M246.4,184.2l-0.3-0.5h0l0,0.9c-0.1,0.3-0.1,0.6-0.2,0.9c0.2-0.2,0.4-0.5,0.5-0.7l0.7-0.6v0L246.4,184.2z"
					/>
			</g>
			<g>
				<path class="st15" d="M254.3,166.5l-0.6,0.1v0l0.7-0.6c0.2-0.2,0.4-0.5,0.5-0.7c-0.1,0.3-0.1,0.6-0.2,0.9l0,0.9h0L254.3,166.5z"
					/>
			</g>
		</g>
	</g>
	<g>
		<g>
			<line class="st14" x1="244" y1="182.3" x2="239.5" y2="154.4"/>
			<g>
				<path class="st15" d="M243.9,182.1l-0.6-0.2v0l0.5,0.8c0.1,0.3,0.2,0.6,0.3,0.8c0-0.3,0-0.6,0.1-0.9l0.2-0.9v0L243.9,182.1z"/>
			</g>
			<g>
				<path class="st15" d="M239.6,154.7l-0.5,0.4l0,0l0.2-0.9c0-0.3,0-0.6,0.1-0.9c0.1,0.3,0.2,0.6,0.3,0.8l0.5,0.8v0L239.6,154.7z"
					/>
			</g>
		</g>
	</g>
	<g>
		<g>
			<path class="st14" d="M157.9,163.9c0.8-6.1-0.1-11.4,6.5-17.4"/>
			<g>
				<path class="st15" d="M157.9,163.6l-0.5-0.4l0,0l0.2,0.9c0,0.3,0.1,0.6,0.1,0.9c0.1-0.3,0.2-0.6,0.3-0.8l0.5-0.8v0L157.9,163.6z
					"/>
			</g>
			<g>
				<path class="st15" d="M164.3,146.6l-0.6-0.2v0l0.8-0.3c0.3-0.2,0.5-0.3,0.8-0.5c-0.2,0.2-0.3,0.5-0.5,0.7l-0.4,0.8h0
					L164.3,146.6z"/>
			</g>
		</g>
	</g>
	<g>
		<g>
			<path class="st14" d="M170.4,166.9c-8.2-6.8-12.5-14.1-6-20.4"/>
			<g>
				<path class="st15" d="M170.2,166.7l-0.6,0.2v0l0.9,0.3c0.3,0.1,0.5,0.3,0.8,0.4c-0.2-0.2-0.4-0.5-0.6-0.7l-0.5-0.8h0
					L170.2,166.7z"/>
			</g>
			<g>
				<path class="st15" d="M164.3,146.6l-0.6-0.2v0l0.8-0.3c0.3-0.2,0.5-0.3,0.8-0.5c-0.2,0.2-0.3,0.5-0.5,0.7l-0.4,0.8h0
					L164.3,146.6z"/>
			</g>
		</g>
	</g>
	<g>
		<g>
			<path class="st17" d="M189.5,169c-24.3-9.8-31.5-16.2-25.1-22.5"/>
			<g>
				<path class="st18" d="M189.3,168.9l-0.5,0.3v0l0.9,0c0.3,0.1,0.6,0.1,0.9,0.2c-0.2-0.2-0.5-0.3-0.7-0.5l-0.7-0.6h0L189.3,168.9z
					"/>
			</g>
			<g>
				<path class="st18" d="M164.3,146.6l-0.6-0.2v0l0.8-0.3c0.3-0.2,0.5-0.3,0.8-0.5c-0.2,0.2-0.3,0.5-0.5,0.7l-0.4,0.8h0
					L164.3,146.6z"/>
			</g>
		</g>
	</g>
	<g>
		<g>
			<path class="st16" d="M213.9,172.5c-38.5-12.4-55.2-19.5-49.4-26"/>
			<g>
				<path class="st6" d="M213.7,172.4l-0.5,0.4v0l0.9-0.1c0.3,0,0.6,0.1,0.9,0.1c-0.3-0.2-0.5-0.3-0.8-0.5l-0.7-0.6h0L213.7,172.4z"
					/>
			</g>
			<g>
				<path class="st6" d="M164.3,146.7l-0.6-0.1v0l0.8-0.4c0.3-0.2,0.5-0.3,0.8-0.5c-0.2,0.3-0.3,0.5-0.5,0.8l-0.3,0.8h0L164.3,146.7
					z"/>
			</g>
		</g>
	</g>
	<g>
		<g>
			<path class="st14" d="M144.6,176.7c3.8-11.1,10.2-22.4,19.8-30.3"/>
			<g>
				<path class="st15" d="M144.7,176.5l-0.4-0.5h0l0,0.9c0,0.3-0.1,0.6-0.1,0.9c0.2-0.3,0.3-0.5,0.5-0.8l0.6-0.7v0L144.7,176.5z"/>
			</g>
			<g>
				<path class="st15" d="M164.3,146.6l-0.6-0.2v0l0.9-0.3c0.3-0.1,0.5-0.3,0.8-0.4c-0.2,0.2-0.4,0.5-0.6,0.7l-0.5,0.8h0
					L164.3,146.6z"/>
			</g>
		</g>
	</g>
</g>
<path class="st0" d="M489.4,299.8c-17.6,0-15.5-1.3-35-1.3c-22.2,0-19.9,2.5-19.9-13.8c0-13-2.5-12.9,30.7-12.9
	c21.8,0,7.8-0.1,27.5-0.1c24.7,0,24-1.5,24,11.2C516.8,300.7,518.8,299.8,489.4,299.8z"/>
<path class="st1" d="M385.9,221.1c13,0,43.9-1.3,69.9,7.9c24.4,8.6,27.2,10.8,42.1,10.8c20.1,0,18.8-1.5,18.8,15.6
	c0,17.3,1.6,14.8-45.6,14.8c-42.8,0-50.5,0-80.7,0c-21.9,0-19.6,2-19.6-27.1C370.8,220.5,369.7,221.1,385.9,221.1z"/>
<path class="st2" d="M395.4,219.8c23.3,0,36.1,0.8,52.1,5.1c27.2,7.2,30.3,13.4,53.4,13.4c18.6,0,15.9,3.3,15.9-32.9
	c0-30.9,1.6-27.4-28-27.4c-21.8,0-35.7,10.7-66.6,10.7c-53.7,0-51.4-4.1-51.4,13.2C370.8,219.4,368.4,219.8,395.4,219.8z"/>
<path class="st3" d="M404,187c26,0,30.4,1.3,45.1-2.7c34.8-9.5,32.2-7.2,32.2-20.8s-2.9-12.9-32.1-12.9c-26.5,0-29.9-3.7-52.6-3.7
	c-26.6,0-25.9-0.8-25.9,25.5C370.8,187.5,369.9,187,404,187z"/>
<path class="st4" d="M467,178c2.2-0.8,7.9-2.3,27.9-2.3c21.3,0,21.7,1.1,21.7-14.1c0-16.2,0.2-15.3-20-15.3c-18.2,0-11.9,2.7-34,2.7
	c-19.8,0-18.1-1.4-18.1,18.8c0,17.6-0.7,16.4,8.6,14.1C465.4,178.9,463.6,179.3,467,178z"/>
<image style="overflow:visible;enable-background:new    ;" width="512" height="512" xlink:href="../../../../gdsc/docs/B1E9FDDEAADDE838.png"  transform="matrix(-2.545822e-02 0 0 2.545822e-02 389.8274 240.0457)">
</image>
<image style="overflow:visible;enable-background:new    ;" width="510" height="512" xlink:href="../../../../gdsc/docs/B1E9FDDEAADDE823.png"  transform="matrix(2.550799e-02 0 0 2.550799e-02 469.765 199.4174)">
</image>
<image style="overflow:visible;enable-background:new    ;" width="501" height="508" xlink:href="../../../../gdsc/docs/B1E9FDDEAADDE824.png"  transform="matrix(2.581030e-02 0 0 2.581030e-02 493.0567 210.765)">
</image>
<image style="overflow:visible;enable-background:new    ;" width="513" height="497" xlink:href="../../../../gdsc/docs/B1E9FDDEAADDE825.png"  transform="matrix(2.568243e-02 0 0 2.568243e-02 479.827 182.6735)">
</image>
<image style="overflow:visible;enable-background:new    ;" width="505" height="496" xlink:href="../../../../gdsc/docs/B1E9FDDEAADDE826.png"  transform="matrix(2.596459e-02 0 0 2.596459e-02 433.9053 192.4468)">
</image>
<image style="overflow:visible;enable-background:new    ;" width="512" height="512" xlink:href="../../../../gdsc/docs/B1E9FDDEAADDE827.png"  transform="matrix(-2.545822e-02 0 0 2.545822e-02 404.6948 227.5914)">
</image>
<image style="overflow:visible;enable-background:new    ;" width="512" height="512" xlink:href="../../../../gdsc/docs/B1E9FDDEAADDE82B.png"  transform="matrix(-2.545822e-02 0 0 2.545822e-02 420.9581 252.5557)">
</image>
<image style="overflow:visible;enable-background:new    ;" width="497" height="510" xlink:href="../../../../gdsc/docs/B1E9FDDEAADDE82D.png"  transform="matrix(2.578455e-02 0 0 2.578455e-02 407.4115 193.287)">
</image>
<image style="overflow:visible;enable-background:new    ;" width="501" height="499" xlink:href="../../../../gdsc/docs/B1E9FDDEAADDE82E.png"  transform="matrix(2.606896e-02 0 0 2.606896e-02 405.7878 165.6457)">
</image>
<image style="overflow:visible;opacity:0.42;enable-background:new    ;" width="512" height="512" xlink:href="../../../../gdsc/docs/B6D1B12EB2128F78.png"  transform="matrix(-2.545822e-02 0 0 2.545822e-02 443.588 228.0332)">
</image>
<image style="overflow:visible;opacity:0.42;enable-background:new    ;" width="495" height="510" xlink:href="../../../../gdsc/docs/B6D1B12EB2128F79.png"  transform="matrix(2.583509e-02 0 0 2.583509e-02 452.4751 194.335)">
</image>
<image style="overflow:visible;opacity:0.23;enable-background:new    ;" width="512" height="512" xlink:href="../../../../gdsc/docs/B6D1B12EB2128F74.png"  transform="matrix(-2.545822e-02 0 0 2.545822e-02 465.206 232.5525)">
</image>
<image style="overflow:visible;enable-background:new    ;" width="131" height="131" xlink:href="../../../../gdsc/docs/B6D1B12EB2128F75.png"  transform="matrix(8.925988e-02 0 0 8.925988e-02 477.2982 245.1018)">
</image>
<image style="overflow:visible;enable-background:new    ;" width="880" height="515" xlink:href="../../../../gdsc/docs/B6D1B12EB2128F76.png"  transform="matrix(2.182814e-02 0 0 2.182814e-02 484.4899 278.9163)">
</image>
<text transform="matrix(1 8.158614e-03 -8.158614e-03 1 466.267 215.0512)" class="st6 st7 st8">.</text>
<image style="overflow:visible;enable-background:new    ;" width="506" height="506" xlink:href="../../../../gdsc/docs/B6D1B12EB2128F77.png"  transform="matrix(2.617039e-02 0 0 2.617039e-02 449.0695 275.7433)">
</image>
<image style="overflow:visible;enable-background:new    ;" width="512" height="512" xlink:href="../../../../gdsc/docs/B6D1B12EB2128F68.png"  transform="matrix(-2.545822e-02 0 0 2.545822e-02 423.9522 225.4803)">
</image>
<image style="overflow:visible;enable-background:new    ;" width="462" height="478" xlink:href="../../../../gdsc/docs/B6D1B12EB2128F60.jpeg"  transform="matrix(2.117157e-02 0 0 2.117157e-02 466.4018 159.9392)">
</image>
<image style="overflow:visible;enable-background:new    ;" width="462" height="478" xlink:href="../../../../gdsc/docs/B6D1B12EB2128F60.jpeg"  transform="matrix(2.114874e-02 0 0 2.114874e-02 382.5992 198.1232)">
</image>
<image style="overflow:visible;enable-background:new    ;" width="471" height="512" xlink:href="../../../../gdsc/docs/B6D1B12EB2128F9B.jpeg"  transform="matrix(2.024493e-02 1.652194e-04 -1.652194e-04 2.024493e-02 385.5734 164.1172)">
</image>
<image style="overflow:visible;enable-background:new    ;" width="891" height="507" xlink:href="../../../../gdsc/docs/B6D1B12EB2128F87.png"  transform="matrix(2.834783e-02 0 0 2.834783e-02 443.136 122.9459)">
</image>
<path class="st9" d="M385.9,221.1c13,0,43.9-1.3,69.9,7.9c24.4,8.6,27.2,10.8,42.1,10.8c20.1,0,18.8-1.5,18.8,15.6
	c0,17.3,1.6,14.8-45.6,14.8c-42.8,0-50.5,0-80.7,0c-21.9,0-19.6,2-19.6-27.1C370.8,220.5,369.7,221.1,385.9,221.1z"/>
<path class="st11" d="M395.4,219.8c23.3,0,36.1,0.8,52.1,5.1c27.2,7.2,30.3,13.4,53.4,13.4c18.6,0,15.9,3.3,15.9-32.9
	c0-30.9,1.6-27.4-28-27.4c-21.8,0-35.7,10.7-66.6,10.7c-53.7,0-51.4-4.1-51.4,13.2C370.8,219.4,368.4,219.8,395.4,219.8z"/>
<path class="st12" d="M404,187c26,0,30.4,1.3,45.1-2.7c34.8-9.5,32.2-7.2,32.2-20.8s-2.9-12.9-32.1-12.9c-26.5,0-29.9-3.7-52.6-3.7
	c-26.6,0-25.9-0.8-25.9,25.5C370.8,187.5,369.9,187,404,187z"/>
<path class="st13" d="M467,178c2.2-0.8,7.9-2.3,27.9-2.3c21.3,0,21.7,1.1,21.7-14.1c0-16.2,0.2-15.3-20-15.3
	c-18.2,0-11.9,2.7-34,2.7c-19.8,0-18.1-1.4-18.1,18.8c0,17.6-0.7,16.4,8.6,14.1C465.4,178.9,463.6,179.3,467,178z"/>
<g>
	<g>
		<line class="st14" x1="423.1" y1="264.7" x2="446.8" y2="276.6"/>
		<g>
			<path class="st15" d="M423.3,264.8l0.5-0.3v0l-0.9-0.1c-0.3-0.1-0.6-0.2-0.9-0.2c0.2,0.2,0.5,0.4,0.7,0.6l0.6,0.7h0L423.3,264.8z
				"/>
		</g>
		<g>
			<path class="st15" d="M446.6,276.5l-0.1-0.6h0l0.6,0.7c0.2,0.2,0.5,0.4,0.7,0.6c-0.3-0.1-0.6-0.2-0.9-0.2l-0.9-0.1v0L446.6,276.5
				z"/>
		</g>
	</g>
</g>
<g>
	<g>
		<line class="st14" x1="474" y1="254.1" x2="423.8" y2="257.6"/>
		<g>
			<path class="st15" d="M473.8,254.1l-0.3,0.5h0l0.8-0.4c0.3-0.1,0.6-0.2,0.9-0.3c-0.3-0.1-0.6-0.1-0.9-0.1l-0.9-0.3h0L473.8,254.1
				z"/>
		</g>
		<g>
			<path class="st15" d="M424,257.5l0.3,0.5h0l-0.9-0.3c-0.3-0.1-0.6-0.1-0.9-0.1c0.3-0.1,0.6-0.2,0.9-0.3l0.8-0.4h0L424,257.5z"/>
		</g>
	</g>
</g>
<g>
	<g>
		<line class="st16" x1="448.9" y1="247.5" x2="422.1" y2="253.1"/>
		<g>
			<path class="st6" d="M448.7,247.6l-0.2,0.6h0l0.8-0.5c0.3-0.1,0.6-0.2,0.8-0.4c-0.3,0-0.6,0-0.9,0l-0.9-0.2h0L448.7,247.6z"/>
		</g>
		<g>
			<path class="st6" d="M422.4,253l0.4,0.5l0,0l-0.9-0.2c-0.3,0-0.6,0-0.9,0c0.3-0.1,0.6-0.2,0.8-0.4l0.8-0.5h0L422.4,253z"/>
		</g>
	</g>
</g>
<g>
	<g>
		<line class="st17" x1="430.8" y1="242.8" x2="419.3" y2="250.2"/>
		<g>
			<path class="st18" d="M430.6,242.9l0,0.6h0l0.5-0.7c0.2-0.2,0.4-0.4,0.6-0.6c-0.3,0.1-0.6,0.2-0.8,0.3l-0.9,0.2v0L430.6,242.9z"
				/>
		</g>
		<g>
			<path class="st18" d="M419.5,250l0.6,0.3v0l-0.9,0.2c-0.3,0.1-0.6,0.2-0.8,0.3c0.2-0.2,0.4-0.4,0.6-0.6l0.5-0.7h0V250L419.5,250z
				"/>
		</g>
	</g>
</g>
<g>
	<line class="st19" x1="402.1" y1="240.8" x2="411.5" y2="250.3"/>
	<g>
		<line class="st14" x1="402.9" y1="241.7" x2="410.7" y2="249.5"/>
		<g>
			<path class="st15" d="M403.1,241.9l0.6-0.1v0l-0.8-0.4c-0.3-0.2-0.5-0.3-0.8-0.5c0.2,0.3,0.3,0.5,0.5,0.8l0.3,0.8h0L403.1,241.9z
				"/>
		</g>
		<g>
			<path class="st15" d="M410.5,249.3l0.2-0.6h0l0.3,0.8c0.2,0.3,0.3,0.5,0.5,0.8c-0.3-0.2-0.5-0.3-0.8-0.5l-0.8-0.4v0L410.5,249.3z
				"/>
		</g>
	</g>
</g>
<g>
	<line class="st19" x1="391.3" y1="248.4" x2="408.2" y2="252.6"/>
	<g>
		<line class="st14" x1="392.4" y1="248.7" x2="407.1" y2="252.3"/>
		<g>
			<path class="st15" d="M392.7,248.7l0.4-0.4l0,0l-0.9,0.1c-0.3,0-0.6,0-0.9,0c0.3,0.1,0.6,0.3,0.8,0.4l0.7,0.5h0L392.7,248.7z"/>
		</g>
		<g>
			<path class="st15" d="M406.8,252.2l-0.2-0.6h0l0.7,0.5c0.3,0.1,0.6,0.3,0.8,0.4c-0.3,0-0.6,0-0.9,0l-0.9,0.1h0L406.8,252.2z"/>
		</g>
	</g>
</g>
<g>
	<g>
		<line class="st14" x1="395.8" y1="280.7" x2="408.6" y2="266.9"/>
		<g>
			<path class="st15" d="M396,280.5l-0.2-0.6h0l-0.3,0.8c-0.2,0.3-0.3,0.5-0.5,0.8c0.2-0.2,0.5-0.3,0.7-0.5l0.8-0.4v0L396,280.5z"/>
		</g>
		<g>
			<path class="st15" d="M408.5,267.1l-0.6-0.1v0l0.8-0.4c0.2-0.2,0.5-0.3,0.7-0.5c-0.2,0.3-0.3,0.5-0.5,0.8l-0.3,0.8h0L408.5,267.1
				z"/>
		</g>
	</g>
</g>
<g>
	<g>
		<line class="st14" x1="435.8" y1="283.4" x2="446.7" y2="282"/>
		<g>
			<path class="st15" d="M436.1,283.4l0.2-0.6h0l-0.8,0.5c-0.3,0.1-0.6,0.2-0.8,0.3c0.3,0,0.6,0.1,0.9,0.1l0.9,0.2h0L436.1,283.4z"
				/>
		</g>
		<g>
			<path class="st15" d="M446.4,282.1l-0.4-0.5l0,0l0.9,0.2c0.3,0,0.6,0.1,0.9,0.1c-0.3,0.1-0.6,0.2-0.8,0.3l-0.8,0.5h0L446.4,282.1
				z"/>
		</g>
	</g>
</g>
<g>
	<g>
		<line class="st14" x1="394.7" y1="202.2" x2="403.9" y2="201.2"/>
		<g>
			<path class="st15" d="M394.9,202.2l0.3-0.6h0l-0.8,0.4c-0.3,0.1-0.6,0.2-0.9,0.3c0.3,0,0.6,0.1,0.9,0.1l0.9,0.2h0L394.9,202.2z"
				/>
		</g>
		<g>
			<path class="st15" d="M403.6,201.3l-0.4-0.5l0,0l0.9,0.2c0.3,0,0.6,0.1,0.9,0.1c-0.3,0.1-0.6,0.2-0.9,0.3l-0.8,0.4h0L403.6,201.3
				z"/>
		</g>
	</g>
</g>
<g>
	<g>
		<line class="st14" x1="387.8" y1="191.3" x2="389.5" y2="177.4"/>
		<g>
			<path class="st15" d="M387.8,191.1l-0.5-0.4l0,0l0.2,0.9c0,0.3,0.1,0.6,0.1,0.9c0.1-0.3,0.2-0.6,0.3-0.8l0.5-0.8v0L387.8,191.1z"
				/>
		</g>
		<g>
			<path class="st15" d="M389.5,177.7l-0.6,0.2v0l0.5-0.8c0.1-0.3,0.2-0.6,0.3-0.8c0,0.3,0.1,0.6,0.1,0.9l0.2,0.9v0L389.5,177.7z"/>
		</g>
	</g>
</g>
<image style="overflow:visible;enable-background:new    ;" width="471" height="512" xlink:href="../../../../gdsc/docs/B6D1B12EB2128F87.jpeg"  transform="matrix(2.024493e-02 1.652194e-04 -1.652194e-04 2.024493e-02 424.6205 154.7869)">
</image>
<g>
	<g>
		<path class="st14" d="M423.2,201.1c3.2,0.8,6.7,1.7,8.9,1.6"/>
		<g>
			<path class="st15" d="M423.4,201.1l0.4-0.4l0,0l-0.9,0.1c-0.3,0-0.6,0-0.9,0c0.3,0.1,0.5,0.3,0.8,0.4l0.7,0.5h0L423.4,201.1z"/>
		</g>
		<g>
			<path class="st15" d="M431.8,202.7l-0.4-0.5l0,0l0.9,0.3c0.3,0,0.6,0.1,0.9,0.1c-0.3,0.1-0.6,0.2-0.9,0.3l-0.8,0.4h0L431.8,202.7
				z"/>
		</g>
	</g>
</g>
<g>
	<g>
		<path class="st14" d="M423.1,203.5c6.1,2,20.2,4.4,27,1.6"/>
		<g>
			<path class="st15" d="M423.4,203.6l0.5-0.4v0l-0.9,0.1c-0.3,0-0.6-0.1-0.9-0.1c0.3,0.2,0.5,0.3,0.8,0.5l0.7,0.6h0L423.4,203.6z"
				/>
		</g>
		<g>
			<path class="st15" d="M449.9,205.3l-0.5-0.3v0l0.9-0.1c0.3-0.1,0.6-0.1,0.9-0.2c-0.2,0.2-0.5,0.4-0.7,0.6l-0.6,0.7h0L449.9,205.3
				z"/>
		</g>
	</g>
</g>
<g>
	<g>
		<line class="st14" x1="445" y1="191" x2="467.9" y2="174.7"/>
		<g>
			<path class="st15" d="M445.3,190.8l-0.1-0.6h0l-0.5,0.8c-0.2,0.2-0.4,0.5-0.6,0.7c0.3-0.1,0.6-0.2,0.8-0.3l0.9-0.2v0L445.3,190.8
				z"/>
		</g>
		<g>
			<path class="st15" d="M467.7,174.8l-0.6-0.2v0l0.9-0.2c0.3-0.1,0.6-0.2,0.8-0.3c-0.2,0.2-0.4,0.5-0.6,0.7l-0.5,0.8h0L467.7,174.8
				z"/>
		</g>
	</g>
</g>
<g>
	<g>
		<line class="st14" x1="463" y1="192.3" x2="471.7" y2="174.4"/>
		<g>
			<path class="st15" d="M463.1,192.1l-0.3-0.5h0l-0.1,0.9c-0.1,0.3-0.1,0.6-0.2,0.9c0.2-0.2,0.4-0.5,0.6-0.7l0.7-0.6v0L463.1,192.1
				z"/>
		</g>
		<g>
			<path class="st15" d="M471.6,174.7l-0.6,0.1v0l0.7-0.6c0.2-0.2,0.4-0.5,0.6-0.7c-0.1,0.3-0.1,0.6-0.2,0.9l-0.1,0.9h0L471.6,174.7
				z"/>
		</g>
	</g>
</g>
<g>
	<g>
		<line class="st14" x1="476.3" y1="196" x2="475.3" y2="173.2"/>
		<g>
			<path class="st15" d="M476.2,195.8l-0.5-0.3v0l0.4,0.8c0.1,0.3,0.2,0.6,0.2,0.9c0.1-0.3,0.1-0.6,0.2-0.9l0.3-0.9v0L476.2,195.8z"
				/>
		</g>
		<g>
			<path class="st15" d="M475.3,173.4l-0.5,0.3v0l0.3-0.9c0.1-0.3,0.1-0.6,0.2-0.9c0.1,0.3,0.2,0.6,0.2,0.9l0.4,0.8v0L475.3,173.4z"
				/>
		</g>
	</g>
</g>
<g>
	<g>
		<line class="st14" x1="483.5" y1="180.5" x2="478.3" y2="170.7"/>
		<g>
			<path class="st15" d="M483.4,180.3l-0.6,0v0l0.7,0.6c0.2,0.2,0.4,0.5,0.6,0.7c-0.1-0.3-0.2-0.6-0.2-0.9l-0.1-0.9h0L483.4,180.3z"
				/>
		</g>
		<g>
			<path class="st15" d="M478.4,171l-0.3,0.5h0l-0.1-0.9c-0.1-0.3-0.2-0.6-0.2-0.9c0.2,0.2,0.4,0.5,0.6,0.7l0.7,0.6v0L478.4,171z"/>
		</g>
	</g>
</g>
<g>
	<g>
		<path class="st14" d="M484.3,198c0.6,5.3,2.8,10.1,8.5,13.2"/>
		<g>
			<path class="st15" d="M484.3,198.3l0.6,0.3v0l-0.4-0.8c-0.1-0.3-0.2-0.6-0.3-0.9c0,0.3-0.1,0.6-0.1,0.9l-0.3,0.9v0L484.3,198.3z"
				/>
		</g>
		<g>
			<path class="st15" d="M492.5,211.1l-0.1-0.6h0l0.6,0.7c0.2,0.2,0.5,0.4,0.7,0.6c-0.3-0.1-0.6-0.2-0.9-0.2l-0.9-0.1v0L492.5,211.1
				z"/>
		</g>
	</g>
</g>
<g>
	<g>
		<line class="st16" x1="491.1" y1="166.9" x2="478.9" y2="164.5"/>
		<g>
			<path class="st6" d="M490.8,166.8l-0.4,0.5l0,0l0.9-0.2c0.3,0,0.6,0,0.9,0c-0.3-0.1-0.6-0.2-0.8-0.4l-0.8-0.5h0L490.8,166.8z"/>
		</g>
		<g>
			<path class="st6" d="M479.1,164.5l0.2,0.6h0l-0.8-0.5c-0.3-0.1-0.6-0.2-0.8-0.4c0.3,0,0.6,0,0.9,0l0.9-0.2h0L479.1,164.5z"/>
		</g>
	</g>
</g>
<g>
	<g>
		<line class="st14" x1="458.9" y1="152.8" x2="457.6" y2="142.3"/>
		<g>
			<path class="st15" d="M458.9,152.5l-0.6-0.2v0l0.5,0.8c0.1,0.3,0.2,0.6,0.3,0.8c0-0.3,0.1-0.6,0.1-0.9l0.2-0.9v0L458.9,152.5z"/>
		</g>
		<g>
			<path class="st15" d="M457.6,142.6l-0.5,0.4l0,0l0.2-0.9c0-0.3,0.1-0.6,0.1-0.9c0.1,0.3,0.2,0.6,0.3,0.8l0.5,0.8v0L457.6,142.6z"
				/>
		</g>
	</g>
</g>
<g>
	<g>
		<line class="st14" x1="409" y1="157.6" x2="445" y2="139.6"/>
		<g>
			<path class="st15" d="M409.3,157.5l0.1-0.6h0l-0.6,0.7c-0.2,0.2-0.5,0.4-0.7,0.6c0.3-0.1,0.6-0.2,0.9-0.2l0.9-0.1v0L409.3,157.5z
				"/>
		</g>
		<g>
			<path class="st15" d="M444.8,139.7l-0.5-0.3v0l0.9-0.1c0.3-0.1,0.6-0.2,0.9-0.2c-0.2,0.2-0.5,0.4-0.7,0.6l-0.6,0.7h0L444.8,139.7
				z"/>
		</g>
	</g>
</g>
<g>
	<g>
		<line class="st16" x1="487.3" y1="155.7" x2="468.2" y2="139.6"/>
		<g>
			<path class="st6" d="M487.1,155.5l-0.6,0.2v0l0.9,0.3c0.3,0.1,0.5,0.3,0.8,0.4c-0.2-0.2-0.4-0.5-0.6-0.7l-0.4-0.8h0L487.1,155.5z
				"/>
		</g>
		<g>
			<path class="st6" d="M468.4,139.7l-0.1,0.6h0l-0.4-0.8c-0.2-0.2-0.4-0.5-0.6-0.7c0.3,0.1,0.5,0.3,0.8,0.4l0.9,0.3v0L468.4,139.7z
				"/>
		</g>
	</g>
</g>
<g>
	<g>
		<line class="st14" x1="413.7" y1="190.8" x2="412.6" y2="181.4"/>
		<g>
			<path class="st15" d="M413.6,190.5l-0.6-0.3v0l0.4,0.8c0.1,0.3,0.2,0.6,0.3,0.8c0-0.3,0.1-0.6,0.1-0.9l0.2-0.9v0L413.6,190.5z"/>
		</g>
		<g>
			<path class="st15" d="M412.6,181.7l-0.5,0.4l0,0l0.2-0.9c0-0.3,0.1-0.6,0.1-0.9c0.1,0.3,0.2,0.6,0.3,0.8l0.4,0.8v0L412.6,181.7z"
				/>
		</g>
	</g>
</g>
<g>
	<g>
		<line class="st14" x1="421.8" y1="161.7" x2="418.3" y2="164.8"/>
		<g>
			<path class="st15" d="M421.6,161.9l0.1,0.6h0l0.4-0.8c0.2-0.2,0.4-0.5,0.5-0.7c-0.3,0.1-0.5,0.3-0.8,0.4l-0.9,0.3v0L421.6,161.9z
				"/>
		</g>
		<g>
			<path class="st15" d="M418.4,164.6l0.6,0.2v0l-0.9,0.3c-0.3,0.1-0.5,0.3-0.8,0.4c0.2-0.2,0.4-0.5,0.5-0.7l0.4-0.8h0L418.4,164.6z
				"/>
		</g>
	</g>
</g>
<g>
	<g>
		<line class="st14" x1="435.2" y1="152.9" x2="448.4" y2="141"/>
		<g>
			<path class="st15" d="M435.4,152.7l-0.1-0.6h0l-0.4,0.8c-0.2,0.2-0.3,0.5-0.5,0.7c0.3-0.2,0.5-0.3,0.8-0.5l0.8-0.3v0L435.4,152.7
				z"/>
		</g>
		<g>
			<path class="st15" d="M448.2,141.2l-0.6-0.2v0l0.8-0.3c0.3-0.2,0.5-0.3,0.8-0.5c-0.2,0.2-0.3,0.5-0.5,0.7l-0.4,0.8h0L448.2,141.2
				z"/>
		</g>
	</g>
</g>
<g>
	<g>
		<path class="st14" d="M423.4,168.1c-3.1,9.9,3.1,21.1,8.7,26"/>
		<g>
			<path class="st15" d="M423.3,168.3l0.4,0.5h0l-0.1-0.9c0-0.3,0.1-0.6,0.1-0.9c-0.2,0.3-0.3,0.5-0.5,0.8l-0.6,0.7v0L423.3,168.3z"
				/>
		</g>
		<g>
			<path class="st15" d="M431.9,193.9l0.1-0.6h0l0.4,0.8c0.2,0.2,0.4,0.5,0.6,0.7c-0.3-0.1-0.5-0.3-0.8-0.4l-0.9-0.3v0L431.9,193.9z
				"/>
		</g>
	</g>
</g>
<g>
	<g>
		<path class="st16" d="M425.2,171.8c-0.2,10.4,17.3,20.4,24.7,24.1"/>
		<g>
			<path class="st6" d="M425.2,172l0.5,0.3v0l-0.3-0.9c-0.1-0.3-0.1-0.6-0.1-0.9c-0.1,0.3-0.2,0.6-0.3,0.9l-0.4,0.8v0L425.2,172z"/>
		</g>
		<g>
			<path class="st6" d="M449.8,195.7l-0.1-0.6h0l0.6,0.7c0.2,0.2,0.5,0.4,0.7,0.6c-0.3-0.1-0.6-0.2-0.9-0.2l-0.9-0.1v0L449.8,195.7z
				"/>
		</g>
	</g>
</g>
<g>
	<g>
		<path class="st14" d="M429.3,175.6c5,8.6,34,19.8,42,23.7"/>
		<g>
			<path class="st15" d="M429.5,175.8l0.6,0.1v0l-0.7-0.6c-0.2-0.2-0.4-0.5-0.6-0.7c0.1,0.3,0.2,0.6,0.2,0.9l0.1,0.9h0L429.5,175.8z
				"/>
		</g>
		<g>
			<path class="st15" d="M471.1,199.2l-0.1-0.6h0l0.6,0.7c0.2,0.2,0.5,0.4,0.7,0.6c-0.3-0.1-0.6-0.1-0.9-0.2l-0.9-0.1v0L471.1,199.2
				z"/>
		</g>
	</g>
</g>
<g>
	<g>
		<line class="st16" x1="490.9" y1="142.1" x2="490.4" y2="154.7"/>
		<g>
			<path class="st6" d="M490.9,142.3l0.5,0.3v0l-0.3-0.9c-0.1-0.3-0.1-0.6-0.2-0.9c-0.1,0.3-0.2,0.6-0.2,0.9l-0.4,0.8v0L490.9,142.3
				z"/>
		</g>
		<g>
			<path class="st6" d="M490.4,154.4l0.5-0.3v0l-0.4,0.8c-0.1,0.3-0.2,0.6-0.2,0.9c-0.1-0.3-0.1-0.6-0.2-0.9l-0.3-0.9v0L490.4,154.4
				z"/>
		</g>
	</g>
</g>
<g>
	<g>
		<line class="st16" x1="487.1" y1="142" x2="472.7" y2="153.5"/>
		<g>
			<path class="st6" d="M486.9,142.2l0.1,0.6h0l0.5-0.8c0.2-0.2,0.4-0.5,0.6-0.7c-0.3,0.1-0.6,0.3-0.8,0.4l-0.9,0.3v0L486.9,142.2z"
				/>
		</g>
		<g>
			<path class="st6" d="M472.9,153.4l0.6,0.2v0l-0.9,0.3c-0.3,0.1-0.6,0.3-0.8,0.4c0.2-0.2,0.4-0.5,0.6-0.7l0.5-0.8h0L472.9,153.4z"
				/>
		</g>
	</g>
</g>
<image style="overflow:visible;enable-background:new    ;" width="461" height="508" xlink:href="../../../../gdsc/docs/B6D1B12EB2128F85.jpeg"  transform="matrix(2.050762e-02 0 0 2.050762e-02 494.4153 162.5268)">
</image>
<path class="st22" d="M496.5,126.6c0,0-1.5-1.5-3-0.1c-1.2,1.2-0.2,3.2,2,3.1c6.1-0.2,7.8,0,5.9,0c1.7,0,3.4-0.7,3.4-2.9
	c0.1-2.7-2.4-3.8-3.9-2.4c-1.5-1.6-4.4-1.6-5.5,1.7"/>
<g>
	<g>
		<line class="st14" x1="465" y1="282.1" x2="484.9" y2="284.4"/>
		<g>
			<path class="st15" d="M465.3,282.1l0.4-0.5l0,0l-0.9,0.2c-0.3,0-0.6,0.1-0.9,0.1c0.3,0.1,0.6,0.2,0.8,0.3l0.8,0.4h0L465.3,282.1z
				"/>
		</g>
		<g>
			<path class="st15" d="M484.6,284.3l-0.3-0.6h0l0.8,0.4c0.3,0.1,0.6,0.2,0.8,0.3c-0.3,0-0.6,0.1-0.9,0.1l-0.9,0.2h0L484.6,284.3z"
				/>
		</g>
	</g>
</g>
<g>
	<g>
		<line class="st14" x1="416" y1="240.2" x2="414.7" y2="248.7"/>
		<g>
			<path class="st15" d="M415.9,240.5l0.5,0.4l0,0l-0.2-0.9c0-0.3,0-0.6-0.1-0.9c-0.1,0.3-0.2,0.6-0.3,0.8l-0.5,0.8v0L415.9,240.5z"
				/>
		</g>
		<g>
			<path class="st15" d="M414.7,248.5l0.6-0.2v0l-0.5,0.8c-0.1,0.3-0.2,0.6-0.3,0.8c0-0.3,0-0.6-0.1-0.9l-0.2-0.9v0L414.7,248.5z"/>
		</g>
	</g>
</g>
<g>
	<g>
		<line class="st14" x1="487" y1="243.8" x2="495" y2="225.8"/>
		<g>
			<path class="st15" d="M487.1,243.6l-0.3-0.5h0l0,0.9c-0.1,0.3-0.1,0.6-0.2,0.9c0.2-0.2,0.4-0.5,0.5-0.7l0.7-0.6v0L487.1,243.6z"
				/>
		</g>
		<g>
			<path class="st15" d="M495,226l-0.6,0.1v0l0.7-0.6c0.2-0.2,0.4-0.5,0.5-0.7c-0.1,0.3-0.1,0.6-0.2,0.9l0,0.9h0L495,226z"/>
		</g>
	</g>
</g>
<g>
	<g>
		<line class="st14" x1="484.6" y1="241.8" x2="480.2" y2="213.9"/>
		<g>
			<path class="st15" d="M484.6,241.5l-0.6-0.2v0l0.5,0.8c0.1,0.3,0.2,0.6,0.3,0.8c0-0.3,0-0.6,0.1-0.9l0.2-0.9v0L484.6,241.5z"/>
		</g>
		<g>
			<path class="st15" d="M480.2,214.1l-0.5,0.4l0,0l0.2-0.9c0-0.3,0-0.6,0.1-0.9c0.1,0.3,0.2,0.6,0.3,0.8l0.5,0.8v0L480.2,214.1z"/>
		</g>
	</g>
</g>
<g>
	<g>
		<path class="st14" d="M398.5,223.3c0.8-6.1-0.1-11.4,6.5-17.4"/>
		<g>
			<path class="st15" d="M398.6,223.1l-0.5-0.4l0,0l0.2,0.9c0,0.3,0.1,0.6,0.1,0.9c0.1-0.3,0.2-0.6,0.3-0.8l0.5-0.8v0L398.6,223.1z"
				/>
		</g>
		<g>
			<path class="st15" d="M404.9,206.1l-0.6-0.2v0l0.8-0.3c0.3-0.2,0.5-0.3,0.8-0.5c-0.2,0.2-0.3,0.5-0.5,0.7l-0.4,0.8h0L404.9,206.1
				z"/>
		</g>
	</g>
</g>
<g>
	<g>
		<path class="st14" d="M411.1,226.3c-8.2-6.8-12.5-14.1-6-20.4"/>
		<g>
			<path class="st15" d="M410.9,226.2l-0.6,0.2v0l0.9,0.3c0.3,0.1,0.5,0.3,0.8,0.4c-0.2-0.2-0.4-0.5-0.6-0.7l-0.5-0.8h0L410.9,226.2
				z"/>
		</g>
		<g>
			<path class="st15" d="M404.9,206.1l-0.6-0.2v0l0.8-0.3c0.3-0.2,0.5-0.3,0.8-0.5c-0.2,0.2-0.3,0.5-0.5,0.7l-0.4,0.8h0L404.9,206.1
				z"/>
		</g>
	</g>
</g>
<g>
	<g>
		<path class="st17" d="M430.2,228.4c-24.3-9.8-31.5-16.2-25.1-22.5"/>
		<g>
			<path class="st18" d="M430,228.3l-0.5,0.3v0l0.9,0c0.3,0.1,0.6,0.1,0.9,0.2c-0.2-0.2-0.5-0.3-0.7-0.5l-0.7-0.6h0L430,228.3z"/>
		</g>
		<g>
			<path class="st18" d="M404.9,206.1l-0.6-0.2v0l0.8-0.3c0.3-0.2,0.5-0.3,0.8-0.5c-0.2,0.2-0.3,0.5-0.5,0.7l-0.4,0.8h0L404.9,206.1
				z"/>
		</g>
	</g>
</g>
<g>
	<g>
		<path class="st16" d="M454.5,231.9c-38.5-12.4-55.2-19.5-49.4-26"/>
		<g>
			<path class="st6" d="M454.3,231.8l-0.5,0.4v0l0.9-0.1c0.3,0,0.6,0.1,0.9,0.1c-0.3-0.2-0.5-0.3-0.8-0.5l-0.7-0.6h0L454.3,231.8z"
				/>
		</g>
		<g>
			<path class="st6" d="M405,206.1l-0.6-0.1v0l0.8-0.4c0.3-0.2,0.5-0.3,0.8-0.5c-0.2,0.3-0.3,0.5-0.5,0.8l-0.3,0.8h0L405,206.1z"/>
		</g>
	</g>
</g>
<g>
	<g>
		<path class="st14" d="M385.3,236.1c3.8-11.1,10.2-22.4,19.8-30.3"/>
		<g>
			<path class="st15" d="M385.4,235.9l-0.4-0.5h0l0,0.9c0,0.3-0.1,0.6-0.1,0.9c0.2-0.3,0.3-0.5,0.5-0.8l0.6-0.7v0L385.4,235.9z"/>
		</g>
		<g>
			<path class="st15" d="M404.9,206l-0.6-0.2v0l0.9-0.3c0.3-0.1,0.5-0.3,0.8-0.4c-0.2,0.2-0.4,0.5-0.6,0.7l-0.5,0.8h0L404.9,206z"/>
		</g>
	</g>
</g>
<g>
	<path class="st0" d="M692.4,420.1c-51.7,0-43-1.3-62.5-1.3c-22.2,0-20.7,1.1-20.7-15.2c0-13-1.3-11.6,31.9-11.6
		c21.8,0,34.9-0.1,54.6-0.1c24.7,0,24-1.5,24,11.2C719.8,421,721.7,420.1,692.4,420.1z"/>
	<path class="st1" d="M588.9,341.4c13,0,43.9-1.3,69.9,7.9c24.4,8.6,27.2,10.8,42.1,10.8c20.1,0,18.8-1.5,18.8,15.6
		c0,17.3,1.6,14.8-45.6,14.8c-42.8,0-50.5,0-80.7,0c-21.9,0-19.6,2-19.6-27.1C573.7,340.8,572.6,341.4,588.9,341.4z"/>
	<path class="st2" d="M598.3,340.1c23.3,0,36.1,0.8,52.1,5.1c27.2,7.2,30.3,13.4,53.4,13.4c18.6,0,15.9,3.3,15.9-32.9
		c0-30.9,1.6-27.4-28-27.4c-21.8,0-35.7,10.7-66.6,10.7c-53.7,0-51.4-4.1-51.4,13.2C573.7,339.7,571.4,340.1,598.3,340.1z"/>
	<path class="st3" d="M606.9,307.4c26,0,30.4,1.3,45.1-2.7c34.8-9.5,32.2-7.2,32.2-20.8c0-13.6-2.9-12.9-32.1-12.9
		c-26.5,0-29.9-3.7-52.6-3.7c-26.6,0-25.9-0.8-25.9,25.5C573.7,307.8,572.8,307.4,606.9,307.4z"/>
	<path class="st4" d="M669.9,298.3c2.2-0.8,7.9-2.3,27.9-2.3c21.3,0,21.7,1.1,21.7-14.1c0-16.2,0.2-15.3-20-15.3
		c-18.2,0-11.9,2.7-34,2.7c-19.8,0-18.1-1.4-18.1,18.8c0,17.6-0.7,16.4,8.6,14.1C668.3,299.2,666.5,299.6,669.9,298.3z"/>
	<path class="st5" d="M642.1,406.4c0,15.1,1.8,13.6-22.3,13.6c-21.7,0-18.3,0.1-31.7,0.1c-16.5,0-14.2,2.1-14.2-16.3
		c0-12.9-1.2-11.5,19-11.5c10.8,0,19.5,1.5,35.1,1.5C643.5,393.7,642.1,392.8,642.1,406.4z"/>
	
		<image style="overflow:visible;enable-background:new    ;" width="512" height="512" xlink:href="../../../../gdsc/docs/B1E9FDDEAADDE838.png"  transform="matrix(-2.545822e-02 0 0 2.545822e-02 592.78 360.3676)">
	</image>
	
		<image style="overflow:visible;enable-background:new    ;" width="510" height="512" xlink:href="../../../../gdsc/docs/B1E9FDDEAADDE823.png"  transform="matrix(2.550799e-02 0 0 2.550799e-02 672.7177 319.7393)">
	</image>
	
		<image style="overflow:visible;enable-background:new    ;" width="501" height="508" xlink:href="../../../../gdsc/docs/B1E9FDDEAADDE824.png"  transform="matrix(2.581030e-02 0 0 2.581030e-02 696.0093 331.0869)">
	</image>
	
		<image style="overflow:visible;enable-background:new    ;" width="513" height="497" xlink:href="../../../../gdsc/docs/B1E9FDDEAADDE825.png"  transform="matrix(2.568243e-02 0 0 2.568243e-02 682.7797 302.9955)">
	</image>
	
		<image style="overflow:visible;enable-background:new    ;" width="505" height="496" xlink:href="../../../../gdsc/docs/B1E9FDDEAADDE826.png"  transform="matrix(2.596459e-02 0 0 2.596459e-02 636.8579 312.7687)">
	</image>
	
		<image style="overflow:visible;enable-background:new    ;" width="512" height="512" xlink:href="../../../../gdsc/docs/B1E9FDDEAADDE827.png"  transform="matrix(-2.545822e-02 0 0 2.545822e-02 607.6474 347.9133)">
	</image>
	
		<image style="overflow:visible;enable-background:new    ;" width="512" height="512" xlink:href="../../../../gdsc/docs/B1E9FDDEAADDE82B.png"  transform="matrix(-2.545822e-02 0 0 2.545822e-02 623.9107 372.8776)">
	</image>
	
		<image style="overflow:visible;enable-background:new    ;" width="497" height="510" xlink:href="../../../../gdsc/docs/B1E9FDDEAADDE82D.png"  transform="matrix(2.578455e-02 0 0 2.578455e-02 610.3641 313.6089)">
	</image>
	
		<image style="overflow:visible;enable-background:new    ;" width="501" height="499" xlink:href="../../../../gdsc/docs/B1E9FDDEAADDE82E.png"  transform="matrix(2.606896e-02 0 0 2.606896e-02 608.7404 285.9676)">
	</image>
	
		<image style="overflow:visible;opacity:0.42;enable-background:new    ;" width="512" height="512" xlink:href="../../../../gdsc/docs/B6D1B12EB2128F78.png"  transform="matrix(-2.545822e-02 0 0 2.545822e-02 646.5406 348.3551)">
	</image>
	
		<image style="overflow:visible;opacity:0.42;enable-background:new    ;" width="495" height="510" xlink:href="../../../../gdsc/docs/B6D1B12EB2128F79.png"  transform="matrix(2.583509e-02 0 0 2.583509e-02 655.4277 314.6569)">
	</image>
	
		<image style="overflow:visible;opacity:0.23;enable-background:new    ;" width="512" height="512" xlink:href="../../../../gdsc/docs/B6D1B12EB2128F74.png"  transform="matrix(-2.545822e-02 0 0 2.545822e-02 668.1586 352.8744)">
	</image>
	
		<image style="overflow:visible;enable-background:new    ;" width="131" height="131" xlink:href="../../../../gdsc/docs/B6D1B12EB2128F75.png"  transform="matrix(8.925988e-02 0 0 8.925988e-02 680.2509 365.4237)">
	</image>
	
		<image style="overflow:visible;enable-background:new    ;" width="880" height="515" xlink:href="../../../../gdsc/docs/B6D1B12EB2128F76.png"  transform="matrix(2.182814e-02 0 0 2.182814e-02 687.4426 399.2382)">
	</image>
	<text transform="matrix(1 8.158614e-03 -8.158614e-03 1 669.2196 335.3731)" class="st6 st7 st8">.</text>
	
		<image style="overflow:visible;enable-background:new    ;" width="506" height="506" xlink:href="../../../../gdsc/docs/B6D1B12EB2128F77.png"  transform="matrix(2.617039e-02 0 0 2.617039e-02 652.0222 396.0652)">
	</image>
	
		<image style="overflow:visible;enable-background:new    ;" width="512" height="512" xlink:href="../../../../gdsc/docs/B6D1B12EB2128F68.png"  transform="matrix(-2.545822e-02 0 0 2.545822e-02 626.9048 345.8022)">
	</image>
	
		<image style="overflow:visible;enable-background:new    ;" width="462" height="478" xlink:href="../../../../gdsc/docs/B6D1B12EB2128F60.jpeg"  transform="matrix(2.117157e-02 0 0 2.117157e-02 669.3544 280.2611)">
	</image>
	
		<image style="overflow:visible;enable-background:new    ;" width="462" height="478" xlink:href="../../../../gdsc/docs/B6D1B12EB2128F60.jpeg"  transform="matrix(2.114874e-02 0 0 2.114874e-02 585.5518 318.4451)">
	</image>
	
		<image style="overflow:visible;enable-background:new    ;" width="471" height="512" xlink:href="../../../../gdsc/docs/B6D1B12EB2128F9B.jpeg"  transform="matrix(2.024493e-02 1.652194e-04 -1.652194e-04 2.024493e-02 588.5261 284.4391)">
	</image>
	
		<image style="overflow:visible;enable-background:new    ;" width="891" height="507" xlink:href="../../../../gdsc/docs/B6D1B12EB2128F87.png"  transform="matrix(2.834783e-02 0 0 2.834783e-02 646.0886 243.2678)">
	</image>
	<path class="st9" d="M588.9,341.4c13,0,43.9-1.3,69.9,7.9c24.4,8.6,27.2,10.8,42.1,10.8c20.1,0,18.8-1.5,18.8,15.6
		c0,17.3,1.6,14.8-45.6,14.8c-42.8,0-50.5,0-80.7,0c-21.9,0-19.6,2-19.6-27.1C573.7,340.8,572.6,341.4,588.9,341.4z"/>
	<path class="st10" d="M692.4,420.1c-51.7,0-43-1.3-62.5-1.3c-22.2,0-20.7,1.1-20.7-15.2c0-13-1.3-11.6,31.9-11.6
		c21.8,0,34.9-0.1,54.6-0.1c24.7,0,24-1.5,24,11.2C719.8,421,721.7,420.1,692.4,420.1z"/>
	<path class="st11" d="M598.3,340.1c23.3,0,36.1,0.8,52.1,5.1c27.2,7.2,30.3,13.4,53.4,13.4c18.6,0,15.9,3.3,15.9-32.9
		c0-30.9,1.6-27.4-28-27.4c-21.8,0-35.7,10.7-66.6,10.7c-53.7,0-51.4-4.1-51.4,13.2C573.7,339.7,571.4,340.1,598.3,340.1z"/>
	<path class="st12" d="M606.9,307.4c26,0,30.4,1.3,45.1-2.7c34.8-9.5,32.2-7.2,32.2-20.8c0-13.6-2.9-12.9-32.1-12.9
		c-26.5,0-29.9-3.7-52.6-3.7c-26.6,0-25.9-0.8-25.9,25.5C573.7,307.8,572.8,307.4,606.9,307.4z"/>
	<path class="st13" d="M669.9,298.3c2.2-0.8,7.9-2.3,27.9-2.3c21.3,0,21.7,1.1,21.7-14.1c0-16.2,0.2-15.3-20-15.3
		c-18.2,0-11.9,2.7-34,2.7c-19.8,0-18.1-1.4-18.1,18.8c0,17.6-0.7,16.4,8.6,14.1C668.3,299.2,666.5,299.6,669.9,298.3z"/>
	<g>
		<g>
			<line class="st14" x1="626.1" y1="385" x2="649.8" y2="396.9"/>
			<g>
				<path class="st15" d="M626.3,385.1l0.5-0.3v0l-0.9-0.1c-0.3-0.1-0.6-0.2-0.9-0.2c0.2,0.2,0.5,0.4,0.7,0.6l0.6,0.7h0L626.3,385.1
					z"/>
			</g>
			<g>
				<path class="st15" d="M649.5,396.8l-0.1-0.6h0l0.6,0.7c0.2,0.2,0.5,0.4,0.7,0.6c-0.3-0.1-0.6-0.2-0.9-0.2l-0.9-0.1v0
					L649.5,396.8z"/>
			</g>
		</g>
	</g>
	<g>
		<g>
			<line class="st14" x1="677" y1="374.4" x2="626.7" y2="377.9"/>
			<g>
				<path class="st15" d="M676.7,374.4l-0.3,0.5h0l0.8-0.4c0.3-0.1,0.6-0.2,0.9-0.3c-0.3-0.1-0.6-0.1-0.9-0.1l-0.9-0.3h0
					L676.7,374.4z"/>
			</g>
			<g>
				<path class="st15" d="M627,377.8l0.3,0.5h0l-0.9-0.3c-0.3-0.1-0.6-0.1-0.9-0.1c0.3-0.1,0.6-0.2,0.9-0.3l0.8-0.4h0L627,377.8z"/>
			</g>
		</g>
	</g>
	<g>
		<g>
			<line class="st16" x1="651.9" y1="367.8" x2="625.1" y2="373.4"/>
			<g>
				<path class="st6" d="M651.6,367.9l-0.2,0.6h0l0.8-0.5c0.3-0.1,0.6-0.2,0.8-0.4c-0.3,0-0.6,0-0.9,0l-0.9-0.2h0L651.6,367.9z"/>
			</g>
			<g>
				<path class="st6" d="M625.4,373.4l0.4,0.5l0,0l-0.9-0.2c-0.3,0-0.6,0-0.9,0c0.3-0.1,0.6-0.2,0.8-0.4l0.8-0.5h0L625.4,373.4z"/>
			</g>
		</g>
	</g>
	<g>
		<g>
			<line class="st17" x1="633.8" y1="363.1" x2="622.3" y2="370.5"/>
			<g>
				<path class="st18" d="M633.6,363.2l0,0.6h0l0.5-0.7c0.2-0.2,0.4-0.4,0.6-0.6c-0.3,0.1-0.6,0.2-0.8,0.3L633,363v0L633.6,363.2z"
					/>
			</g>
			<g>
				<path class="st18" d="M622.5,370.4l0.6,0.3v0l-0.9,0.2c-0.3,0.1-0.6,0.2-0.8,0.3c0.2-0.2,0.4-0.4,0.6-0.6l0.5-0.7h0V370.4
					L622.5,370.4z"/>
			</g>
		</g>
	</g>
	<g>
		<line class="st19" x1="605.1" y1="361.1" x2="614.4" y2="370.7"/>
		<g>
			<line class="st14" x1="605.9" y1="362" x2="613.6" y2="369.8"/>
			<g>
				<path class="st15" d="M606.1,362.2l0.6-0.1v0l-0.8-0.4c-0.3-0.2-0.5-0.3-0.8-0.5c0.2,0.3,0.3,0.5,0.5,0.8l0.3,0.8h0L606.1,362.2
					z"/>
			</g>
			<g>
				<path class="st15" d="M613.4,369.7l0.2-0.6h0l0.3,0.8c0.2,0.3,0.3,0.5,0.5,0.8c-0.3-0.2-0.5-0.3-0.8-0.5l-0.8-0.4v0L613.4,369.7
					z"/>
			</g>
		</g>
	</g>
	<g>
		<line class="st19" x1="594.2" y1="368.7" x2="611.2" y2="372.9"/>
		<g>
			<line class="st14" x1="595.4" y1="369" x2="610" y2="372.6"/>
			<g>
				<path class="st15" d="M595.6,369l0.4-0.4l0,0l-0.9,0.1c-0.3,0-0.6,0-0.9,0c0.3,0.1,0.6,0.3,0.8,0.4l0.7,0.5h0L595.6,369z"/>
			</g>
			<g>
				<path class="st15" d="M609.8,372.6l-0.2-0.6h0l0.7,0.5c0.3,0.1,0.6,0.3,0.8,0.4c-0.3,0-0.6,0-0.9,0l-0.9,0.1h0L609.8,372.6z"/>
			</g>
		</g>
	</g>
	<g>
		<g>
			<line class="st14" x1="598.7" y1="401" x2="611.6" y2="387.2"/>
			<g>
				<path class="st15" d="M598.9,400.8l-0.2-0.6h0l-0.3,0.8c-0.2,0.3-0.3,0.5-0.5,0.8c0.2-0.2,0.5-0.3,0.7-0.5l0.8-0.4v0
					L598.9,400.8z"/>
			</g>
			<g>
				<path class="st15" d="M611.4,387.4l-0.6-0.1v0l0.8-0.4c0.2-0.2,0.5-0.3,0.7-0.5c-0.2,0.3-0.3,0.5-0.5,0.8l-0.3,0.8h0
					L611.4,387.4z"/>
			</g>
		</g>
	</g>
	<g>
		<g>
			<line class="st14" x1="638.8" y1="403.8" x2="649.6" y2="402.3"/>
			<g>
				<path class="st15" d="M639.1,403.7l0.2-0.6h0l-0.8,0.5c-0.3,0.1-0.6,0.2-0.8,0.3c0.3,0,0.6,0.1,0.9,0.1l0.9,0.2h0L639.1,403.7z"
					/>
			</g>
			<g>
				<path class="st15" d="M649.4,402.4l-0.4-0.5l0,0l0.9,0.2c0.3,0,0.6,0.1,0.9,0.1c-0.3,0.1-0.6,0.2-0.8,0.3l-0.8,0.5h0
					L649.4,402.4z"/>
			</g>
		</g>
	</g>
	<g>
		<g>
			<line class="st14" x1="597.6" y1="322.6" x2="606.8" y2="321.5"/>
			<g>
				<path class="st15" d="M597.9,322.5l0.3-0.6h0l-0.8,0.4c-0.3,0.1-0.6,0.2-0.9,0.3c0.3,0,0.6,0.1,0.9,0.1l0.9,0.2h0L597.9,322.5z"
					/>
			</g>
			<g>
				<path class="st15" d="M606.6,321.6l-0.4-0.5l0,0l0.9,0.2c0.3,0,0.6,0.1,0.9,0.1c-0.3,0.1-0.6,0.2-0.9,0.3l-0.8,0.4h0
					L606.6,321.6z"/>
			</g>
		</g>
	</g>
	<g>
		<g>
			<line class="st14" x1="590.7" y1="311.7" x2="592.4" y2="297.8"/>
			<g>
				<path class="st15" d="M590.7,311.4l-0.5-0.4l0,0l0.2,0.9c0,0.3,0.1,0.6,0.1,0.9c0.1-0.3,0.2-0.6,0.3-0.8l0.5-0.8v0L590.7,311.4z
					"/>
			</g>
			<g>
				<path class="st15" d="M592.4,298l-0.6,0.2v0l0.5-0.8c0.1-0.3,0.2-0.6,0.3-0.8c0,0.3,0.1,0.6,0.1,0.9l0.2,0.9v0L592.4,298z"/>
			</g>
		</g>
	</g>
	<path class="st20" d="M642.1,406.4c0,15.1,1.8,13.6-22.3,13.6c-21.7,0-18.3,0.1-31.7,0.1c-16.5,0-14.2,2.1-14.2-16.3
		c0-12.9-1.2-11.5,19-11.5c10.8,0,19.5,1.5,35.1,1.5C643.5,393.7,642.1,392.8,642.1,406.4z"/>
	
		<image style="overflow:visible;enable-background:new    ;" width="471" height="512" xlink:href="../../../../gdsc/docs/B6D1B12EB2128F87.jpeg"  transform="matrix(2.024493e-02 1.652194e-04 -1.652194e-04 2.024493e-02 627.5731 275.1088)">
	</image>
	<g>
		<g>
			<path class="st14" d="M626.1,321.4c3.2,0.8,6.7,1.7,8.9,1.6"/>
			<g>
				<path class="st15" d="M626.4,321.5l0.4-0.4l0,0l-0.9,0.1c-0.3,0-0.6,0-0.9,0c0.3,0.1,0.5,0.3,0.8,0.4l0.7,0.5h0L626.4,321.5z"/>
			</g>
			<g>
				<path class="st15" d="M634.7,323l-0.4-0.5l0,0l0.9,0.3c0.3,0,0.6,0.1,0.9,0.1c-0.3,0.1-0.6,0.2-0.9,0.3l-0.8,0.4h0L634.7,323z"
					/>
			</g>
		</g>
	</g>
	<g>
		<g>
			<path class="st14" d="M626.1,323.9c6.1,2,20.2,4.4,27,1.6"/>
			<g>
				<path class="st15" d="M626.3,323.9l0.5-0.4v0l-0.9,0.1c-0.3,0-0.6-0.1-0.9-0.1c0.3,0.2,0.5,0.3,0.8,0.5l0.7,0.6h0L626.3,323.9z"
					/>
			</g>
			<g>
				<path class="st15" d="M652.8,325.6l-0.5-0.3v0l0.9-0.1c0.3-0.1,0.6-0.1,0.9-0.2c-0.2,0.2-0.5,0.4-0.7,0.6l-0.6,0.7h0
					L652.8,325.6z"/>
			</g>
		</g>
	</g>
	<g>
		<g>
			<line class="st14" x1="648" y1="311.3" x2="670.9" y2="295"/>
			<g>
				<path class="st15" d="M648.2,311.2l-0.1-0.6h0l-0.5,0.8c-0.2,0.2-0.4,0.5-0.6,0.7c0.3-0.1,0.6-0.2,0.8-0.3l0.9-0.2v0
					L648.2,311.2z"/>
			</g>
			<g>
				<path class="st15" d="M670.6,295.1l-0.6-0.2v0l0.9-0.2c0.3-0.1,0.6-0.2,0.8-0.3c-0.2,0.2-0.4,0.5-0.6,0.7l-0.5,0.8h0
					L670.6,295.1z"/>
			</g>
		</g>
	</g>
	<g>
		<g>
			<line class="st14" x1="666" y1="312.7" x2="674.7" y2="294.7"/>
			<g>
				<path class="st15" d="M666.1,312.4l-0.3-0.5h0l-0.1,0.9c-0.1,0.3-0.1,0.6-0.2,0.9c0.2-0.2,0.4-0.5,0.6-0.7l0.7-0.6v0
					L666.1,312.4z"/>
			</g>
			<g>
				<path class="st15" d="M674.5,295l-0.6,0.1v0l0.7-0.6c0.2-0.2,0.4-0.5,0.6-0.7c-0.1,0.3-0.1,0.6-0.2,0.9l-0.1,0.9h0L674.5,295z"
					/>
			</g>
		</g>
	</g>
	<g>
		<g>
			<line class="st14" x1="679.2" y1="316.4" x2="678.2" y2="293.5"/>
			<g>
				<path class="st15" d="M679.2,316.1l-0.5-0.3v0l0.4,0.8c0.1,0.3,0.2,0.6,0.2,0.9c0.1-0.3,0.1-0.6,0.2-0.9l0.3-0.9v0L679.2,316.1z
					"/>
			</g>
			<g>
				<path class="st15" d="M678.3,293.8l-0.5,0.3v0l0.3-0.9c0.1-0.3,0.1-0.6,0.2-0.9c0.1,0.3,0.2,0.6,0.2,0.9l0.4,0.8v0L678.3,293.8z
					"/>
			</g>
		</g>
	</g>
	<g>
		<g>
			<line class="st14" x1="686.5" y1="300.8" x2="681.2" y2="291.1"/>
			<g>
				<path class="st15" d="M686.4,300.6l-0.6,0v0l0.7,0.6c0.2,0.2,0.4,0.5,0.6,0.7c-0.1-0.3-0.2-0.6-0.2-0.9l-0.1-0.9h0L686.4,300.6z
					"/>
			</g>
			<g>
				<path class="st15" d="M681.4,291.3l-0.3,0.5h0l-0.1-0.9c-0.1-0.3-0.2-0.6-0.2-0.9c0.2,0.2,0.4,0.5,0.6,0.7l0.7,0.6v0
					L681.4,291.3z"/>
			</g>
		</g>
	</g>
	<g>
		<g>
			<path class="st14" d="M687.2,318.4c0.6,5.3,2.8,10.1,8.5,13.2"/>
			<g>
				<path class="st15" d="M687.3,318.6l0.6,0.3v0l-0.4-0.8c-0.1-0.3-0.2-0.6-0.3-0.9c0,0.3-0.1,0.6-0.1,0.9l-0.3,0.9v0L687.3,318.6z
					"/>
			</g>
			<g>
				<path class="st15" d="M695.5,331.4l-0.1-0.6h0l0.6,0.7c0.2,0.2,0.5,0.4,0.7,0.6c-0.3-0.1-0.6-0.2-0.9-0.2l-0.9-0.1v0
					L695.5,331.4z"/>
			</g>
		</g>
	</g>
	<g>
		<g>
			<line class="st16" x1="694" y1="287.2" x2="681.8" y2="284.8"/>
			<g>
				<path class="st6" d="M693.8,287.2l-0.4,0.5l0,0l0.9-0.2c0.3,0,0.6,0,0.9,0c-0.3-0.1-0.6-0.2-0.8-0.4l-0.8-0.5h0L693.8,287.2z"/>
			</g>
			<g>
				<path class="st6" d="M682.1,284.8l0.2,0.6h0l-0.8-0.5c-0.3-0.1-0.6-0.2-0.8-0.4c0.3,0,0.6,0,0.9,0l0.9-0.2h0L682.1,284.8z"/>
			</g>
		</g>
	</g>
	<g>
		<g>
			<line class="st14" x1="661.9" y1="273.1" x2="660.5" y2="262.6"/>
			<g>
				<path class="st15" d="M661.8,272.8l-0.6-0.2v0l0.5,0.8c0.1,0.3,0.2,0.6,0.3,0.8c0-0.3,0.1-0.6,0.1-0.9l0.2-0.9v0L661.8,272.8z"
					/>
			</g>
			<g>
				<path class="st15" d="M660.6,262.9l-0.5,0.4l0,0l0.2-0.9c0-0.3,0.1-0.6,0.1-0.9c0.1,0.3,0.2,0.6,0.3,0.8l0.5,0.8v0L660.6,262.9z
					"/>
			</g>
		</g>
	</g>
	<g>
		<g>
			<line class="st14" x1="612" y1="277.9" x2="647.9" y2="259.9"/>
			<g>
				<path class="st15" d="M612.2,277.8l0.1-0.6h0l-0.6,0.7c-0.2,0.2-0.5,0.4-0.7,0.6c0.3-0.1,0.6-0.2,0.9-0.2l0.9-0.1v0L612.2,277.8
					z"/>
			</g>
			<g>
				<path class="st15" d="M647.7,260.1l-0.5-0.3v0l0.9-0.1c0.3-0.1,0.6-0.2,0.9-0.2c-0.2,0.2-0.5,0.4-0.7,0.6l-0.6,0.7h0
					L647.7,260.1z"/>
			</g>
		</g>
	</g>
	<g>
		<g>
			<line class="st16" x1="690.2" y1="276" x2="671.2" y2="259.9"/>
			<g>
				<path class="st6" d="M690,275.9l-0.6,0.2v0l0.9,0.3c0.3,0.1,0.5,0.3,0.8,0.4c-0.2-0.2-0.4-0.5-0.6-0.7l-0.4-0.8h0L690,275.9z"/>
			</g>
			<g>
				<path class="st6" d="M671.4,260.1l-0.1,0.6h0l-0.4-0.8c-0.2-0.2-0.4-0.5-0.6-0.7c0.3,0.1,0.5,0.3,0.8,0.4l0.9,0.3v0L671.4,260.1
					z"/>
			</g>
		</g>
	</g>
	<g>
		<g>
			<line class="st14" x1="616.6" y1="311.1" x2="615.5" y2="301.8"/>
			<g>
				<path class="st15" d="M616.6,310.8l-0.6-0.3v0l0.4,0.8c0.1,0.3,0.2,0.6,0.3,0.8c0-0.3,0.1-0.6,0.1-0.9l0.2-0.9v0L616.6,310.8z"
					/>
			</g>
			<g>
				<path class="st15" d="M615.5,302l-0.5,0.4l0,0l0.2-0.9c0-0.3,0.1-0.6,0.1-0.9c0.1,0.3,0.2,0.6,0.3,0.8l0.4,0.8v0L615.5,302z"/>
			</g>
		</g>
	</g>
	<g>
		<g>
			<line class="st14" x1="624.7" y1="282" x2="621.2" y2="285.1"/>
			<g>
				<path class="st15" d="M624.6,282.2l0.1,0.6h0l0.4-0.8c0.2-0.2,0.4-0.5,0.5-0.7c-0.3,0.1-0.5,0.3-0.8,0.4L624,282v0L624.6,282.2z
					"/>
			</g>
			<g>
				<path class="st15" d="M621.4,285l0.6,0.2v0l-0.9,0.3c-0.3,0.1-0.5,0.3-0.8,0.4c0.2-0.2,0.4-0.5,0.5-0.7l0.4-0.8h0L621.4,285z"/>
			</g>
		</g>
	</g>
	<g>
		<g>
			<line class="st14" x1="638.1" y1="273.2" x2="651.3" y2="261.3"/>
			<g>
				<path class="st15" d="M638.3,273l-0.1-0.6h0l-0.4,0.8c-0.2,0.2-0.3,0.5-0.5,0.7c0.3-0.2,0.5-0.3,0.8-0.5l0.8-0.3v0L638.3,273z"
					/>
			</g>
			<g>
				<path class="st15" d="M651.2,261.5l-0.6-0.2v0l0.8-0.3c0.3-0.2,0.5-0.3,0.8-0.5c-0.2,0.2-0.3,0.5-0.5,0.7l-0.4,0.8h0
					L651.2,261.5z"/>
			</g>
		</g>
	</g>
	<g>
		<g>
			<path class="st14" d="M626.4,288.4c-3.1,9.9,3.1,21.1,8.7,26"/>
			<g>
				<path class="st15" d="M626.3,288.6l0.4,0.5h0l-0.1-0.9c0-0.3,0.1-0.6,0.1-0.9c-0.2,0.3-0.3,0.5-0.5,0.8l-0.6,0.7v0L626.3,288.6z
					"/>
			</g>
			<g>
				<path class="st15" d="M634.8,314.3l0.1-0.6h0l0.4,0.8c0.2,0.2,0.4,0.5,0.6,0.7c-0.3-0.1-0.5-0.3-0.8-0.4l-0.9-0.3v0L634.8,314.3
					z"/>
			</g>
		</g>
	</g>
	<g>
		<g>
			<path class="st16" d="M628.2,292.1c-0.2,10.4,17.3,20.4,24.7,24.1"/>
			<g>
				<path class="st6" d="M628.2,292.4l0.5,0.3v0l-0.3-0.9c-0.1-0.3-0.1-0.6-0.1-0.9c-0.1,0.3-0.2,0.6-0.3,0.9l-0.4,0.8v0
					L628.2,292.4z"/>
			</g>
			<g>
				<path class="st6" d="M652.7,316.1l-0.1-0.6h0l0.6,0.7c0.2,0.2,0.5,0.4,0.7,0.6c-0.3-0.1-0.6-0.2-0.9-0.2l-0.9-0.1v0L652.7,316.1
					z"/>
			</g>
		</g>
	</g>
	<g>
		<g>
			<path class="st14" d="M632.3,295.9c5,8.6,34,19.8,42,23.7"/>
			<g>
				<path class="st15" d="M632.4,296.1l0.6,0.1v0l-0.7-0.6c-0.2-0.2-0.4-0.5-0.6-0.7c0.1,0.3,0.2,0.6,0.2,0.9l0.1,0.9h0L632.4,296.1
					z"/>
			</g>
			<g>
				<path class="st15" d="M674.1,319.5l-0.1-0.6h0l0.6,0.7c0.2,0.2,0.5,0.4,0.7,0.6c-0.3-0.1-0.6-0.1-0.9-0.2l-0.9-0.1v0
					L674.1,319.5z"/>
			</g>
		</g>
	</g>
	<g>
		<g>
			<line class="st16" x1="693.8" y1="262.4" x2="693.3" y2="275"/>
			<g>
				<path class="st6" d="M693.8,262.7l0.5,0.3v0l-0.3-0.9c-0.1-0.3-0.1-0.6-0.2-0.9c-0.1,0.3-0.2,0.6-0.2,0.9l-0.4,0.8v0
					L693.8,262.7z"/>
			</g>
			<g>
				<path class="st6" d="M693.3,274.8l0.5-0.3v0l-0.4,0.8c-0.1,0.3-0.2,0.6-0.2,0.9c-0.1-0.3-0.1-0.6-0.2-0.9l-0.3-0.9v0
					L693.3,274.8z"/>
			</g>
		</g>
	</g>
	<g>
		<g>
			<line class="st16" x1="690" y1="262.3" x2="675.7" y2="273.9"/>
			<g>
				<path class="st6" d="M689.8,262.5l0.1,0.6h0l0.5-0.8c0.2-0.2,0.4-0.5,0.6-0.7c-0.3,0.1-0.6,0.3-0.8,0.4l-0.9,0.3v0L689.8,262.5z
					"/>
			</g>
			<g>
				<path class="st6" d="M675.8,273.7l0.6,0.2v0l-0.9,0.3c-0.3,0.1-0.6,0.3-0.8,0.4c0.2-0.2,0.4-0.5,0.6-0.7l0.5-0.8h0L675.8,273.7z
					"/>
			</g>
		</g>
	</g>
	
		<image style="overflow:visible;enable-background:new    ;" width="461" height="508" xlink:href="../../../../gdsc/docs/B6D1B12EB2128F85.jpeg"  transform="matrix(2.050762e-02 0 0 2.050762e-02 697.3679 282.8488)">
	</image>
	<path class="st21" d="M623.3,407.4c0,0-1.5-1.5-3-0.1c-1.2,1.2-0.2,3.2,2,3.1c2.1-0.1,4.2,0,5.9,0s3.4-0.7,3.4-2.9
		c0.1-2.7-2.4-3.8-3.9-2.4c-1.5-1.6-4.4-1.6-5.5,1.7"/>
	<path class="st21" d="M589.3,412c0,0-1.5-1.5-3-0.1c-1.2,1.2-0.2,3.2,2,3.1c2.1-0.1,4.2,0,5.9,0s3.4-0.7,3.4-2.9
		c0.1-2.7-2.4-3.8-3.9-2.4c-1.5-1.6-4.4-1.6-5.5,1.7"/>
	<path class="st22" d="M699.5,246.9c0,0-1.5-1.5-3-0.1c-1.2,1.2-0.2,3.2,2,3.1c6.1-0.2,7.8,0,5.9,0c1.7,0,3.4-0.7,3.4-2.9
		c0.1-2.7-2.4-3.8-3.9-2.4c-1.5-1.6-4.4-1.6-5.5,1.7"/>
	<g>
		<g>
			<line class="st14" x1="667.9" y1="402.4" x2="687.9" y2="404.7"/>
			<g>
				<path class="st15" d="M668.2,402.5l0.4-0.5l0,0l-0.9,0.2c-0.3,0-0.6,0.1-0.9,0.1c0.3,0.1,0.6,0.2,0.8,0.3l0.8,0.4h0L668.2,402.5
					z"/>
			</g>
			<g>
				<path class="st15" d="M687.6,404.7l-0.3-0.6h0l0.8,0.4c0.3,0.1,0.6,0.2,0.8,0.3c-0.3,0-0.6,0.1-0.9,0.1l-0.9,0.2h0L687.6,404.7z
					"/>
			</g>
		</g>
	</g>
	<g>
		<g>
			<line class="st14" x1="618.9" y1="360.6" x2="617.6" y2="369"/>
			<g>
				<path class="st15" d="M618.9,360.8l0.5,0.4l0,0l-0.2-0.9c0-0.3,0-0.6-0.1-0.9c-0.1,0.3-0.2,0.6-0.3,0.8l-0.5,0.8v0L618.9,360.8z
					"/>
			</g>
			<g>
				<path class="st15" d="M617.6,368.8l0.6-0.2v0l-0.5,0.8c-0.1,0.3-0.2,0.6-0.3,0.8c0-0.3,0-0.6-0.1-0.9l-0.2-0.9v0L617.6,368.8z"
					/>
			</g>
		</g>
	</g>
	<g>
		<g>
			<line class="st14" x1="689.9" y1="364.2" x2="698" y2="346.1"/>
			<g>
				<path class="st15" d="M690,363.9l-0.3-0.5h0l0,0.9c-0.1,0.3-0.1,0.6-0.2,0.9c0.2-0.2,0.4-0.5,0.5-0.7l0.7-0.6v0L690,363.9z"/>
			</g>
			<g>
				<path class="st15" d="M697.9,346.3l-0.6,0.1v0l0.7-0.6c0.2-0.2,0.4-0.5,0.5-0.7c-0.1,0.3-0.1,0.6-0.2,0.9l0,0.9h0L697.9,346.3z"
					/>
			</g>
		</g>
	</g>
	<g>
		<g>
			<line class="st14" x1="687.6" y1="362.1" x2="683.1" y2="334.2"/>
			<g>
				<path class="st15" d="M687.5,361.8l-0.6-0.2v0l0.5,0.8c0.1,0.3,0.2,0.6,0.3,0.8c0-0.3,0-0.6,0.1-0.9l0.2-0.9v0L687.5,361.8z"/>
			</g>
			<g>
				<path class="st15" d="M683.2,334.4l-0.5,0.4l0,0l0.2-0.9c0-0.3,0-0.6,0.1-0.9c0.1,0.3,0.2,0.6,0.3,0.8l0.5,0.8v0L683.2,334.4z"
					/>
			</g>
		</g>
	</g>
	<g>
		<g>
			<path class="st14" d="M601.5,343.7c0.8-6.1-0.1-11.4,6.5-17.4"/>
			<g>
				<path class="st15" d="M601.5,343.4L601,343l0,0l0.2,0.9c0,0.3,0.1,0.6,0.1,0.9c0.1-0.3,0.2-0.6,0.3-0.8l0.5-0.8v0L601.5,343.4z"
					/>
			</g>
			<g>
				<path class="st15" d="M607.9,326.4l-0.6-0.2v0l0.8-0.3c0.3-0.2,0.5-0.3,0.8-0.5c-0.2,0.2-0.3,0.5-0.5,0.7L608,327h0L607.9,326.4
					z"/>
			</g>
		</g>
	</g>
	<g>
		<g>
			<path class="st14" d="M614,346.6c-8.2-6.8-12.5-14.1-6-20.4"/>
			<g>
				<path class="st15" d="M613.8,346.5l-0.6,0.2v0l0.9,0.3c0.3,0.1,0.5,0.3,0.8,0.4c-0.2-0.2-0.4-0.5-0.6-0.7l-0.5-0.8h0
					L613.8,346.5z"/>
			</g>
			<g>
				<path class="st15" d="M607.9,326.4l-0.6-0.2v0l0.8-0.3c0.3-0.2,0.5-0.3,0.8-0.5c-0.2,0.2-0.3,0.5-0.5,0.7L608,327h0L607.9,326.4
					z"/>
			</g>
		</g>
	</g>
	<g>
		<g>
			<path class="st17" d="M633.1,348.8c-24.3-9.8-31.5-16.2-25.1-22.5"/>
			<g>
				<path class="st18" d="M632.9,348.6l-0.5,0.3v0l0.9,0c0.3,0.1,0.6,0.1,0.9,0.2c-0.2-0.2-0.5-0.3-0.7-0.5l-0.7-0.6h0L632.9,348.6z
					"/>
			</g>
			<g>
				<path class="st18" d="M607.9,326.4l-0.6-0.2v0l0.8-0.3c0.3-0.2,0.5-0.3,0.8-0.5c-0.2,0.2-0.3,0.5-0.5,0.7L608,327h0L607.9,326.4
					z"/>
			</g>
		</g>
	</g>
	<g>
		<g>
			<path class="st16" d="M657.5,352.2c-38.5-12.4-55.2-19.5-49.4-26"/>
			<g>
				<path class="st6" d="M657.3,352.1l-0.5,0.4v0l0.9-0.1c0.3,0,0.6,0.1,0.9,0.1c-0.3-0.2-0.5-0.3-0.8-0.5l-0.7-0.6h0L657.3,352.1z"
					/>
			</g>
			<g>
				<path class="st6" d="M607.9,326.4l-0.6-0.1v0l0.8-0.4c0.3-0.2,0.5-0.3,0.8-0.5c-0.2,0.3-0.3,0.5-0.5,0.8l-0.3,0.8h0L607.9,326.4
					z"/>
			</g>
		</g>
	</g>
	<g>
		<g>
			<path class="st14" d="M588.2,356.4c3.8-11.1,10.2-22.4,19.8-30.3"/>
			<g>
				<path class="st15" d="M588.3,356.2l-0.4-0.5h0l0,0.9c0,0.3-0.1,0.6-0.1,0.9c0.2-0.3,0.3-0.5,0.5-0.8l0.6-0.7v0L588.3,356.2z"/>
			</g>
			<g>
				<path class="st15" d="M607.9,326.3l-0.6-0.2v0l0.9-0.3c0.3-0.1,0.5-0.3,0.8-0.4c-0.2,0.2-0.4,0.5-0.6,0.7l-0.5,0.8h0
					L607.9,326.3z"/>
			</g>
		</g>
	</g>
</g>
<g>
	
		<image style="overflow:visible;enable-background:new    ;" width="462" height="478" xlink:href="../../../../gdsc/docs/B6D1B12EB2128F60.jpeg"  transform="matrix(4.983887e-02 0 0 4.983887e-02 394.1043 570.6533)">
	</image>
	<path class="st23" d="M539.3,580.4c0,0-4.1-4.1-8-0.2c-3.4,3.4-0.4,8.6,5.5,8.4c5.8-0.2,11.3-0.1,15.9-0.1c4.6,0,9-2,9.1-7.9
		c0.1-7.2-6.5-10.1-10.5-6.5c-4.1-4.4-11.8-4.3-14.6,4.5"/>
	
		<image style="overflow:visible;enable-background:new    ;" width="496" height="478" xlink:href="../../../../gdsc/docs/B6D1B12EB2128F89.png"  transform="matrix(6.315532e-02 0 0 6.315532e-02 266.9031 567.4707)">
	</image>
	
		<image style="overflow:visible;enable-background:new    ;" width="501" height="506" xlink:href="../../../../gdsc/docs/B6D1B12EB2128F8F.png"  transform="matrix(6.226238e-02 0 0 6.226238e-02 106.166 566.8125)">
	</image>
	<line class="st24" x1="106.4" y1="564.1" x2="656.5" y2="564.1"/>
	<line class="st24" x1="106.4" y1="600.9" x2="656.5" y2="600.9"/>
	<text transform="matrix(1 0 0 1 141.6518 587.0952)" class="st15 st25 st26">Kubernetes Control Plane</text>
	<text transform="matrix(1 0 0 1 301.7568 587.0952)" class="st15 st25 st26">Kubernetes Pod</text>
	<text transform="matrix(1 0 0 1 422.0063 587.0952)" class="st15 st25 st26">Virtual or Bare Metal</text>
	<text transform="matrix(1 0 0 1 569.105 587.0952)" class="st15 st25 st26">www Source or Sink</text>
</g>
<path class="st10" d="M489.4,299.8c-17.6,0-15.5-1.3-35-1.3c-22.2,0-19.9,2.5-19.9-13.8c0-13-2.5-12.9,30.7-12.9
	c21.8,0,7.8-0.1,27.5-0.1c24.7,0,24-1.5,24,11.2C516.8,300.7,518.8,299.8,489.4,299.8z"/>
</svg>
