<?xml version="1.0" encoding="utf-8"?>
<!-- Generator: Adobe Illustrator 27.9.0, SVG Export Plug-In . SVG Version: 6.00 Build 0)  -->
<svg version="1.1" id="Layer_1" xmlns="http://www.w3.org/2000/svg" xmlns:xlink="http://www.w3.org/1999/xlink" x="0px" y="0px"
	 viewBox="0 0 792 612" style="enable-background:new 0 0 792 612;" xml:space="preserve">
<style type="text/css">
	.st0{fill:none;stroke:#020202;stroke-width:1.545;stroke-linecap:round;stroke-linejoin:round;stroke-miterlimit:10;}
	.st1{fill:#FEF2B0;stroke:#030303;stroke-width:0.5593;stroke-miterlimit:10;stroke-dasharray:2.2373,2.2373;}
	.st2{fill:#010101;}
	.st3{font-family:'MyriadPro-SemiboldIt';}
	.st4{font-size:12px;}
	.st5{fill:none;}
	.st6{fill:none;stroke:#020202;stroke-miterlimit:10;}
	.st7{fill:#020202;}
	.st8{fill:#CED7E8;stroke:#030303;stroke-width:0.56;stroke-miterlimit:10;stroke-dasharray:1.12,3.36;}
	.st9{font-size:12.48px;}
	.st10{fill:#F1E2CC;stroke:#030303;stroke-width:0.5511;stroke-miterlimit:10;stroke-dasharray:6.6128,3.3064;}
	.st11{fill:#F0CBE0;stroke:#030303;stroke-width:0.56;stroke-miterlimit:10;stroke-dasharray:1.12,3.36,1.12,3.36,3.36,3.36;}
	
		.st12{fill:#B6DFCD;stroke:#030303;stroke-width:0.5729;stroke-miterlimit:10;stroke-dasharray:3.4374,3.4374,3.4374,3.4374,6.8747,3.4374;}
	.st13{fill:#E5EFCA;stroke:#030303;stroke-width:0.56;stroke-miterlimit:10;stroke-dasharray:3.36,3.36;}
	
		.st14{fill:none;stroke:#676867;stroke-width:0.5133;stroke-linecap:round;stroke-linejoin:round;stroke-miterlimit:10;stroke-dasharray:7.1868,3.08,3.08,3.08;}
	.st15{fill:none;stroke:#020202;stroke-width:0.65;stroke-miterlimit:10;}
	.st16{fill:#CED7E8;stroke:#030303;stroke-width:0.4308;stroke-miterlimit:10;stroke-dasharray:0.8615,2.5846;}
	.st17{font-size:9.6px;}
	.st18{fill:#F1E2CC;stroke:#030303;stroke-width:0.4239;stroke-miterlimit:10;stroke-dasharray:5.0868,2.5434;}
	
		.st19{fill:#F0CBE0;stroke:#030303;stroke-width:0.4308;stroke-miterlimit:10;stroke-dasharray:0.8615,2.5846,0.8615,2.5846,2.5846,2.5846;}
	
		.st20{fill:#B6DFCD;stroke:#030303;stroke-width:0.4407;stroke-miterlimit:10;stroke-dasharray:2.6442,2.6442,2.6442,2.6442,5.2883,2.6442;}
	
		.st21{fill:none;stroke:#676867;stroke-width:0.241;stroke-linecap:round;stroke-linejoin:round;stroke-miterlimit:10;stroke-dasharray:3.3741,1.446,1.446,1.446;}
	.st22{fill:none;stroke:#020202;stroke-width:0.5;stroke-miterlimit:10;}
	.st23{fill:none;stroke:#020202;stroke-width:1.23;stroke-linecap:round;stroke-linejoin:round;}
	.st24{fill:none;stroke:#020202;stroke-width:1.0629;stroke-linecap:round;stroke-linejoin:round;stroke-miterlimit:10;}
</style>
<g>
	<path class="st0" d="M143.1,426.2c4.4-3.3,6.4-0.8,5.9,2.9c-0.5,4.6-5.1,6-4.9,13.3c-1.2-1.5-2.3-3.5-3.2-7.1"/>
	<path class="st0" d="M128.2,425.1c2.4,3.9,2.7,4.6,6.5,4.2c3.9-0.4,5.7-0.4,5.2,2s-1.3,2.9-1.3,2.9"/>
	<path class="st0" d="M137.7,422.2c3.7,0.7,5.7,2.2,5.6,7.2c-0.2,5.1-5,9.3-9.9,9.5c-6,0.2-7.7-7.9-7.4-10.4c0.3-2.4,2.2-8.6,7-7.6
		s4.6,2.4,5.8,2.5"/>
	<path class="st0" d="M136.3,440.9c0,0,5.5,8.5,9.7,12.5"/>
	<path class="st0" d="M127.9,455c4-3.2,8.5-15.8,8.5-15.8l-0.2,17.1"/>
	<path class="st0" d="M127,486.3c0,0,4.5-22.6,9.3-30c0,0,5.4,19.5,10.3,30"/>
</g>
<g>
	<path class="st0" d="M205.8,438.6c-9.7-3.7-11.2,1.6-12.7,3.5c-1.5,1.9-1.1,9.6,2.2,12c3.3,2.4,5.1,3.9,11.4,2.5
		c6.3-1.4,4.9-10,3.5-14.2C208.6,438.2,205.8,438.6,205.8,438.6z"/>
	<path class="st0" d="M198.2,459.8c0,0-4.9,7.2-5.3,16.7"/>
	<path class="st0" d="M208,476.6l-9.7-16.8c-0.4,9.1,0.8,20.5,0.8,20.5"/>
	<path class="st0" d="M191.1,509.3c2-3.7,8.1-29,8.1-29s3.1,1.6,10.4,28.7"/>
</g>
<path class="st1" d="M308.2,515.2h-81v-45h81V515.2z"/>
<text transform="matrix(1 0 0 1 243.0845 489.0718)" class="st2 st3 st4">Metadata</text>
<text transform="matrix(1 0 0 1 254.5845 503.4718)" class="st2 st3 st4">Store</text>
<g>
	<path class="st1" d="M483.8,499.5h-81v-45h81V499.5z"/>
	<text transform="matrix(1 0 0 1 410.2747 480.522)" class="st2 st3 st4">Data Sources</text>
</g>
<rect x="254.3" y="504.5" class="st5" width="2.2" height="0.9"/>
<g>
	<path class="st0" d="M633.5,73.8c4.3-3.2,6.3-0.8,5.9,2.9c-0.5,4.6-5.1,5.9-4.9,13.3c-1.2-1.5-2.3-3.6-3.2-7.1"/>
	<path class="st0" d="M618.6,72.8c2.4,3.9,2.7,4.6,6.5,4.2c3.9-0.4,5.7-0.4,5.2,2s-1.3,2.9-1.3,2.9"/>
	<path class="st0" d="M628.1,69.8c3.7,0.7,5.7,2.2,5.6,7.2c-0.2,5.1-4.9,9.3-9.9,9.5c-6,0.2-7.7-7.9-7.4-10.4c0.2-2.5,2.2-8.7,7-7.6
		c4.8,1,4.6,2.4,5.8,2.5"/>
	<path class="st0" d="M626.6,88.5c0,0,5.5,8.5,9.7,12.5"/>
	<path class="st0" d="M618.2,102.7c4-3.2,8.5-15.8,8.5-15.8l-0.2,17.1"/>
	<path class="st0" d="M617.2,133.9c0,0,4.6-22.6,9.3-30c0,0,5.3,19.5,10.3,30"/>
</g>
<g>
	<path class="st0" d="M589.3,61.6c-9.8-3.7-11.2,1.6-12.7,3.5s-1.2,9.6,2.2,12s5.1,3.9,11.4,2.5s5-10,3.5-14.2
		C592.2,61.3,589.4,61.7,589.3,61.6z"/>
	<path class="st0" d="M581.9,82.9c0,0-4.9,7.2-5.3,16.7"/>
	<path class="st0" d="M591.6,99.8L581.9,83c-0.4,9.1,0.8,20.5,0.8,20.5"/>
	<path class="st0" d="M574.7,132.5c2-3.7,8.1-29,8.1-29s3.1,1.6,10.4,28.7"/>
</g>
<g>
	<g>
		<path class="st0" d="M323.5,144.3c4.3-3.2,6.3-0.8,5.9,2.9c-0.5,4.6-5.1,5.9-4.9,13.3c-1.2-1.5-2.3-3.6-3.2-7.1"/>
		<path class="st0" d="M308.7,143.3c2.4,3.9,2.7,4.6,6.5,4.2c3.9-0.4,5.7-0.4,5.2,2s-1.3,2.9-1.3,2.9"/>
		<path class="st0" d="M318.2,140.3c3.7,0.7,5.7,2.2,5.6,7.2c-0.2,5.1-4.9,9.3-9.9,9.5c-6,0.2-7.7-7.9-7.4-10.4
			c0.2-2.5,2.2-8.7,7-7.6c4.8,1,4.6,2.4,5.8,2.5"/>
		<path class="st0" d="M316.7,159.1c0,0,5.5,8.5,9.7,12.5"/>
		<path class="st0" d="M308.2,173.2c4-3.2,8.5-15.8,8.5-15.8l-0.2,17.1"/>
		<path class="st0" d="M307.2,204.4c0,0,4.6-22.6,9.3-30c0,0,5.3,19.5,10.3,30"/>
	</g>
	<g>
		<path class="st0" d="M274.4,130.4c-1.5,4.2-2.8,12.8,3.5,14.2s8-0.1,11.4-2.5s3.7-10.1,2.2-12s-2.9-7.2-12.7-3.5
			C278.8,126.8,276,126.3,274.4,130.4z"/>
		<path class="st0" d="M291.5,164.6c-0.4-9.5-5.3-16.7-5.3-16.7"/>
		<path class="st0" d="M285.5,168.6c0,0,1.2-11.4,0.8-20.5l-9.7,16.8"/>
		<path class="st0" d="M275,197.2c7.3-27.1,10.4-28.7,10.4-28.7s6.1,25.3,8.1,29"/>
	</g>
</g>
<g>
	<path class="st0" d="M545.9,118c-0.9,3.5-2,5.6-3.2,7.1c0.2-7.4-4.4-8.7-4.9-13.3c-0.4-3.7,1.6-6.1,5.9-2.9"/>
	<path class="st0" d="M548.2,117c0,0-0.8-0.5-1.3-2.9s1.3-2.4,5.2-2c3.8,0.4,4.1-0.3,6.5-4.2"/>
	<path class="st0" d="M548,106.1c1.2-0.1,1-1.5,5.8-2.5c4.8-1.1,6.8,5.1,7,7.6c0.3,2.5-1.4,10.6-7.4,10.4c-5-0.2-9.7-4.4-9.9-9.5
		c-0.1-5,1.9-6.5,5.6-7.2"/>
	<path class="st0" d="M540.9,136.1c4.2-4,9.7-12.5,9.7-12.5"/>
	<path class="st0" d="M550.7,139.1l-0.2-17.1c0,0,4.5,12.6,8.5,15.8"/>
	<path class="st0" d="M540.4,169c5-10.5,10.3-30,10.3-30c4.7,7.4,9.3,30,9.3,30"/>
</g>
<g>
	<path class="st0" d="M498.5,88.2c-1.5,4.2-2.8,12.8,3.5,14.2s8-0.1,11.4-2.5c3.4-2.4,3.7-10.1,2.2-12s-2.9-7.2-12.7-3.5
		C502.9,84.5,500.1,84.1,498.5,88.2z"/>
	<path class="st0" d="M515.7,122.4c-0.4-9.5-5.3-16.7-5.3-16.7"/>
	<path class="st0" d="M509.6,126.3c0,0,1.2-11.4,0.8-20.5l-9.7,16.8"/>
	<path class="st0" d="M499.1,155c7.3-27.1,10.4-28.7,10.4-28.7s6.1,25.3,8.1,29"/>
</g>
<rect x="256.5" y="504.5" class="st5" width="2.2" height="0.9"/>
<image style="overflow:visible;enable-background:new    ;" width="891" height="507" xlink:href="27F16C6A09C2E267.png"  transform="matrix(0.1069 0 0 0.1069 171.7542 153)">
</image>
<g>
	<g>
		<line class="st6" x1="632.4" y1="-13.3" x2="643.3" y2="-5.1"/>
		<g>
			<polygon class="st7" points="640,-4 650.4,0.2 643.5,-8.6 			"/>
		</g>
	</g>
</g>
<g>
	<path class="st8" d="M309.1,456.8h-81.9V410h81.9V456.8z"/>
	<text transform="matrix(0.9722 0 0 1 251.6851 437.0117)" class="st2 st3 st9">Admin</text>
</g>
<g>
	<path class="st10" d="M309.1,351.5v46.8h-81.9v-46.8H309.1z"/>
	<text transform="matrix(0.9722 0 0 1 241.1772 378.5127)" class="st2 st3 st9">Data Store</text>
</g>
<g>
	<path class="st11" d="M227.2,339.8c9.1,0,81.9,0,81.9,0V293h-81.9V339.8z"/>
	<text transform="matrix(0.9722 0 0 1 236.6992 320.0127)" class="st2 st3 st9">Applications</text>
</g>
<g>
	<path class="st12" d="M262.3,234.4c0,0,2.7,0-81.9,0v46.8c9.1,0,81.9,0,81.9,0V234.4z"/>
	<text transform="matrix(0.9721 0 0 1 188.3374 261.5142)" class="st2 st3 st9">Map Services</text>
</g>
<g>
	<path class="st13" d="M279.9,281.2c0,0,72.8,0,81.9,0v-46.8h-81.9V281.2z"/>
	<text transform="matrix(0.9722 0 0 1 293.082 254.0239)" class="st2 st3 st9">Discoverey</text>
	<text transform="matrix(0.9722 0 0 1 300.2617 269.001)" class="st2 st3 st9">Services</text>
</g>
<rect x="168.8" y="222.8" class="st14" width="204.8" height="312.8"/>
<g>
	<g>
		<path class="st7" d="M262.7,401.9"/>
	</g>
</g>
<g>
	<g>
		<line class="st15" x1="268.2" y1="407" x2="268.2" y2="405.1"/>
		<g>
			<path class="st7" d="M268.2,401.2c0.7,1.8,1.9,4.1,3.1,5.6l-3.1-1.1l-3.1,1.1C266.3,405.3,267.5,403,268.2,401.2z"/>
		</g>
	</g>
</g>
<g>
	<g>
		<line class="st15" x1="267.8" y1="465.8" x2="267.8" y2="463.8"/>
		<g>
			<path class="st7" d="M267.8,459.9c0.7,1.8,1.9,4.1,3.1,5.6l-3.1-1.1l-3.1,1.1C265.9,464,267.1,461.7,267.8,459.9z"/>
		</g>
	</g>
</g>
<g>
	<g>
		<line class="st15" x1="268.2" y1="348.5" x2="268.2" y2="346.6"/>
		<g>
			<path class="st7" d="M268.2,342.7c0.7,1.8,1.9,4.1,3.1,5.6l-3.1-1.1l-3.1,1.1C266.3,346.8,267.5,344.5,268.2,342.7z"/>
		</g>
	</g>
</g>
<g>
	<g>
		<line class="st15" x1="244.8" y1="290" x2="244.8" y2="288.1"/>
		<g>
			<path class="st7" d="M244.8,284.2c0.7,1.8,1.9,4.1,3.1,5.6l-3.1-1.1l-3.1,1.1C242.9,288.3,244.1,286,244.8,284.2z"/>
		</g>
	</g>
</g>
<g>
	<g>
		<line class="st15" x1="297.5" y1="290" x2="297.5" y2="288.1"/>
		<g>
			<path class="st7" d="M297.5,284.2c0.7,1.8,1.9,4.1,3.1,5.6l-3.1-1.1l-3.1,1.1C295.6,288.3,296.8,286,297.5,284.2z"/>
		</g>
	</g>
</g>
<g>
	<g>
		<path class="st16" d="M528.8,362.2h-63v-36h63V362.2z"/>
		<text transform="matrix(0.9722 0 0 1 484.5469 347.0684)" class="st2 st3 st17">Admin</text>
	</g>
	<g>
		<path class="st18" d="M528.8,281.2v36h-63v-36H528.8z"/>
		<text transform="matrix(0.9722 0 0 1 476.4639 302.0679)" class="st2 st3 st17">Data Store</text>
	</g>
	<g>
		<path class="st19" d="M465.8,272.2c7,0,63,0,63,0v-36h-63V272.2z"/>
		<text transform="matrix(0.9722 0 0 1 473.0195 257.0679)" class="st2 st3 st17">Applications</text>
	</g>
	<g>
		<path class="st20" d="M528.7,191.2c0,0,2.1,0-63,0v36c7,0,63,0,63,0V191.2z"/>
		<text transform="matrix(0.9721 0 0 1 471.8174 212.0679)" class="st2 st3 st17">Map Services</text>
	</g>
	<rect x="459" y="184.5" class="st21" width="76.5" height="184.5"/>
	<g>
		<g>
			<path class="st7" d="M493.1,320"/>
		</g>
	</g>
	<g>
		<g>
			<line class="st22" x1="497.2" y1="324" x2="497.2" y2="322.5"/>
			<g>
				<path class="st7" d="M497.2,319.5c0.5,1.4,1.4,3.2,2.4,4.3l-2.4-0.9l-2.4,0.9C495.8,322.7,496.7,320.9,497.2,319.5z"/>
			</g>
		</g>
	</g>
	<g>
		<g>
			<line class="st22" x1="497.2" y1="279" x2="497.2" y2="277.5"/>
			<g>
				<path class="st7" d="M497.2,274.5c0.5,1.4,1.4,3.2,2.4,4.3l-2.4-0.9l-2.4,0.9C495.8,277.7,496.7,275.9,497.2,274.5z"/>
			</g>
		</g>
	</g>
	<g>
		<g>
			<line class="st22" x1="497.2" y1="234" x2="497.2" y2="232.5"/>
			<g>
				<path class="st7" d="M497.2,229.5c0.5,1.4,1.4,3.2,2.4,4.3l-2.4-0.9l-2.4,0.9C495.8,232.7,496.7,230.9,497.2,229.5z"/>
			</g>
		</g>
	</g>
</g>
<g>
	<g>
		<path class="st16" d="M679.5,333h-63v-36h63V333z"/>
		<text transform="matrix(0.9722 0 0 1 635.2969 317.8184)" class="st2 st3 st17">Admin</text>
	</g>
	<g>
		<path class="st18" d="M679.5,252v36h-63v-36H679.5z"/>
		<text transform="matrix(0.9722 0 0 1 627.2139 272.8179)" class="st2 st3 st17">Data Store</text>
	</g>
	<g>
		<path class="st19" d="M616.5,243c7,0,63,0,63,0v-36h-63V243z"/>
		<text transform="matrix(0.9722 0 0 1 623.7695 227.8179)" class="st2 st3 st17">Applications</text>
	</g>
	<g>
		<path class="st20" d="M679.5,162c0,0,2.1,0-63,0v36c7,0,63,0,63,0V162z"/>
		<text transform="matrix(0.9721 0 0 1 622.5674 182.8179)" class="st2 st3 st17">Map Services</text>
	</g>
	<rect x="609.8" y="155.2" class="st21" width="76.5" height="184.5"/>
	<g>
		<g>
			<path class="st7" d="M643.8,290.8"/>
		</g>
	</g>
	<g>
		<g>
			<line class="st22" x1="648" y1="294.8" x2="648" y2="293.3"/>
			<g>
				<path class="st7" d="M648,290.2c0.5,1.4,1.4,3.2,2.4,4.3l-2.4-0.9l-2.4,0.9C646.6,293.4,647.5,291.7,648,290.2z"/>
			</g>
		</g>
	</g>
	<g>
		<g>
			<line class="st22" x1="648" y1="249.8" x2="648" y2="248.3"/>
			<g>
				<path class="st7" d="M648,245.2c0.5,1.4,1.4,3.2,2.4,4.3l-2.4-0.9l-2.4,0.9C646.6,248.4,647.5,246.7,648,245.2z"/>
			</g>
		</g>
	</g>
	<g>
		<g>
			<line class="st22" x1="648" y1="204.8" x2="648" y2="203.3"/>
			<g>
				<path class="st7" d="M648,200.2c0.5,1.4,1.4,3.2,2.4,4.3l-2.4-0.9l-2.4,0.9C646.6,203.4,647.5,201.7,648,200.2z"/>
			</g>
		</g>
	</g>
</g>
<g>
	<path class="st0" d="M668,96c-0.9,3.5-2,5.6-3.2,7.1c0.2-7.4-4.4-8.7-4.9-13.3c-0.4-3.7,1.6-6.1,5.9-2.9"/>
	<path class="st0" d="M670.2,95c0,0-0.8-0.5-1.3-2.9s1.3-2.4,5.2-2c3.8,0.4,4.1-0.3,6.5-4.2"/>
	<path class="st0" d="M670.1,84.1c1.2-0.1,1-1.5,5.8-2.5c4.8-1.1,6.8,5.1,7,7.6c0.3,2.5-1.4,10.6-7.4,10.4c-5-0.2-9.7-4.4-9.9-9.5
		c-0.1-5,1.9-6.5,5.6-7.2"/>
	<path class="st0" d="M662.9,114.1c4.2-4,9.7-12.5,9.7-12.5"/>
	<path class="st0" d="M672.8,117.1l-0.2-17.1c0,0,4.5,12.6,8.5,15.8"/>
	<path class="st0" d="M662.5,147c5-10.5,10.3-30,10.3-30c4.7,7.4,9.3,30,9.3,30"/>
</g>
<g>
	<g>
		<path class="st23" d="M396,443.2c-21.5-23.7-26.6-127.4,47.6-138.6"/>
		<g>
			<polygon class="st7" points="441.6,308.5 454.5,303.8 440.9,301.4 			"/>
		</g>
	</g>
</g>
<g>
	<g>
		<path class="st23" d="M317.2,495c116.5-6.2,88.7-126,126.6-144"/>
		<g>
			<polygon class="st7" points="442.4,355.3 454.5,348.8 440.7,348.4 			"/>
		</g>
	</g>
</g>
<g>
	<g>
		<path class="st23" d="M317.2,495c373,67.6,256.9-129.8,274-165.5"/>
		<g>
			<polygon class="st7" points="591.7,334.4 600.8,324 587.7,328.5 			"/>
		</g>
	</g>
</g>
<g>
	<g>
		<path class="st24" d="M483.3,388.5c-0.6,2.5-1.4,3.9-2.2,4.9c0.1-5-3-6-3.4-9.1c-0.3-2.5,1-4.3,4.1-2"/>
		<path class="st24" d="M484.9,387.7c0,0-0.6-0.3-0.9-2c-0.3-1.7,0.9-1.7,3.6-1.4c2.6,0.3,2.8-0.2,4.5-2.9"/>
		<path class="st24" d="M484.8,380.3c0.8-0.1,0.7-1,4-1.7c3.3-0.7,4.6,3.6,4.8,5.2c0.2,1.7-1,7.3-5.1,7.2c-3.4-0.1-6.7-3-6.8-6.5
			c-0.1-3.4,1.3-4.5,3.9-5"/>
		<path class="st24" d="M479.8,400.9c2.9-2.8,6.7-8.6,6.7-8.6"/>
		<path class="st24" d="M486.6,402.9l-0.1-11.8c0,0,3.1,8.7,5.8,10.9"/>
		<path class="st24" d="M479.4,423.5c3.4-7.2,7.1-20.6,7.1-20.6c3.3,5.1,6.4,20.6,6.4,20.6"/>
	</g>
	<g>
		<path class="st24" d="M468.7,390.1c-6.7-2.5-7.7,1.1-8.7,2.4s-0.8,6.6,1.5,8.3c2.3,1.7,3.5,2.7,7.8,1.7c4.3-1,3.4-6.9,2.4-9.8
			C470.7,389.8,468.7,390.1,468.7,390.1z"/>
		<path class="st24" d="M463.6,404.7c0,0-3.4,5-3.6,11.5"/>
		<path class="st24" d="M470.2,416.2l-6.7-11.6c-0.3,6.3,0.6,14.1,0.6,14.1"/>
		<path class="st24" d="M458.6,438.7c1.4-2.5,5.6-20,5.6-20s2.1,1.1,7.2,19.7"/>
	</g>
</g>
<g>
	<g>
		<path class="st24" d="M653,352.5c3-2.3,4.4-0.6,4.1,2c-0.3,3.2-3.5,4.1-3.4,9.1c-0.8-1-1.6-2.4-2.2-4.9"/>
		<path class="st24" d="M642.8,351.7c1.7,2.7,1.9,3.2,4.5,2.9c2.7-0.3,3.9-0.3,3.6,1.4c-0.3,1.7-0.9,2-0.9,2"/>
		<path class="st24" d="M649.3,349.7c2.5,0.5,3.9,1.5,3.9,5c-0.1,3.5-3.4,6.4-6.8,6.5c-4.1,0.1-5.3-5.4-5.1-7.2
			c0.2-1.7,1.5-5.9,4.8-5.2c3.3,0.7,3.2,1.7,4,1.7"/>
		<path class="st24" d="M648.4,362.6c0,0,3.8,5.8,6.7,8.6"/>
		<path class="st24" d="M642.6,372.3c2.8-2.2,5.8-10.9,5.8-10.9l-0.1,11.8"/>
		<path class="st24" d="M642,393.8c0,0,3.1-15.5,6.4-20.6c0,0,3.7,13.4,7.1,20.6"/>
	</g>
	<g>
		<path class="st24" d="M663.1,363c-1,2.9-1.9,8.8,2.4,9.8c4.3,1,5.6-0.1,7.8-1.7c2.3-1.7,2.5-6.9,1.5-8.3s-2.1-5-8.7-2.4
			C666.1,360.4,664.2,360.1,663.1,363z"/>
		<path class="st24" d="M674.9,386.5c-0.3-6.5-3.6-11.5-3.6-11.5"/>
		<path class="st24" d="M670.7,389.1c0,0,0.8-7.8,0.6-14.1l-6.7,11.6"/>
		<path class="st24" d="M663.5,408.8c5-18.6,7.2-19.7,7.2-19.7s4.2,17.4,5.6,20"/>
	</g>
</g>
<g>
	<g>
		<path class="st23" d="M497.2,452.2c77.7-15.1,12.5-164.9,92.6-177"/>
		<g>
			<polygon class="st7" points="587.7,279.1 600.8,274.5 587.2,272 			"/>
		</g>
	</g>
</g>
<g>
	<g>
		<path class="st23" d="M396,443.2c-20.1-22.1-34.8-56.8-63.4-63.9"/>
		<g>
			<polygon class="st7" points="335.4,376.2 321.8,378 334.5,383.3 			"/>
		</g>
	</g>
</g>
</svg>
