<?xml version="1.0" encoding="utf-8"?>
<!-- Generator: Adobe Illustrator 24.1.0, SVG Export Plug-In . SVG Version: 6.00 Build 0)  -->
<svg version="1.1" id="Layer_1" xmlns="http://www.w3.org/2000/svg" xmlns:xlink="http://www.w3.org/1999/xlink" x="0px" y="0px"
	 viewBox="0 0 370 77" style="enable-background:new 0 0 370 77;" xml:space="preserve">
<style type="text/css">
	.st0{clip-path:url(#SVGID_2_);fill:#FFFFFF;}
	.st1{clip-path:url(#SVGID_4_);fill:#03522F;}
	.st2{clip-path:url(#SVGID_6_);fill:#F37421;}
	.st3{clip-path:url(#SVGID_8_);fill:none;stroke:#FFFFFF;stroke-width:2;}
	.st4{clip-path:url(#SVGID_20_);fill:#FFFFFF;}
	.st5{clip-path:url(#SVGID_22_);fill:#FFFFFF;}
	.st6{fill:#FFFFFF;}
</style>
<g>
	<g>
		<defs>
			<rect id="SVGID_1_" width="369.6" height="77"/>
		</defs>
		<clipPath id="SVGID_2_">
			<use xlink:href="#SVGID_1_"  style="overflow:visible;"/>
		</clipPath>
		<path class="st0" d="M65.1,0l0.1,28.7c0,1.8,0,7.4-14.1,7.5h-1.3h-1.3c-14.1,0-14.1-5.6-14.1-7.5V0H15v33c0,9.1,25.6,9.8,33.4,9.8
			h1.2h0.3h1.2c7.8,0,33.4-0.7,33.4-9.8V0H65.1z"/>
	</g>
	<g>
		<defs>
			<rect id="SVGID_3_" width="369.6" height="77"/>
		</defs>
		<clipPath id="SVGID_4_">
			<use xlink:href="#SVGID_3_"  style="overflow:visible;"/>
		</clipPath>
		<path class="st1" d="M66.6,28.7V1.4h16.5c0,0,0,30.5,0,31.6c0,6-16.4,8.4-32,8.4c0-0.8,0-2.6,0-3.8C58.9,37.6,66.6,35.9,66.6,28.7
			"/>
	</g>
	<g>
		<defs>
			<rect id="SVGID_5_" width="369.6" height="77"/>
		</defs>
		<clipPath id="SVGID_6_">
			<use xlink:href="#SVGID_5_"  style="overflow:visible;"/>
		</clipPath>
		<path class="st2" d="M32.9,28.7V1.4H16.5c0,0,0,30.5,0,31.6c0,6,16.4,8.4,32,8.4c0-0.8,0-2.6,0-3.8C40.7,37.6,32.9,35.9,32.9,28.7
			"/>
	</g>
	<g>
		<defs>
			<rect id="SVGID_7_" width="369.6" height="77"/>
		</defs>
		<clipPath id="SVGID_8_">
			<use xlink:href="#SVGID_7_"  style="overflow:visible;"/>
		</clipPath>
		<line class="st3" x1="0" y1="50.8" x2="100" y2="50.8"/>
	</g>
	<g>
		<defs>
			<rect id="SVGID_9_" width="369.6" height="77"/>
		</defs>
		<clipPath id="SVGID_10_">
			<use xlink:href="#SVGID_9_"  style="overflow:visible;"/>
		</clipPath>
	</g>
	<g>
		<defs>
			<rect id="SVGID_11_" width="369.6" height="77"/>
		</defs>
		<clipPath id="SVGID_12_">
			<use xlink:href="#SVGID_11_"  style="overflow:visible;"/>
		</clipPath>
	</g>
	<g>
		<defs>
			<rect id="SVGID_13_" width="369.6" height="77"/>
		</defs>
		<clipPath id="SVGID_14_">
			<use xlink:href="#SVGID_13_"  style="overflow:visible;"/>
		</clipPath>
	</g>
	<g>
		<defs>
			<rect id="SVGID_15_" width="369.6" height="77"/>
		</defs>
		<clipPath id="SVGID_16_">
			<use xlink:href="#SVGID_15_"  style="overflow:visible;"/>
		</clipPath>
	</g>
	<g>
		<defs>
			<rect id="SVGID_17_" width="369.6" height="77"/>
		</defs>
		<clipPath id="SVGID_18_">
			<use xlink:href="#SVGID_17_"  style="overflow:visible;"/>
		</clipPath>
	</g>
	<g>
		<defs>
			<rect id="SVGID_19_" width="369.6" height="77"/>
		</defs>
		<clipPath id="SVGID_20_">
			<use xlink:href="#SVGID_19_"  style="overflow:visible;"/>
		</clipPath>
		<path class="st4" d="M345.8,43.1c1,0,1.7,0.1,2.2,0.3c0.4,0.2,0.8,0.5,1.1,1l7.4,11.5v7.3c0,0.4-0.1,0.7-0.4,0.9
			c-0.3,0.2-0.7,0.3-1.3,0.3h-2.2v1.2h10.9v-1.2h-2c-0.6,0-1.1-0.1-1.4-0.3c-0.2-0.2-0.3-0.5-0.3-0.9v-7.5l5.5-10.1
			c0.6-1,1.1-1.7,1.7-2.1c0.6-0.4,1.4-0.5,2.5-0.5v-1.2h-9.1V43h1.1c0.7,0,1.2,0.2,1.6,0.5s0.5,0.8,0.5,1.3c0,0.4-0.1,0.8-0.3,1.2
			l-4.4,8l-6-9.4c-0.2-0.2-0.2-0.5-0.2-0.8s0.1-0.5,0.4-0.6C353.4,43,354,43,355,43h1.2v-1.2h-10.4L345.8,43.1L345.8,43.1z
			 M336,41.9c-0.9-0.3-1.9-0.5-2.9-0.5c-1.8,0-3.5,0.6-5.3,1.7c-1.7,1.1-3.1,2.6-4.1,4.5s-1.5,4-1.5,6.4s0.5,4.5,1.5,6.4
			s2.3,3.3,4.1,4.4c1.7,1,3.6,1.5,5.6,1.5c1.4,0,2.7-0.3,3.8-1c1.1-0.7,2.1-1.7,2.9-3c0.4,1.3,0.8,2.7,1.2,4.1h1.1v-9.1
			c0-0.4,0.1-0.7,0.4-0.9s0.7-0.3,1.3-0.3h1.4V55h-10v1.1h2c0.6,0,1.1,0.1,1.3,0.3c0.3,0.2,0.4,0.5,0.4,0.8v2.2c0,1.7-0.5,3-1.5,4.1
			s-2.5,1.6-4.4,1.6c-1.4,0-2.6-0.4-3.6-1.1c-1-0.7-1.8-1.9-2.4-3.4c-0.6-1.6-0.9-3.7-0.9-6.5s0.3-5,0.9-6.6s1.4-2.7,2.5-3.5
			s2.3-1.2,3.7-1.2c1.8,0,3.4,0.8,4.8,2.3c1.1,1.2,2,3.2,2.8,5.9h1l-0.6-9.5h-1.1l-1.3,2.4C337.9,42.8,336.9,42.2,336,41.9
			 M311.6,43.8c1.1,0.8,1.9,2,2.5,3.6s0.9,3.8,0.9,6.7c0,2.6-0.3,4.7-0.9,6.3s-1.4,2.8-2.5,3.5c-1,0.7-2.2,1.1-3.6,1.1
			c-2,0-3.6-0.8-4.9-2.4s-2-4.6-2-8.8c0-3.9,0.6-6.8,2-8.5c1.3-1.7,3-2.6,5.1-2.6C309.3,42.6,310.5,43,311.6,43.8 M302.4,43
			c-1.7,1.1-3.1,2.5-4,4.4c-1,1.9-1.5,4-1.5,6.3c0,2.4,0.5,4.5,1.5,6.5c1,1.9,2.4,3.4,4,4.5c1.7,1,3.5,1.6,5.4,1.6
			c2,0,3.8-0.5,5.6-1.6c1.7-1.1,3.1-2.6,4.1-4.5s1.5-4.1,1.5-6.4c0-2.4-0.5-4.5-1.5-6.4s-2.4-3.4-4.1-4.4c-1.8-1.1-3.6-1.6-5.6-1.6
			C305.9,41.4,304.1,41.9,302.4,43 M274.4,43.1h2.4c0.4,0,0.8,0.1,1,0.3s0.3,0.5,0.3,0.9v18.6c0,0.6-0.1,1-0.4,1.2
			c-0.3,0.3-0.7,0.4-1.4,0.4h-1.9v1.2h19.9l0.5-9.2h-1.1c-0.5,2.9-1.3,5-2.5,6.2c-1.1,1.2-2.6,1.8-4.4,1.8h-3.3
			c-0.8,0-1.3-0.1-1.5-0.3c-0.3-0.2-0.4-0.5-0.4-1V44.4c0-0.5,0.1-0.8,0.3-1c0.2-0.2,0.5-0.3,0.9-0.3h2.6v-1.2h-11.1v1.2H274.4z
			 M264.4,43.8c1.1,0.8,1.9,2,2.5,3.6s0.9,3.8,0.9,6.7c0,2.6-0.3,4.7-0.9,6.3s-1.4,2.8-2.5,3.5c-1,0.7-2.3,1.1-3.6,1.1
			c-2,0-3.6-0.8-4.9-2.4c-1.3-1.6-2-4.6-2-8.8c0-3.9,0.7-6.8,1.9-8.5c1.3-1.7,3-2.6,5.1-2.6C262.1,42.6,263.3,43,264.4,43.8
			 M255.2,43c-1.7,1.1-3.1,2.5-4,4.4c-1,1.9-1.5,4-1.5,6.3c0,2.4,0.5,4.5,1.5,6.5c1,1.9,2.4,3.4,4,4.5c1.7,1,3.5,1.6,5.4,1.6
			c2,0,3.8-0.5,5.6-1.6c1.7-1.1,3.1-2.6,4.1-4.5s1.5-4.1,1.5-6.4c0-2.4-0.5-4.5-1.5-6.4s-2.4-3.4-4.1-4.4c-1.8-1.1-3.6-1.6-5.6-1.6
			C258.7,41.4,256.9,41.9,255.2,43 M222.6,43.1h1.1c0.5,0,0.9,0.1,1.2,0.2c0.2,0.1,0.6,0.5,1.1,1l0.3,0.3v16.1c0,1-0.3,1.9-1,2.6
			c-0.7,0.7-1.6,1.1-2.7,1.1v1.2h9.1v-1.2c-1.4,0-2.4-0.4-3-1c-0.7-0.6-1-1.6-1-2.9V46.2l14.9,19.5h1.5V46.8c0-0.7,0.2-1.4,0.5-2
			s0.7-1.1,1.1-1.3c0.4-0.2,1.1-0.4,1.9-0.4v-1.2h-8.3v1.2c1.1,0,2,0.3,2.5,0.9c0.6,0.7,0.9,1.7,0.9,3v13.6l-14.4-18.7h-5.7
			L222.6,43.1L222.6,43.1z M195.5,43.1h1.7c0.7,0,1.1,0.1,1.3,0.3s0.3,0.8,0.3,1.7v17.2c0,0.7,0,1.2-0.1,1.4
			c-0.1,0.3-0.2,0.5-0.5,0.6c-0.2,0.1-0.5,0.2-0.8,0.2h-1.9v1.2h10.2v-1.2h-1.9c-0.7,0-1.1-0.2-1.4-0.5c-0.1-0.2-0.2-0.7-0.2-1.5V54
			h10.9v8.3c0,0.9-0.1,1.4-0.2,1.6c-0.2,0.4-0.7,0.6-1.4,0.6h-1.7v1.2h10.1v-1.2h-1.6c-0.7,0-1.3-0.2-1.5-0.5
			c-0.1-0.2-0.2-0.7-0.2-1.5V45.3c0-0.8,0-1.3,0.1-1.4c0.1-0.3,0.3-0.5,0.5-0.6s0.5-0.2,1-0.2h1.9v-1.2H210v1.2h1.7
			c0.7,0,1.1,0.1,1.3,0.3s0.3,0.8,0.3,1.7v7.3h-10.9v-7.3c0-0.9,0.1-1.5,0.3-1.7s0.6-0.3,1.3-0.3h1.9v-1.2h-10.2v1.2H195.5z
			 M186.3,41.9c-1-0.4-2-0.5-3-0.5c-1.8,0-3.6,0.5-5.2,1.6c-1.6,1-2.9,2.6-3.9,4.7c-1,2.1-1.5,4.3-1.5,6.7c0,2.2,0.5,4.3,1.5,6.2
			s2.3,3.3,4,4.3s3.5,1.5,5.5,1.5c2.4,0,4.5-0.8,6.1-2.3s2.6-3.7,2.9-6.5h-1.1c-0.4,2.5-1.3,4.4-2.6,5.6s-2.9,1.9-4.9,1.9
			c-2.2,0-3.9-0.8-5.2-2.4c-1.4-1.9-2.2-4.6-2.2-8.2c0-4.3,0.6-7.3,1.9-9.1c1.3-1.8,2.9-2.7,4.9-2.7c1.8,0,3.4,0.8,4.8,2.4
			c1.1,1.3,2,3.3,2.7,6h1.1l-0.4-9.6h-1l-1.1,2.3C188.3,42.8,187.3,42.2,186.3,41.9 M148.9,43.1h1.9c0.5,0,0.8,0.1,1.1,0.3
			c0.2,0.2,0.3,0.5,0.3,0.9v18.9c0,0.4-0.1,0.7-0.4,1c-0.3,0.2-0.7,0.3-1.3,0.3h-1.6v1.2h19.6l0.4-8.9h-1.2
			c-0.6,5.1-2.9,7.7-6.9,7.7h-3.7c-0.5,0-0.9-0.1-1.2-0.3c-0.2-0.2-0.3-0.4-0.3-0.8v-9.5h1.9c1.2,0,2.1,0.4,2.8,1.2s1.1,2.1,1.1,3.9
			h1.1V48h-1.1c-0.1,1.6-0.4,2.8-1.1,3.6c-0.7,0.8-1.6,1.2-2.7,1.2h-2v-8.5c0-0.4,0.1-0.7,0.3-0.9s0.5-0.3,0.9-0.3h4.7
			c1.5,0,2.7,0.5,3.6,1.5c0.9,1,1.6,2.8,2,5.3h1.1l-0.5-8h-18.9L148.9,43.1L148.9,43.1z M125.9,50.9h1.2c0.4-2.6,1-4.5,1.9-5.7
			c1-1.5,2.3-2.2,3.9-2.2c0.5,0,0.9,0.1,1.2,0.3c0.2,0.2,0.4,0.5,0.4,0.9v19.3c0,0.3-0.1,0.5-0.3,0.7s-0.5,0.3-0.8,0.3h-2.7v1.2
			h11.1v-1.2h-2.4c-0.5,0-0.9-0.1-1.1-0.3c-0.2-0.2-0.3-0.5-0.3-0.9v-19c0-0.5,0.1-0.8,0.3-1.1c0.2-0.2,0.7-0.3,1.3-0.3
			c3.1,0,5,2.6,5.7,7.9h1.1l-0.5-9h-19.4L125.9,50.9z"/>
	</g>
	<g>
		<defs>
			<rect id="SVGID_21_" width="369.6" height="77"/>
		</defs>
		<clipPath id="SVGID_22_">
			<use xlink:href="#SVGID_21_"  style="overflow:visible;"/>
		</clipPath>
		<path class="st5" d="M344.4,13.1h1.1c0.5,0,0.9,0.1,1.2,0.2c0.2,0.1,0.6,0.5,1.1,1l0.3,0.3v16.1c0,1-0.3,1.9-1,2.6
			c-0.7,0.7-1.6,1.1-2.7,1.1v1.2h9.1v-1.2c-1.4,0-2.4-0.4-3-1c-0.7-0.6-1-1.6-1-2.9V16.2l14.9,19.5h1.5V16.8c0-0.7,0.2-1.4,0.5-2
			s0.7-1.1,1.1-1.3s1.1-0.4,1.9-0.4v-1.2H361v1.2c1.1,0,2,0.3,2.5,0.9c0.6,0.7,0.9,1.7,0.9,3v13.6L350,11.9h-5.7v1.2H344.4z
			 M334.8,13.8c1.1,0.8,1.9,2,2.5,3.6s0.9,3.8,0.9,6.7c0,2.6-0.3,4.7-0.9,6.3c-0.6,1.6-1.4,2.8-2.5,3.5c-1,0.7-2.3,1.1-3.6,1.1
			c-2,0-3.6-0.8-4.9-2.4c-1.3-1.6-2-4.6-2-8.8c0-3.9,0.6-6.8,1.9-8.5s3-2.6,5.1-2.6C332.6,12.6,333.8,13,334.8,13.8 M325.7,13
			c-1.7,1.1-3.1,2.5-4,4.4c-1,1.9-1.5,4-1.5,6.3c0,2.4,0.5,4.5,1.5,6.5c1,1.9,2.4,3.4,4,4.5c1.7,1,3.5,1.6,5.4,1.6
			c2,0,3.8-0.5,5.6-1.6c1.7-1.1,3.1-2.6,4.1-4.5c1-1.9,1.5-4.1,1.5-6.4c0-2.4-0.5-4.5-1.5-6.4s-2.4-3.4-4.1-4.4
			c-1.8-1.1-3.6-1.6-5.6-1.6C329.1,11.4,327.4,11.9,325.7,13 M307.1,13.1h1.9c0.8,0,1.4,0.1,1.7,0.4c0.2,0.2,0.3,0.6,0.3,1.3v18
			c0,0.7-0.1,1.2-0.3,1.4c-0.2,0.2-0.7,0.3-1.4,0.3h-2.1v1.2h11v-1.2H316c-0.7,0-1.1-0.1-1.4-0.4c-0.2-0.2-0.3-0.6-0.3-1.4v-18
			c0-0.7,0.1-1.1,0.3-1.3c0.2-0.2,0.8-0.3,1.6-0.3h1.9v-1.2h-11V13.1z M285.8,20.9h1.2c0.4-2.6,1-4.5,1.9-5.7c1-1.5,2.3-2.2,3.9-2.2
			c0.5,0,0.9,0.1,1.2,0.3c0.2,0.2,0.4,0.5,0.4,0.9v19.3c0,0.3-0.1,0.5-0.3,0.7c-0.2,0.2-0.5,0.3-0.8,0.3h-2.7v1.2h11.1v-1.2h-2.4
			c-0.5,0-0.9-0.1-1.1-0.3s-0.3-0.5-0.3-0.9v-19c0-0.5,0.1-0.8,0.3-1.1c0.2-0.2,0.7-0.3,1.3-0.3c3.1,0,5,2.6,5.7,7.9h1.1l-0.5-9
			h-19.4L285.8,20.9z M277.2,26.6h-8.4l4.3-10.6L277.2,26.6z M265.5,31.6c-0.5,1.1-0.9,1.9-1.5,2.3c-0.5,0.4-1.3,0.6-2.2,0.6v1.2
			h8.6v-1.2h-0.8c-0.9,0-1.6-0.2-2.1-0.6c-0.5-0.4-0.7-0.8-0.7-1.4c0-0.5,0.1-1.1,0.4-1.8l1.1-2.9h9.4l2,5.1
			c0.1,0.2,0.1,0.4,0.1,0.6c0,0.3-0.1,0.5-0.4,0.7c-0.4,0.2-1.1,0.3-2.1,0.3h-0.8v1.2h9.5v-1.2h-0.7c-1.1,0-1.8-0.4-2.1-1.3
			l-8.5-21.8h-1.1L265.5,31.6z M232.4,13.1h2c0.7,0,1.1,0.1,1.4,0.3c0.2,0.2,0.4,0.5,0.4,0.9v16.4c0,1.4-0.3,2.3-0.8,2.9
			c-0.5,0.5-1.5,0.9-3,1v1.2h9v-1.2c-1.1-0.1-1.9-0.2-2.4-0.5s-0.8-0.7-1.1-1.2s-0.4-1.3-0.4-2.3V13.2l8.5,22.5h1.1l7.9-22.6v20.2
			c0,0.3-0.1,0.6-0.4,0.8c-0.3,0.2-0.7,0.3-1.3,0.3h-2v1.2h10.9v-1.2h-1.8c-0.7,0-1.2-0.1-1.5-0.3s-0.4-0.5-0.4-0.9V14.4
			c0-0.5,0.1-0.9,0.4-1.1c0.2-0.2,0.7-0.3,1.4-0.3h2v-1.2h-8.1l-6.6,18.8l-7.1-18.8h-7.9v1.3H232.4z M217.2,14.2
			c0-0.4,0.2-0.7,0.5-0.9s1.1-0.3,2.4-0.3c1.9,0,3.2,0.1,3.9,0.4c0.7,0.3,1.2,0.8,1.6,1.5s0.6,1.7,0.6,3c0,1.8-0.5,3.1-1.6,3.8
			c-1.1,0.7-2.5,1.1-4.4,1.1h-2.8v-8.6H217.2z M209.9,13.1h2.3c0.5,0,0.9,0.1,1.1,0.3c0.2,0.2,0.4,0.5,0.4,0.9v19
			c0,0.4-0.1,0.6-0.4,0.8c-0.2,0.2-0.6,0.3-1.1,0.3h-2.3v1.2H221v-1.2h-2.3c-0.5,0-1-0.1-1.2-0.3s-0.3-0.4-0.3-0.8V24h1.9
			c1,0,1.9,0.2,2.7,0.5c0.7,0.4,1.3,0.8,1.6,1.5c0.3,0.6,0.6,1.6,0.8,3c0.3,2.5,0.5,4,0.8,4.6c0.3,0.8,0.7,1.4,1.3,1.8
			c0.6,0.4,1.3,0.6,2,0.6c2.5,0,3.8-1.8,4-5.5h-1.1c-0.1,1.2-0.2,2.1-0.5,2.6s-0.6,0.7-0.9,0.7c-0.3,0-0.6-0.2-0.9-0.6
			c-0.4-0.5-0.7-1.5-1-2.9c-0.5-2-0.9-3.3-1.2-3.9s-0.8-1.2-1.4-1.6c-0.6-0.4-1.6-0.8-3.2-1.2c2.1-0.2,3.6-0.6,4.6-1.1
			s1.7-1.1,2.3-2c0.5-0.8,0.8-1.8,0.8-2.8c0-1.8-0.7-3.2-2-4.3s-3.2-1.6-5.6-1.6h-12.3L209.9,13.1L209.9,13.1z M200.9,13.8
			c1.1,0.8,1.9,2,2.5,3.6s0.9,3.8,0.9,6.7c0,2.6-0.3,4.7-0.9,6.3c-0.6,1.6-1.4,2.8-2.5,3.5c-1,0.7-2.2,1.1-3.6,1.1
			c-2,0-3.6-0.8-4.9-2.4s-2-4.6-2-8.8c0-3.9,0.6-6.8,1.9-8.5c1.3-1.7,3-2.6,5.1-2.6C198.6,12.6,199.8,13,200.9,13.8 M191.7,13
			c-1.7,1.1-3.1,2.5-4,4.4c-1,1.9-1.5,4-1.5,6.3c0,2.4,0.5,4.5,1.5,6.5c1,1.9,2.4,3.4,4,4.5c1.7,1,3.5,1.6,5.4,1.6
			c2,0,3.8-0.5,5.6-1.6s3.1-2.6,4.1-4.5c1-1.9,1.5-4.1,1.5-6.4c0-2.4-0.5-4.5-1.5-6.4s-2.4-3.4-4.1-4.4c-1.8-1.1-3.6-1.6-5.6-1.6
			C195.2,11.4,193.4,11.9,191.7,13 M165.1,13.1h2.3c0.5,0,0.9,0.1,1.2,0.3c0.2,0.2,0.3,0.5,0.3,0.9v19c0,0.5-0.1,0.8-0.3,1
			s-0.6,0.3-1.1,0.3h-2.4v1.2h11.5v-1.2H174c-0.6,0-1.1-0.1-1.3-0.3c-0.3-0.2-0.4-0.6-0.4-1.1v-9.1h2c1.2,0,2.1,0.4,2.7,1.1
			c0.7,0.8,1,2,1.1,3.8h1.2V18.1h-1.2c-0.1,1.6-0.4,2.7-1.1,3.5c-0.7,0.8-1.6,1.1-2.7,1.1h-2v-8.6c0-0.4,0.1-0.6,0.3-0.8
			s0.4-0.3,0.8-0.3h3.8c1.9,0,3.3,0.5,4.4,1.5c0.9,0.9,1.6,2.7,2.1,5.5h1.1l-0.3-8.2h-19.4L165.1,13.1L165.1,13.1z M138.8,13.1h1.1
			c0.5,0,0.9,0.1,1.2,0.2c0.2,0.1,0.6,0.5,1.1,1l0.3,0.3v16.1c0,1-0.3,1.9-1,2.6c-0.7,0.7-1.6,1.1-2.7,1.1v1.2h9.1v-1.2
			c-1.4,0-2.4-0.4-3-1c-0.7-0.6-1-1.6-1-2.9V16.2l14.9,19.5h1.5V16.8c0-0.7,0.2-1.4,0.5-2s0.7-1.1,1.1-1.3c0.4-0.2,1.1-0.4,1.9-0.4
			v-1.2h-8.3v1.2c1.1,0,2,0.3,2.5,0.9c0.6,0.7,0.9,1.7,0.9,3v13.6l-14.4-18.7h-5.7L138.8,13.1L138.8,13.1z M126.2,13.1h1.9
			c0.8,0,1.4,0.1,1.7,0.4c0.2,0.2,0.3,0.6,0.3,1.3v18c0,0.7-0.1,1.2-0.3,1.4s-0.7,0.3-1.4,0.3h-2.1v1.2h11v-1.2h-2.1
			c-0.7,0-1.1-0.1-1.4-0.4c-0.2-0.2-0.3-0.6-0.3-1.4v-18c0-0.7,0.1-1.1,0.3-1.3s0.7-0.3,1.6-0.3h1.9v-1.2h-11L126.2,13.1L126.2,13.1
			z"/>
	</g>
</g>
<g>
	<path class="st6" d="M17.5,73.3c0,2.1,0.5,2.8,2.6,2.8V77h-6.3v-0.9c2.2,0,2.6-0.7,2.6-2.8v-9.9c0-0.9-0.3-1-1.2-1h-1.3v-1h5.5
		l4.2,12l4.1-12h5.3v1h-1.2c-0.9,0-1.1,0.2-1.1,1v11.6c0,0.9,0.3,1,1.1,1h1.2v1H26v-1h1.3c0.9,0,1.2-0.2,1.2-1V62.6L23.6,77h-0.9
		l-5.2-14.4V73.3z"/>
	<path class="st6" d="M34.7,76h1.2c0.9,0,1.2-0.2,1.2-1V63.3c0-0.8-0.3-1-1.2-1h-1.2v-1h7.1v1h-1.2c-0.9,0-1.2,0.2-1.2,1v11.6
		c0,0.8,0.3,1,1.2,1h1.2v1h-7.1V76z"/>
	<path class="st6" d="M49,64.4l-2.5,6.3h5.1L49,64.4z M50.1,61l5.6,13.9c0.3,0.9,0.6,1.1,1.5,1.1c0.1,0,0.3,0,0.4,0v1h-6.5v-1h0.8
		c0.9,0,1.3-0.1,1.3-0.6c0-0.2-0.1-0.4-0.2-0.8l-1-2.7h-5.9l-0.7,1.7c-0.2,0.5-0.3,1-0.3,1.3c0,0.7,0.5,1.1,1.6,1.1h0.5v1h-5.6v-1
		h0.2c1.3,0,1.7-0.5,2.2-1.9L49.2,61H50.1z"/>
	<path class="st6" d="M60.9,73.3c0,2.1,0.5,2.8,2.6,2.8V77h-6.3v-1c2.2,0,2.6-0.7,2.6-2.8v-9.9c0-0.9-0.3-1-1.2-1h-1.3v-1h5.5
		l4.2,12l4.1-12h5.3v1h-1.2c-0.9,0-1.1,0.2-1.1,1v11.6c0,0.9,0.3,1,1.1,1h1.2v1h-7.1v-1h1.3c0.9,0,1.2-0.2,1.2-1V62.6L67,77h-0.9
		l-5.2-14.4V73.3z"/>
	<path class="st6" d="M78.1,76h1.2c0.9,0,1.2-0.2,1.2-1V63.3c0-0.8-0.3-1-1.2-1h-1.2v-1h7.1v1h-1.2c-0.9,0-1.2,0.2-1.2,1v11.6
		c0,0.8,0.3,1,1.2,1h1.2v1h-7.1V76z"/>
</g>
</svg>
